%TF.GenerationSoftware,KiCad,Pcbnew,6.0.2+dfsg-1*%
%TF.CreationDate,2023-02-03T15:07:53+01:00*%
%TF.ProjectId,CoaxBalun,436f6178-4261-46c7-956e-2e6b69636164,rev?*%
%TF.SameCoordinates,Original*%
%TF.FileFunction,Legend,Top*%
%TF.FilePolarity,Positive*%
%FSLAX46Y46*%
G04 Gerber Fmt 4.6, Leading zero omitted, Abs format (unit mm)*
G04 Created by KiCad (PCBNEW 6.0.2+dfsg-1) date 2023-02-03 15:07:53*
%MOMM*%
%LPD*%
G01*
G04 APERTURE LIST*
%ADD10C,0.400000*%
%ADD11C,0.300000*%
%ADD12C,0.150000*%
%ADD13C,0.010000*%
G04 APERTURE END LIST*
D10*
X130571857Y-47736142D02*
X130857571Y-47831380D01*
X130952809Y-47926619D01*
X131048047Y-48117095D01*
X131048047Y-48402809D01*
X130952809Y-48593285D01*
X130857571Y-48688523D01*
X130667095Y-48783761D01*
X129905190Y-48783761D01*
X129905190Y-46783761D01*
X130571857Y-46783761D01*
X130762333Y-46879000D01*
X130857571Y-46974238D01*
X130952809Y-47164714D01*
X130952809Y-47355190D01*
X130857571Y-47545666D01*
X130762333Y-47640904D01*
X130571857Y-47736142D01*
X129905190Y-47736142D01*
D11*
X115300428Y-57359357D02*
X115514714Y-57430785D01*
X115586142Y-57502214D01*
X115657571Y-57645071D01*
X115657571Y-57859357D01*
X115586142Y-58002214D01*
X115514714Y-58073642D01*
X115371857Y-58145071D01*
X114800428Y-58145071D01*
X114800428Y-56645071D01*
X115300428Y-56645071D01*
X115443285Y-56716500D01*
X115514714Y-56787928D01*
X115586142Y-56930785D01*
X115586142Y-57073642D01*
X115514714Y-57216500D01*
X115443285Y-57287928D01*
X115300428Y-57359357D01*
X114800428Y-57359357D01*
X116943285Y-58145071D02*
X116943285Y-57359357D01*
X116871857Y-57216500D01*
X116729000Y-57145071D01*
X116443285Y-57145071D01*
X116300428Y-57216500D01*
X116943285Y-58073642D02*
X116800428Y-58145071D01*
X116443285Y-58145071D01*
X116300428Y-58073642D01*
X116229000Y-57930785D01*
X116229000Y-57787928D01*
X116300428Y-57645071D01*
X116443285Y-57573642D01*
X116800428Y-57573642D01*
X116943285Y-57502214D01*
X117871857Y-58145071D02*
X117729000Y-58073642D01*
X117657571Y-57930785D01*
X117657571Y-56645071D01*
X118443285Y-56645071D02*
X118443285Y-57859357D01*
X118514714Y-58002214D01*
X118586142Y-58073642D01*
X118729000Y-58145071D01*
X119014714Y-58145071D01*
X119157571Y-58073642D01*
X119229000Y-58002214D01*
X119300428Y-57859357D01*
X119300428Y-56645071D01*
X120014714Y-57145071D02*
X120014714Y-58145071D01*
X120014714Y-57287928D02*
X120086142Y-57216500D01*
X120229000Y-57145071D01*
X120443285Y-57145071D01*
X120586142Y-57216500D01*
X120657571Y-57359357D01*
X120657571Y-58145071D01*
X115157571Y-59202928D02*
X115229000Y-59131500D01*
X115371857Y-59060071D01*
X115729000Y-59060071D01*
X115871857Y-59131500D01*
X115943285Y-59202928D01*
X116014714Y-59345785D01*
X116014714Y-59488642D01*
X115943285Y-59702928D01*
X115086142Y-60560071D01*
X116014714Y-60560071D01*
X116943285Y-59060071D02*
X117086142Y-59060071D01*
X117229000Y-59131500D01*
X117300428Y-59202928D01*
X117371857Y-59345785D01*
X117443285Y-59631500D01*
X117443285Y-59988642D01*
X117371857Y-60274357D01*
X117300428Y-60417214D01*
X117229000Y-60488642D01*
X117086142Y-60560071D01*
X116943285Y-60560071D01*
X116800428Y-60488642D01*
X116729000Y-60417214D01*
X116657571Y-60274357D01*
X116586142Y-59988642D01*
X116586142Y-59631500D01*
X116657571Y-59345785D01*
X116729000Y-59202928D01*
X116800428Y-59131500D01*
X116943285Y-59060071D01*
X118014714Y-59202928D02*
X118086142Y-59131500D01*
X118229000Y-59060071D01*
X118586142Y-59060071D01*
X118729000Y-59131500D01*
X118800428Y-59202928D01*
X118871857Y-59345785D01*
X118871857Y-59488642D01*
X118800428Y-59702928D01*
X117943285Y-60560071D01*
X118871857Y-60560071D01*
X119371857Y-59060071D02*
X120300428Y-59060071D01*
X119800428Y-59631500D01*
X120014714Y-59631500D01*
X120157571Y-59702928D01*
X120229000Y-59774357D01*
X120300428Y-59917214D01*
X120300428Y-60274357D01*
X120229000Y-60417214D01*
X120157571Y-60488642D01*
X120014714Y-60560071D01*
X119586142Y-60560071D01*
X119443285Y-60488642D01*
X119371857Y-60417214D01*
X113842857Y-73978571D02*
X113842857Y-72478571D01*
X114200000Y-72478571D01*
X114414285Y-72550000D01*
X114557142Y-72692857D01*
X114628571Y-72835714D01*
X114700000Y-73121428D01*
X114700000Y-73335714D01*
X114628571Y-73621428D01*
X114557142Y-73764285D01*
X114414285Y-73907142D01*
X114200000Y-73978571D01*
X113842857Y-73978571D01*
X116128571Y-72550000D02*
X115985714Y-72478571D01*
X115771428Y-72478571D01*
X115557142Y-72550000D01*
X115414285Y-72692857D01*
X115342857Y-72835714D01*
X115271428Y-73121428D01*
X115271428Y-73335714D01*
X115342857Y-73621428D01*
X115414285Y-73764285D01*
X115557142Y-73907142D01*
X115771428Y-73978571D01*
X115914285Y-73978571D01*
X116128571Y-73907142D01*
X116200000Y-73835714D01*
X116200000Y-73335714D01*
X115914285Y-73335714D01*
X117628571Y-73978571D02*
X116771428Y-73978571D01*
X117200000Y-73978571D02*
X117200000Y-72478571D01*
X117057142Y-72692857D01*
X116914285Y-72835714D01*
X116771428Y-72907142D01*
X118700000Y-72478571D02*
X118700000Y-73550000D01*
X118628571Y-73764285D01*
X118485714Y-73907142D01*
X118271428Y-73978571D01*
X118128571Y-73978571D01*
X119342857Y-73550000D02*
X120057142Y-73550000D01*
X119200000Y-73978571D02*
X119700000Y-72478571D01*
X120200000Y-73978571D01*
X120700000Y-73978571D02*
X120700000Y-72478571D01*
X121557142Y-73978571D01*
X121557142Y-72478571D01*
X118091685Y-87591214D02*
X118020257Y-87662642D01*
X117805971Y-87734071D01*
X117663114Y-87734071D01*
X117448828Y-87662642D01*
X117305971Y-87519785D01*
X117234542Y-87376928D01*
X117163114Y-87091214D01*
X117163114Y-86876928D01*
X117234542Y-86591214D01*
X117305971Y-86448357D01*
X117448828Y-86305500D01*
X117663114Y-86234071D01*
X117805971Y-86234071D01*
X118020257Y-86305500D01*
X118091685Y-86376928D01*
X117484542Y-88649071D02*
X117770257Y-88649071D01*
X117913114Y-88720500D01*
X118055971Y-88863357D01*
X118127400Y-89149071D01*
X118127400Y-89649071D01*
X118055971Y-89934785D01*
X117913114Y-90077642D01*
X117770257Y-90149071D01*
X117484542Y-90149071D01*
X117341685Y-90077642D01*
X117198828Y-89934785D01*
X117127400Y-89649071D01*
X117127400Y-89149071D01*
X117198828Y-88863357D01*
X117341685Y-88720500D01*
X117484542Y-88649071D01*
X117270257Y-92135500D02*
X117984542Y-92135500D01*
X117127400Y-92564071D02*
X117627400Y-91064071D01*
X118127400Y-92564071D01*
X117127400Y-93479071D02*
X118127400Y-94979071D01*
X118127400Y-93479071D02*
X117127400Y-94979071D01*
D10*
X104171809Y-48212333D02*
X105124190Y-48212333D01*
X103981333Y-48783761D02*
X104648000Y-46783761D01*
X105314666Y-48783761D01*
D11*
X121793142Y-84848000D02*
X121650285Y-84776571D01*
X121436000Y-84776571D01*
X121221714Y-84848000D01*
X121078857Y-84990857D01*
X121007428Y-85133714D01*
X120936000Y-85419428D01*
X120936000Y-85633714D01*
X121007428Y-85919428D01*
X121078857Y-86062285D01*
X121221714Y-86205142D01*
X121436000Y-86276571D01*
X121578857Y-86276571D01*
X121793142Y-86205142D01*
X121864571Y-86133714D01*
X121864571Y-85633714D01*
X121578857Y-85633714D01*
X122507428Y-86276571D02*
X122507428Y-84776571D01*
X123364571Y-86276571D01*
X123364571Y-84776571D01*
X124078857Y-86276571D02*
X124078857Y-84776571D01*
X124436000Y-84776571D01*
X124650285Y-84848000D01*
X124793142Y-84990857D01*
X124864571Y-85133714D01*
X124936000Y-85419428D01*
X124936000Y-85633714D01*
X124864571Y-85919428D01*
X124793142Y-86062285D01*
X124650285Y-86205142D01*
X124436000Y-86276571D01*
X124078857Y-86276571D01*
D12*
%TO.C,U2*%
X112320390Y-75255380D02*
X112320390Y-74731571D01*
X112272771Y-74636333D01*
X112177533Y-74588714D01*
X111987057Y-74588714D01*
X111891819Y-74636333D01*
X112320390Y-75207761D02*
X112225152Y-75255380D01*
X111987057Y-75255380D01*
X111891819Y-75207761D01*
X111844200Y-75112523D01*
X111844200Y-75017285D01*
X111891819Y-74922047D01*
X111987057Y-74874428D01*
X112225152Y-74874428D01*
X112320390Y-74826809D01*
X112844200Y-74255380D02*
X112748961Y-74445857D01*
X119924485Y-76652380D02*
X119924485Y-76128571D01*
X119876866Y-76033333D01*
X119781628Y-75985714D01*
X119591152Y-75985714D01*
X119495914Y-76033333D01*
X119924485Y-76604761D02*
X119829247Y-76652380D01*
X119591152Y-76652380D01*
X119495914Y-76604761D01*
X119448295Y-76509523D01*
X119448295Y-76414285D01*
X119495914Y-76319047D01*
X119591152Y-76271428D01*
X119829247Y-76271428D01*
X119924485Y-76223809D01*
X114812819Y-76652380D02*
X114812819Y-75652380D01*
X114812819Y-76033333D02*
X114908057Y-75985714D01*
X115098533Y-75985714D01*
X115193771Y-76033333D01*
X115241390Y-76080952D01*
X115289009Y-76176190D01*
X115289009Y-76461904D01*
X115241390Y-76557142D01*
X115193771Y-76604761D01*
X115098533Y-76652380D01*
X114908057Y-76652380D01*
X114812819Y-76604761D01*
X115765200Y-75652380D02*
X115669961Y-75842857D01*
X122797914Y-75255380D02*
X122797914Y-74255380D01*
X122797914Y-74636333D02*
X122893152Y-74588714D01*
X123083628Y-74588714D01*
X123178866Y-74636333D01*
X123226485Y-74683952D01*
X123274104Y-74779190D01*
X123274104Y-75064904D01*
X123226485Y-75160142D01*
X123178866Y-75207761D01*
X123083628Y-75255380D01*
X122893152Y-75255380D01*
X122797914Y-75207761D01*
%TO.C,*%
D13*
%TO.C,REF\u002A\u002A*%
X118155814Y-66068931D02*
X118239635Y-66513555D01*
X118239635Y-66513555D02*
X118548920Y-66641053D01*
X118548920Y-66641053D02*
X118858206Y-66768551D01*
X118858206Y-66768551D02*
X119229246Y-66516246D01*
X119229246Y-66516246D02*
X119333157Y-66445996D01*
X119333157Y-66445996D02*
X119427087Y-66383272D01*
X119427087Y-66383272D02*
X119506652Y-66330938D01*
X119506652Y-66330938D02*
X119567470Y-66291857D01*
X119567470Y-66291857D02*
X119605157Y-66268893D01*
X119605157Y-66268893D02*
X119615421Y-66263942D01*
X119615421Y-66263942D02*
X119633910Y-66276676D01*
X119633910Y-66276676D02*
X119673420Y-66311882D01*
X119673420Y-66311882D02*
X119729522Y-66365062D01*
X119729522Y-66365062D02*
X119797787Y-66431718D01*
X119797787Y-66431718D02*
X119873786Y-66507354D01*
X119873786Y-66507354D02*
X119953092Y-66587472D01*
X119953092Y-66587472D02*
X120031275Y-66667574D01*
X120031275Y-66667574D02*
X120103907Y-66743164D01*
X120103907Y-66743164D02*
X120166559Y-66809745D01*
X120166559Y-66809745D02*
X120214803Y-66862818D01*
X120214803Y-66862818D02*
X120244210Y-66897887D01*
X120244210Y-66897887D02*
X120251241Y-66909623D01*
X120251241Y-66909623D02*
X120241123Y-66931260D01*
X120241123Y-66931260D02*
X120212759Y-66978662D01*
X120212759Y-66978662D02*
X120169129Y-67047193D01*
X120169129Y-67047193D02*
X120113218Y-67132215D01*
X120113218Y-67132215D02*
X120048006Y-67229093D01*
X120048006Y-67229093D02*
X120010219Y-67284350D01*
X120010219Y-67284350D02*
X119941343Y-67385248D01*
X119941343Y-67385248D02*
X119880140Y-67476299D01*
X119880140Y-67476299D02*
X119829578Y-67552970D01*
X119829578Y-67552970D02*
X119792628Y-67610728D01*
X119792628Y-67610728D02*
X119772258Y-67645043D01*
X119772258Y-67645043D02*
X119769197Y-67652254D01*
X119769197Y-67652254D02*
X119776136Y-67672748D01*
X119776136Y-67672748D02*
X119795051Y-67720513D01*
X119795051Y-67720513D02*
X119823087Y-67788832D01*
X119823087Y-67788832D02*
X119857391Y-67870989D01*
X119857391Y-67870989D02*
X119895109Y-67960270D01*
X119895109Y-67960270D02*
X119933387Y-68049958D01*
X119933387Y-68049958D02*
X119969370Y-68133338D01*
X119969370Y-68133338D02*
X120000206Y-68203694D01*
X120000206Y-68203694D02*
X120023039Y-68254310D01*
X120023039Y-68254310D02*
X120035017Y-68278471D01*
X120035017Y-68278471D02*
X120035724Y-68279422D01*
X120035724Y-68279422D02*
X120054531Y-68284036D01*
X120054531Y-68284036D02*
X120104618Y-68294328D01*
X120104618Y-68294328D02*
X120180793Y-68309287D01*
X120180793Y-68309287D02*
X120277865Y-68327901D01*
X120277865Y-68327901D02*
X120390643Y-68349159D01*
X120390643Y-68349159D02*
X120456442Y-68361418D01*
X120456442Y-68361418D02*
X120576950Y-68384362D01*
X120576950Y-68384362D02*
X120685797Y-68406195D01*
X120685797Y-68406195D02*
X120777476Y-68425722D01*
X120777476Y-68425722D02*
X120846481Y-68441748D01*
X120846481Y-68441748D02*
X120887304Y-68453079D01*
X120887304Y-68453079D02*
X120895511Y-68456674D01*
X120895511Y-68456674D02*
X120903548Y-68481006D01*
X120903548Y-68481006D02*
X120910033Y-68535959D01*
X120910033Y-68535959D02*
X120914970Y-68615108D01*
X120914970Y-68615108D02*
X120918364Y-68712026D01*
X120918364Y-68712026D02*
X120920218Y-68820287D01*
X120920218Y-68820287D02*
X120920538Y-68933465D01*
X120920538Y-68933465D02*
X120919327Y-69045135D01*
X120919327Y-69045135D02*
X120916590Y-69148868D01*
X120916590Y-69148868D02*
X120912331Y-69238241D01*
X120912331Y-69238241D02*
X120906555Y-69306826D01*
X120906555Y-69306826D02*
X120899267Y-69348197D01*
X120899267Y-69348197D02*
X120894895Y-69356810D01*
X120894895Y-69356810D02*
X120868764Y-69367133D01*
X120868764Y-69367133D02*
X120813393Y-69381892D01*
X120813393Y-69381892D02*
X120736107Y-69399352D01*
X120736107Y-69399352D02*
X120644230Y-69417780D01*
X120644230Y-69417780D02*
X120612158Y-69423741D01*
X120612158Y-69423741D02*
X120457524Y-69452066D01*
X120457524Y-69452066D02*
X120335375Y-69474876D01*
X120335375Y-69474876D02*
X120241673Y-69493080D01*
X120241673Y-69493080D02*
X120172384Y-69507583D01*
X120172384Y-69507583D02*
X120123471Y-69519292D01*
X120123471Y-69519292D02*
X120090897Y-69529115D01*
X120090897Y-69529115D02*
X120070628Y-69537956D01*
X120070628Y-69537956D02*
X120058626Y-69546724D01*
X120058626Y-69546724D02*
X120056947Y-69548457D01*
X120056947Y-69548457D02*
X120040184Y-69576371D01*
X120040184Y-69576371D02*
X120014614Y-69630695D01*
X120014614Y-69630695D02*
X119982788Y-69704777D01*
X119982788Y-69704777D02*
X119947260Y-69791965D01*
X119947260Y-69791965D02*
X119910583Y-69885608D01*
X119910583Y-69885608D02*
X119875311Y-69979052D01*
X119875311Y-69979052D02*
X119843996Y-70065647D01*
X119843996Y-70065647D02*
X119819193Y-70138740D01*
X119819193Y-70138740D02*
X119803454Y-70191678D01*
X119803454Y-70191678D02*
X119799332Y-70217811D01*
X119799332Y-70217811D02*
X119799676Y-70218726D01*
X119799676Y-70218726D02*
X119813641Y-70240086D01*
X119813641Y-70240086D02*
X119845322Y-70287084D01*
X119845322Y-70287084D02*
X119891391Y-70354827D01*
X119891391Y-70354827D02*
X119948518Y-70438423D01*
X119948518Y-70438423D02*
X120013373Y-70532982D01*
X120013373Y-70532982D02*
X120031843Y-70559854D01*
X120031843Y-70559854D02*
X120097699Y-70657275D01*
X120097699Y-70657275D02*
X120155650Y-70746163D01*
X120155650Y-70746163D02*
X120202538Y-70821412D01*
X120202538Y-70821412D02*
X120235207Y-70877920D01*
X120235207Y-70877920D02*
X120250500Y-70910581D01*
X120250500Y-70910581D02*
X120251241Y-70914593D01*
X120251241Y-70914593D02*
X120238392Y-70935684D01*
X120238392Y-70935684D02*
X120202888Y-70977464D01*
X120202888Y-70977464D02*
X120149293Y-71035445D01*
X120149293Y-71035445D02*
X120082171Y-71105135D01*
X120082171Y-71105135D02*
X120006087Y-71182045D01*
X120006087Y-71182045D02*
X119925604Y-71261683D01*
X119925604Y-71261683D02*
X119845287Y-71339561D01*
X119845287Y-71339561D02*
X119769699Y-71411186D01*
X119769699Y-71411186D02*
X119703405Y-71472070D01*
X119703405Y-71472070D02*
X119650969Y-71517721D01*
X119650969Y-71517721D02*
X119616955Y-71543650D01*
X119616955Y-71543650D02*
X119607545Y-71547883D01*
X119607545Y-71547883D02*
X119585643Y-71537912D01*
X119585643Y-71537912D02*
X119540800Y-71511020D01*
X119540800Y-71511020D02*
X119480321Y-71471736D01*
X119480321Y-71471736D02*
X119433789Y-71440117D01*
X119433789Y-71440117D02*
X119349475Y-71382098D01*
X119349475Y-71382098D02*
X119249626Y-71313784D01*
X119249626Y-71313784D02*
X119149473Y-71245579D01*
X119149473Y-71245579D02*
X119095627Y-71209075D01*
X119095627Y-71209075D02*
X118913371Y-71085800D01*
X118913371Y-71085800D02*
X118760381Y-71168520D01*
X118760381Y-71168520D02*
X118690682Y-71204759D01*
X118690682Y-71204759D02*
X118631414Y-71232926D01*
X118631414Y-71232926D02*
X118591311Y-71248991D01*
X118591311Y-71248991D02*
X118581103Y-71251226D01*
X118581103Y-71251226D02*
X118568829Y-71234722D01*
X118568829Y-71234722D02*
X118544613Y-71188082D01*
X118544613Y-71188082D02*
X118510263Y-71115609D01*
X118510263Y-71115609D02*
X118467588Y-71021606D01*
X118467588Y-71021606D02*
X118418394Y-70910374D01*
X118418394Y-70910374D02*
X118364490Y-70786215D01*
X118364490Y-70786215D02*
X118307684Y-70653432D01*
X118307684Y-70653432D02*
X118249782Y-70516327D01*
X118249782Y-70516327D02*
X118192593Y-70379202D01*
X118192593Y-70379202D02*
X118137924Y-70246358D01*
X118137924Y-70246358D02*
X118087584Y-70122098D01*
X118087584Y-70122098D02*
X118043380Y-70010725D01*
X118043380Y-70010725D02*
X118007119Y-69916539D01*
X118007119Y-69916539D02*
X117980609Y-69843844D01*
X117980609Y-69843844D02*
X117965658Y-69796941D01*
X117965658Y-69796941D02*
X117963254Y-69780833D01*
X117963254Y-69780833D02*
X117982311Y-69760286D01*
X117982311Y-69760286D02*
X118024036Y-69726933D01*
X118024036Y-69726933D02*
X118079706Y-69687702D01*
X118079706Y-69687702D02*
X118084378Y-69684599D01*
X118084378Y-69684599D02*
X118228264Y-69569423D01*
X118228264Y-69569423D02*
X118344283Y-69435053D01*
X118344283Y-69435053D02*
X118431430Y-69285784D01*
X118431430Y-69285784D02*
X118488699Y-69125913D01*
X118488699Y-69125913D02*
X118515086Y-68959737D01*
X118515086Y-68959737D02*
X118509585Y-68791552D01*
X118509585Y-68791552D02*
X118471190Y-68625655D01*
X118471190Y-68625655D02*
X118398895Y-68466342D01*
X118398895Y-68466342D02*
X118377626Y-68431487D01*
X118377626Y-68431487D02*
X118266996Y-68290737D01*
X118266996Y-68290737D02*
X118136302Y-68177714D01*
X118136302Y-68177714D02*
X117990064Y-68093003D01*
X117990064Y-68093003D02*
X117832808Y-68037194D01*
X117832808Y-68037194D02*
X117669057Y-68010874D01*
X117669057Y-68010874D02*
X117503333Y-68014630D01*
X117503333Y-68014630D02*
X117340162Y-68049050D01*
X117340162Y-68049050D02*
X117184065Y-68114723D01*
X117184065Y-68114723D02*
X117039567Y-68212235D01*
X117039567Y-68212235D02*
X116994869Y-68251813D01*
X116994869Y-68251813D02*
X116881112Y-68375703D01*
X116881112Y-68375703D02*
X116798218Y-68506124D01*
X116798218Y-68506124D02*
X116741356Y-68652315D01*
X116741356Y-68652315D02*
X116709687Y-68797088D01*
X116709687Y-68797088D02*
X116701869Y-68959860D01*
X116701869Y-68959860D02*
X116727938Y-69123440D01*
X116727938Y-69123440D02*
X116785245Y-69282298D01*
X116785245Y-69282298D02*
X116871144Y-69430906D01*
X116871144Y-69430906D02*
X116982986Y-69563735D01*
X116982986Y-69563735D02*
X117118123Y-69675256D01*
X117118123Y-69675256D02*
X117135883Y-69687011D01*
X117135883Y-69687011D02*
X117192150Y-69725508D01*
X117192150Y-69725508D02*
X117234923Y-69758863D01*
X117234923Y-69758863D02*
X117255372Y-69780160D01*
X117255372Y-69780160D02*
X117255669Y-69780833D01*
X117255669Y-69780833D02*
X117251279Y-69803871D01*
X117251279Y-69803871D02*
X117233876Y-69856157D01*
X117233876Y-69856157D02*
X117205268Y-69933390D01*
X117205268Y-69933390D02*
X117167265Y-70031268D01*
X117167265Y-70031268D02*
X117121674Y-70145491D01*
X117121674Y-70145491D02*
X117070303Y-70271758D01*
X117070303Y-70271758D02*
X117014962Y-70405767D01*
X117014962Y-70405767D02*
X116957458Y-70543218D01*
X116957458Y-70543218D02*
X116899601Y-70679808D01*
X116899601Y-70679808D02*
X116843198Y-70811237D01*
X116843198Y-70811237D02*
X116790058Y-70933205D01*
X116790058Y-70933205D02*
X116741990Y-71041409D01*
X116741990Y-71041409D02*
X116700801Y-71131549D01*
X116700801Y-71131549D02*
X116668301Y-71199323D01*
X116668301Y-71199323D02*
X116646297Y-71240430D01*
X116646297Y-71240430D02*
X116637436Y-71251226D01*
X116637436Y-71251226D02*
X116610360Y-71242819D01*
X116610360Y-71242819D02*
X116559697Y-71220272D01*
X116559697Y-71220272D02*
X116494183Y-71187613D01*
X116494183Y-71187613D02*
X116458159Y-71168520D01*
X116458159Y-71168520D02*
X116305168Y-71085800D01*
X116305168Y-71085800D02*
X116122912Y-71209075D01*
X116122912Y-71209075D02*
X116029875Y-71272228D01*
X116029875Y-71272228D02*
X115928015Y-71341727D01*
X115928015Y-71341727D02*
X115832562Y-71407165D01*
X115832562Y-71407165D02*
X115784750Y-71440117D01*
X115784750Y-71440117D02*
X115717505Y-71485273D01*
X115717505Y-71485273D02*
X115660564Y-71521057D01*
X115660564Y-71521057D02*
X115621354Y-71542938D01*
X115621354Y-71542938D02*
X115608619Y-71547563D01*
X115608619Y-71547563D02*
X115590083Y-71535085D01*
X115590083Y-71535085D02*
X115549059Y-71500252D01*
X115549059Y-71500252D02*
X115489525Y-71446678D01*
X115489525Y-71446678D02*
X115415458Y-71377983D01*
X115415458Y-71377983D02*
X115330835Y-71297781D01*
X115330835Y-71297781D02*
X115277315Y-71246286D01*
X115277315Y-71246286D02*
X115183681Y-71154286D01*
X115183681Y-71154286D02*
X115102759Y-71071999D01*
X115102759Y-71071999D02*
X115037823Y-71002945D01*
X115037823Y-71002945D02*
X114992142Y-70950644D01*
X114992142Y-70950644D02*
X114968989Y-70918616D01*
X114968989Y-70918616D02*
X114966768Y-70912116D01*
X114966768Y-70912116D02*
X114977076Y-70887394D01*
X114977076Y-70887394D02*
X115005561Y-70837405D01*
X115005561Y-70837405D02*
X115049063Y-70767212D01*
X115049063Y-70767212D02*
X115104423Y-70681875D01*
X115104423Y-70681875D02*
X115168480Y-70586456D01*
X115168480Y-70586456D02*
X115186697Y-70559854D01*
X115186697Y-70559854D02*
X115253073Y-70463167D01*
X115253073Y-70463167D02*
X115312622Y-70376117D01*
X115312622Y-70376117D02*
X115362016Y-70303595D01*
X115362016Y-70303595D02*
X115397925Y-70250493D01*
X115397925Y-70250493D02*
X115417019Y-70221703D01*
X115417019Y-70221703D02*
X115418864Y-70218726D01*
X115418864Y-70218726D02*
X115416105Y-70195782D01*
X115416105Y-70195782D02*
X115401462Y-70145336D01*
X115401462Y-70145336D02*
X115377487Y-70074041D01*
X115377487Y-70074041D02*
X115346734Y-69988547D01*
X115346734Y-69988547D02*
X115311756Y-69895507D01*
X115311756Y-69895507D02*
X115275107Y-69801574D01*
X115275107Y-69801574D02*
X115239339Y-69713399D01*
X115239339Y-69713399D02*
X115207006Y-69637634D01*
X115207006Y-69637634D02*
X115180662Y-69580931D01*
X115180662Y-69580931D02*
X115162858Y-69549943D01*
X115162858Y-69549943D02*
X115161593Y-69548457D01*
X115161593Y-69548457D02*
X115150706Y-69539601D01*
X115150706Y-69539601D02*
X115132318Y-69530843D01*
X115132318Y-69530843D02*
X115102394Y-69521277D01*
X115102394Y-69521277D02*
X115056897Y-69509996D01*
X115056897Y-69509996D02*
X114991791Y-69496093D01*
X114991791Y-69496093D02*
X114903039Y-69478663D01*
X114903039Y-69478663D02*
X114786607Y-69456798D01*
X114786607Y-69456798D02*
X114638458Y-69429591D01*
X114638458Y-69429591D02*
X114606382Y-69423741D01*
X114606382Y-69423741D02*
X114511314Y-69405374D01*
X114511314Y-69405374D02*
X114428435Y-69387405D01*
X114428435Y-69387405D02*
X114365070Y-69371569D01*
X114365070Y-69371569D02*
X114328542Y-69359600D01*
X114328542Y-69359600D02*
X114323644Y-69356810D01*
X114323644Y-69356810D02*
X114315573Y-69332072D01*
X114315573Y-69332072D02*
X114309013Y-69276790D01*
X114309013Y-69276790D02*
X114303967Y-69197389D01*
X114303967Y-69197389D02*
X114300441Y-69100296D01*
X114300441Y-69100296D02*
X114298439Y-68991938D01*
X114298439Y-68991938D02*
X114297964Y-68878740D01*
X114297964Y-68878740D02*
X114299023Y-68767128D01*
X114299023Y-68767128D02*
X114301618Y-68663529D01*
X114301618Y-68663529D02*
X114305754Y-68574368D01*
X114305754Y-68574368D02*
X114311437Y-68506072D01*
X114311437Y-68506072D02*
X114318669Y-68465066D01*
X114318669Y-68465066D02*
X114323029Y-68456674D01*
X114323029Y-68456674D02*
X114347302Y-68448208D01*
X114347302Y-68448208D02*
X114402574Y-68434435D01*
X114402574Y-68434435D02*
X114483338Y-68416550D01*
X114483338Y-68416550D02*
X114584088Y-68395748D01*
X114584088Y-68395748D02*
X114699317Y-68373223D01*
X114699317Y-68373223D02*
X114762098Y-68361418D01*
X114762098Y-68361418D02*
X114881213Y-68339151D01*
X114881213Y-68339151D02*
X114987435Y-68318979D01*
X114987435Y-68318979D02*
X115075573Y-68301915D01*
X115075573Y-68301915D02*
X115140434Y-68288969D01*
X115140434Y-68288969D02*
X115176826Y-68281155D01*
X115176826Y-68281155D02*
X115182816Y-68279422D01*
X115182816Y-68279422D02*
X115192939Y-68259890D01*
X115192939Y-68259890D02*
X115214338Y-68212843D01*
X115214338Y-68212843D02*
X115244161Y-68145003D01*
X115244161Y-68145003D02*
X115279555Y-68063091D01*
X115279555Y-68063091D02*
X115317668Y-67973828D01*
X115317668Y-67973828D02*
X115355647Y-67883935D01*
X115355647Y-67883935D02*
X115390640Y-67800135D01*
X115390640Y-67800135D02*
X115419794Y-67729147D01*
X115419794Y-67729147D02*
X115440257Y-67677694D01*
X115440257Y-67677694D02*
X115449177Y-67652497D01*
X115449177Y-67652497D02*
X115449343Y-67651396D01*
X115449343Y-67651396D02*
X115439231Y-67631519D01*
X115439231Y-67631519D02*
X115410883Y-67585777D01*
X115410883Y-67585777D02*
X115367277Y-67518717D01*
X115367277Y-67518717D02*
X115311394Y-67434884D01*
X115311394Y-67434884D02*
X115246213Y-67338826D01*
X115246213Y-67338826D02*
X115208321Y-67283650D01*
X115208321Y-67283650D02*
X115139275Y-67182481D01*
X115139275Y-67182481D02*
X115077950Y-67090630D01*
X115077950Y-67090630D02*
X115027337Y-67012744D01*
X115027337Y-67012744D02*
X114990429Y-66953469D01*
X114990429Y-66953469D02*
X114970218Y-66917451D01*
X114970218Y-66917451D02*
X114967299Y-66909377D01*
X114967299Y-66909377D02*
X114979847Y-66890584D01*
X114979847Y-66890584D02*
X115014537Y-66850457D01*
X115014537Y-66850457D02*
X115066937Y-66793493D01*
X115066937Y-66793493D02*
X115132616Y-66724185D01*
X115132616Y-66724185D02*
X115207144Y-66647031D01*
X115207144Y-66647031D02*
X115286087Y-66566525D01*
X115286087Y-66566525D02*
X115365017Y-66487163D01*
X115365017Y-66487163D02*
X115439500Y-66413440D01*
X115439500Y-66413440D02*
X115505106Y-66349852D01*
X115505106Y-66349852D02*
X115557404Y-66300894D01*
X115557404Y-66300894D02*
X115591961Y-66271061D01*
X115591961Y-66271061D02*
X115603522Y-66263942D01*
X115603522Y-66263942D02*
X115622346Y-66273953D01*
X115622346Y-66273953D02*
X115667369Y-66302078D01*
X115667369Y-66302078D02*
X115734213Y-66345454D01*
X115734213Y-66345454D02*
X115818501Y-66401218D01*
X115818501Y-66401218D02*
X115915856Y-66466506D01*
X115915856Y-66466506D02*
X115989293Y-66516246D01*
X115989293Y-66516246D02*
X116360333Y-66768551D01*
X116360333Y-66768551D02*
X116978905Y-66513555D01*
X116978905Y-66513555D02*
X117062725Y-66068931D01*
X117062725Y-66068931D02*
X117146546Y-65624307D01*
X117146546Y-65624307D02*
X118071994Y-65624307D01*
X118071994Y-65624307D02*
X118155814Y-66068931D01*
X118155814Y-66068931D02*
X118155814Y-66068931D01*
G36*
X118155814Y-66068931D02*
G01*
X118239635Y-66513555D01*
X118548920Y-66641053D01*
X118858206Y-66768551D01*
X119229246Y-66516246D01*
X119333157Y-66445996D01*
X119427087Y-66383272D01*
X119506652Y-66330938D01*
X119567470Y-66291857D01*
X119605157Y-66268893D01*
X119615421Y-66263942D01*
X119633910Y-66276676D01*
X119673420Y-66311882D01*
X119729522Y-66365062D01*
X119797787Y-66431718D01*
X119873786Y-66507354D01*
X119953092Y-66587472D01*
X120031275Y-66667574D01*
X120103907Y-66743164D01*
X120166559Y-66809745D01*
X120214803Y-66862818D01*
X120244210Y-66897887D01*
X120251241Y-66909623D01*
X120241123Y-66931260D01*
X120212759Y-66978662D01*
X120169129Y-67047193D01*
X120113218Y-67132215D01*
X120048006Y-67229093D01*
X120010219Y-67284350D01*
X119941343Y-67385248D01*
X119880140Y-67476299D01*
X119829578Y-67552970D01*
X119792628Y-67610728D01*
X119772258Y-67645043D01*
X119769197Y-67652254D01*
X119776136Y-67672748D01*
X119795051Y-67720513D01*
X119823087Y-67788832D01*
X119857391Y-67870989D01*
X119895109Y-67960270D01*
X119933387Y-68049958D01*
X119969370Y-68133338D01*
X120000206Y-68203694D01*
X120023039Y-68254310D01*
X120035017Y-68278471D01*
X120035724Y-68279422D01*
X120054531Y-68284036D01*
X120104618Y-68294328D01*
X120180793Y-68309287D01*
X120277865Y-68327901D01*
X120390643Y-68349159D01*
X120456442Y-68361418D01*
X120576950Y-68384362D01*
X120685797Y-68406195D01*
X120777476Y-68425722D01*
X120846481Y-68441748D01*
X120887304Y-68453079D01*
X120895511Y-68456674D01*
X120903548Y-68481006D01*
X120910033Y-68535959D01*
X120914970Y-68615108D01*
X120918364Y-68712026D01*
X120920218Y-68820287D01*
X120920538Y-68933465D01*
X120919327Y-69045135D01*
X120916590Y-69148868D01*
X120912331Y-69238241D01*
X120906555Y-69306826D01*
X120899267Y-69348197D01*
X120894895Y-69356810D01*
X120868764Y-69367133D01*
X120813393Y-69381892D01*
X120736107Y-69399352D01*
X120644230Y-69417780D01*
X120612158Y-69423741D01*
X120457524Y-69452066D01*
X120335375Y-69474876D01*
X120241673Y-69493080D01*
X120172384Y-69507583D01*
X120123471Y-69519292D01*
X120090897Y-69529115D01*
X120070628Y-69537956D01*
X120058626Y-69546724D01*
X120056947Y-69548457D01*
X120040184Y-69576371D01*
X120014614Y-69630695D01*
X119982788Y-69704777D01*
X119947260Y-69791965D01*
X119910583Y-69885608D01*
X119875311Y-69979052D01*
X119843996Y-70065647D01*
X119819193Y-70138740D01*
X119803454Y-70191678D01*
X119799332Y-70217811D01*
X119799676Y-70218726D01*
X119813641Y-70240086D01*
X119845322Y-70287084D01*
X119891391Y-70354827D01*
X119948518Y-70438423D01*
X120013373Y-70532982D01*
X120031843Y-70559854D01*
X120097699Y-70657275D01*
X120155650Y-70746163D01*
X120202538Y-70821412D01*
X120235207Y-70877920D01*
X120250500Y-70910581D01*
X120251241Y-70914593D01*
X120238392Y-70935684D01*
X120202888Y-70977464D01*
X120149293Y-71035445D01*
X120082171Y-71105135D01*
X120006087Y-71182045D01*
X119925604Y-71261683D01*
X119845287Y-71339561D01*
X119769699Y-71411186D01*
X119703405Y-71472070D01*
X119650969Y-71517721D01*
X119616955Y-71543650D01*
X119607545Y-71547883D01*
X119585643Y-71537912D01*
X119540800Y-71511020D01*
X119480321Y-71471736D01*
X119433789Y-71440117D01*
X119349475Y-71382098D01*
X119249626Y-71313784D01*
X119149473Y-71245579D01*
X119095627Y-71209075D01*
X118913371Y-71085800D01*
X118760381Y-71168520D01*
X118690682Y-71204759D01*
X118631414Y-71232926D01*
X118591311Y-71248991D01*
X118581103Y-71251226D01*
X118568829Y-71234722D01*
X118544613Y-71188082D01*
X118510263Y-71115609D01*
X118467588Y-71021606D01*
X118418394Y-70910374D01*
X118364490Y-70786215D01*
X118307684Y-70653432D01*
X118249782Y-70516327D01*
X118192593Y-70379202D01*
X118137924Y-70246358D01*
X118087584Y-70122098D01*
X118043380Y-70010725D01*
X118007119Y-69916539D01*
X117980609Y-69843844D01*
X117965658Y-69796941D01*
X117963254Y-69780833D01*
X117982311Y-69760286D01*
X118024036Y-69726933D01*
X118079706Y-69687702D01*
X118084378Y-69684599D01*
X118228264Y-69569423D01*
X118344283Y-69435053D01*
X118431430Y-69285784D01*
X118488699Y-69125913D01*
X118515086Y-68959737D01*
X118509585Y-68791552D01*
X118471190Y-68625655D01*
X118398895Y-68466342D01*
X118377626Y-68431487D01*
X118266996Y-68290737D01*
X118136302Y-68177714D01*
X117990064Y-68093003D01*
X117832808Y-68037194D01*
X117669057Y-68010874D01*
X117503333Y-68014630D01*
X117340162Y-68049050D01*
X117184065Y-68114723D01*
X117039567Y-68212235D01*
X116994869Y-68251813D01*
X116881112Y-68375703D01*
X116798218Y-68506124D01*
X116741356Y-68652315D01*
X116709687Y-68797088D01*
X116701869Y-68959860D01*
X116727938Y-69123440D01*
X116785245Y-69282298D01*
X116871144Y-69430906D01*
X116982986Y-69563735D01*
X117118123Y-69675256D01*
X117135883Y-69687011D01*
X117192150Y-69725508D01*
X117234923Y-69758863D01*
X117255372Y-69780160D01*
X117255669Y-69780833D01*
X117251279Y-69803871D01*
X117233876Y-69856157D01*
X117205268Y-69933390D01*
X117167265Y-70031268D01*
X117121674Y-70145491D01*
X117070303Y-70271758D01*
X117014962Y-70405767D01*
X116957458Y-70543218D01*
X116899601Y-70679808D01*
X116843198Y-70811237D01*
X116790058Y-70933205D01*
X116741990Y-71041409D01*
X116700801Y-71131549D01*
X116668301Y-71199323D01*
X116646297Y-71240430D01*
X116637436Y-71251226D01*
X116610360Y-71242819D01*
X116559697Y-71220272D01*
X116494183Y-71187613D01*
X116458159Y-71168520D01*
X116305168Y-71085800D01*
X116122912Y-71209075D01*
X116029875Y-71272228D01*
X115928015Y-71341727D01*
X115832562Y-71407165D01*
X115784750Y-71440117D01*
X115717505Y-71485273D01*
X115660564Y-71521057D01*
X115621354Y-71542938D01*
X115608619Y-71547563D01*
X115590083Y-71535085D01*
X115549059Y-71500252D01*
X115489525Y-71446678D01*
X115415458Y-71377983D01*
X115330835Y-71297781D01*
X115277315Y-71246286D01*
X115183681Y-71154286D01*
X115102759Y-71071999D01*
X115037823Y-71002945D01*
X114992142Y-70950644D01*
X114968989Y-70918616D01*
X114966768Y-70912116D01*
X114977076Y-70887394D01*
X115005561Y-70837405D01*
X115049063Y-70767212D01*
X115104423Y-70681875D01*
X115168480Y-70586456D01*
X115186697Y-70559854D01*
X115253073Y-70463167D01*
X115312622Y-70376117D01*
X115362016Y-70303595D01*
X115397925Y-70250493D01*
X115417019Y-70221703D01*
X115418864Y-70218726D01*
X115416105Y-70195782D01*
X115401462Y-70145336D01*
X115377487Y-70074041D01*
X115346734Y-69988547D01*
X115311756Y-69895507D01*
X115275107Y-69801574D01*
X115239339Y-69713399D01*
X115207006Y-69637634D01*
X115180662Y-69580931D01*
X115162858Y-69549943D01*
X115161593Y-69548457D01*
X115150706Y-69539601D01*
X115132318Y-69530843D01*
X115102394Y-69521277D01*
X115056897Y-69509996D01*
X114991791Y-69496093D01*
X114903039Y-69478663D01*
X114786607Y-69456798D01*
X114638458Y-69429591D01*
X114606382Y-69423741D01*
X114511314Y-69405374D01*
X114428435Y-69387405D01*
X114365070Y-69371569D01*
X114328542Y-69359600D01*
X114323644Y-69356810D01*
X114315573Y-69332072D01*
X114309013Y-69276790D01*
X114303967Y-69197389D01*
X114300441Y-69100296D01*
X114298439Y-68991938D01*
X114297964Y-68878740D01*
X114299023Y-68767128D01*
X114301618Y-68663529D01*
X114305754Y-68574368D01*
X114311437Y-68506072D01*
X114318669Y-68465066D01*
X114323029Y-68456674D01*
X114347302Y-68448208D01*
X114402574Y-68434435D01*
X114483338Y-68416550D01*
X114584088Y-68395748D01*
X114699317Y-68373223D01*
X114762098Y-68361418D01*
X114881213Y-68339151D01*
X114987435Y-68318979D01*
X115075573Y-68301915D01*
X115140434Y-68288969D01*
X115176826Y-68281155D01*
X115182816Y-68279422D01*
X115192939Y-68259890D01*
X115214338Y-68212843D01*
X115244161Y-68145003D01*
X115279555Y-68063091D01*
X115317668Y-67973828D01*
X115355647Y-67883935D01*
X115390640Y-67800135D01*
X115419794Y-67729147D01*
X115440257Y-67677694D01*
X115449177Y-67652497D01*
X115449343Y-67651396D01*
X115439231Y-67631519D01*
X115410883Y-67585777D01*
X115367277Y-67518717D01*
X115311394Y-67434884D01*
X115246213Y-67338826D01*
X115208321Y-67283650D01*
X115139275Y-67182481D01*
X115077950Y-67090630D01*
X115027337Y-67012744D01*
X114990429Y-66953469D01*
X114970218Y-66917451D01*
X114967299Y-66909377D01*
X114979847Y-66890584D01*
X115014537Y-66850457D01*
X115066937Y-66793493D01*
X115132616Y-66724185D01*
X115207144Y-66647031D01*
X115286087Y-66566525D01*
X115365017Y-66487163D01*
X115439500Y-66413440D01*
X115505106Y-66349852D01*
X115557404Y-66300894D01*
X115591961Y-66271061D01*
X115603522Y-66263942D01*
X115622346Y-66273953D01*
X115667369Y-66302078D01*
X115734213Y-66345454D01*
X115818501Y-66401218D01*
X115915856Y-66466506D01*
X115989293Y-66516246D01*
X116360333Y-66768551D01*
X116978905Y-66513555D01*
X117062725Y-66068931D01*
X117146546Y-65624307D01*
X118071994Y-65624307D01*
X118155814Y-66068931D01*
G37*
X118155814Y-66068931D02*
X118239635Y-66513555D01*
X118548920Y-66641053D01*
X118858206Y-66768551D01*
X119229246Y-66516246D01*
X119333157Y-66445996D01*
X119427087Y-66383272D01*
X119506652Y-66330938D01*
X119567470Y-66291857D01*
X119605157Y-66268893D01*
X119615421Y-66263942D01*
X119633910Y-66276676D01*
X119673420Y-66311882D01*
X119729522Y-66365062D01*
X119797787Y-66431718D01*
X119873786Y-66507354D01*
X119953092Y-66587472D01*
X120031275Y-66667574D01*
X120103907Y-66743164D01*
X120166559Y-66809745D01*
X120214803Y-66862818D01*
X120244210Y-66897887D01*
X120251241Y-66909623D01*
X120241123Y-66931260D01*
X120212759Y-66978662D01*
X120169129Y-67047193D01*
X120113218Y-67132215D01*
X120048006Y-67229093D01*
X120010219Y-67284350D01*
X119941343Y-67385248D01*
X119880140Y-67476299D01*
X119829578Y-67552970D01*
X119792628Y-67610728D01*
X119772258Y-67645043D01*
X119769197Y-67652254D01*
X119776136Y-67672748D01*
X119795051Y-67720513D01*
X119823087Y-67788832D01*
X119857391Y-67870989D01*
X119895109Y-67960270D01*
X119933387Y-68049958D01*
X119969370Y-68133338D01*
X120000206Y-68203694D01*
X120023039Y-68254310D01*
X120035017Y-68278471D01*
X120035724Y-68279422D01*
X120054531Y-68284036D01*
X120104618Y-68294328D01*
X120180793Y-68309287D01*
X120277865Y-68327901D01*
X120390643Y-68349159D01*
X120456442Y-68361418D01*
X120576950Y-68384362D01*
X120685797Y-68406195D01*
X120777476Y-68425722D01*
X120846481Y-68441748D01*
X120887304Y-68453079D01*
X120895511Y-68456674D01*
X120903548Y-68481006D01*
X120910033Y-68535959D01*
X120914970Y-68615108D01*
X120918364Y-68712026D01*
X120920218Y-68820287D01*
X120920538Y-68933465D01*
X120919327Y-69045135D01*
X120916590Y-69148868D01*
X120912331Y-69238241D01*
X120906555Y-69306826D01*
X120899267Y-69348197D01*
X120894895Y-69356810D01*
X120868764Y-69367133D01*
X120813393Y-69381892D01*
X120736107Y-69399352D01*
X120644230Y-69417780D01*
X120612158Y-69423741D01*
X120457524Y-69452066D01*
X120335375Y-69474876D01*
X120241673Y-69493080D01*
X120172384Y-69507583D01*
X120123471Y-69519292D01*
X120090897Y-69529115D01*
X120070628Y-69537956D01*
X120058626Y-69546724D01*
X120056947Y-69548457D01*
X120040184Y-69576371D01*
X120014614Y-69630695D01*
X119982788Y-69704777D01*
X119947260Y-69791965D01*
X119910583Y-69885608D01*
X119875311Y-69979052D01*
X119843996Y-70065647D01*
X119819193Y-70138740D01*
X119803454Y-70191678D01*
X119799332Y-70217811D01*
X119799676Y-70218726D01*
X119813641Y-70240086D01*
X119845322Y-70287084D01*
X119891391Y-70354827D01*
X119948518Y-70438423D01*
X120013373Y-70532982D01*
X120031843Y-70559854D01*
X120097699Y-70657275D01*
X120155650Y-70746163D01*
X120202538Y-70821412D01*
X120235207Y-70877920D01*
X120250500Y-70910581D01*
X120251241Y-70914593D01*
X120238392Y-70935684D01*
X120202888Y-70977464D01*
X120149293Y-71035445D01*
X120082171Y-71105135D01*
X120006087Y-71182045D01*
X119925604Y-71261683D01*
X119845287Y-71339561D01*
X119769699Y-71411186D01*
X119703405Y-71472070D01*
X119650969Y-71517721D01*
X119616955Y-71543650D01*
X119607545Y-71547883D01*
X119585643Y-71537912D01*
X119540800Y-71511020D01*
X119480321Y-71471736D01*
X119433789Y-71440117D01*
X119349475Y-71382098D01*
X119249626Y-71313784D01*
X119149473Y-71245579D01*
X119095627Y-71209075D01*
X118913371Y-71085800D01*
X118760381Y-71168520D01*
X118690682Y-71204759D01*
X118631414Y-71232926D01*
X118591311Y-71248991D01*
X118581103Y-71251226D01*
X118568829Y-71234722D01*
X118544613Y-71188082D01*
X118510263Y-71115609D01*
X118467588Y-71021606D01*
X118418394Y-70910374D01*
X118364490Y-70786215D01*
X118307684Y-70653432D01*
X118249782Y-70516327D01*
X118192593Y-70379202D01*
X118137924Y-70246358D01*
X118087584Y-70122098D01*
X118043380Y-70010725D01*
X118007119Y-69916539D01*
X117980609Y-69843844D01*
X117965658Y-69796941D01*
X117963254Y-69780833D01*
X117982311Y-69760286D01*
X118024036Y-69726933D01*
X118079706Y-69687702D01*
X118084378Y-69684599D01*
X118228264Y-69569423D01*
X118344283Y-69435053D01*
X118431430Y-69285784D01*
X118488699Y-69125913D01*
X118515086Y-68959737D01*
X118509585Y-68791552D01*
X118471190Y-68625655D01*
X118398895Y-68466342D01*
X118377626Y-68431487D01*
X118266996Y-68290737D01*
X118136302Y-68177714D01*
X117990064Y-68093003D01*
X117832808Y-68037194D01*
X117669057Y-68010874D01*
X117503333Y-68014630D01*
X117340162Y-68049050D01*
X117184065Y-68114723D01*
X117039567Y-68212235D01*
X116994869Y-68251813D01*
X116881112Y-68375703D01*
X116798218Y-68506124D01*
X116741356Y-68652315D01*
X116709687Y-68797088D01*
X116701869Y-68959860D01*
X116727938Y-69123440D01*
X116785245Y-69282298D01*
X116871144Y-69430906D01*
X116982986Y-69563735D01*
X117118123Y-69675256D01*
X117135883Y-69687011D01*
X117192150Y-69725508D01*
X117234923Y-69758863D01*
X117255372Y-69780160D01*
X117255669Y-69780833D01*
X117251279Y-69803871D01*
X117233876Y-69856157D01*
X117205268Y-69933390D01*
X117167265Y-70031268D01*
X117121674Y-70145491D01*
X117070303Y-70271758D01*
X117014962Y-70405767D01*
X116957458Y-70543218D01*
X116899601Y-70679808D01*
X116843198Y-70811237D01*
X116790058Y-70933205D01*
X116741990Y-71041409D01*
X116700801Y-71131549D01*
X116668301Y-71199323D01*
X116646297Y-71240430D01*
X116637436Y-71251226D01*
X116610360Y-71242819D01*
X116559697Y-71220272D01*
X116494183Y-71187613D01*
X116458159Y-71168520D01*
X116305168Y-71085800D01*
X116122912Y-71209075D01*
X116029875Y-71272228D01*
X115928015Y-71341727D01*
X115832562Y-71407165D01*
X115784750Y-71440117D01*
X115717505Y-71485273D01*
X115660564Y-71521057D01*
X115621354Y-71542938D01*
X115608619Y-71547563D01*
X115590083Y-71535085D01*
X115549059Y-71500252D01*
X115489525Y-71446678D01*
X115415458Y-71377983D01*
X115330835Y-71297781D01*
X115277315Y-71246286D01*
X115183681Y-71154286D01*
X115102759Y-71071999D01*
X115037823Y-71002945D01*
X114992142Y-70950644D01*
X114968989Y-70918616D01*
X114966768Y-70912116D01*
X114977076Y-70887394D01*
X115005561Y-70837405D01*
X115049063Y-70767212D01*
X115104423Y-70681875D01*
X115168480Y-70586456D01*
X115186697Y-70559854D01*
X115253073Y-70463167D01*
X115312622Y-70376117D01*
X115362016Y-70303595D01*
X115397925Y-70250493D01*
X115417019Y-70221703D01*
X115418864Y-70218726D01*
X115416105Y-70195782D01*
X115401462Y-70145336D01*
X115377487Y-70074041D01*
X115346734Y-69988547D01*
X115311756Y-69895507D01*
X115275107Y-69801574D01*
X115239339Y-69713399D01*
X115207006Y-69637634D01*
X115180662Y-69580931D01*
X115162858Y-69549943D01*
X115161593Y-69548457D01*
X115150706Y-69539601D01*
X115132318Y-69530843D01*
X115102394Y-69521277D01*
X115056897Y-69509996D01*
X114991791Y-69496093D01*
X114903039Y-69478663D01*
X114786607Y-69456798D01*
X114638458Y-69429591D01*
X114606382Y-69423741D01*
X114511314Y-69405374D01*
X114428435Y-69387405D01*
X114365070Y-69371569D01*
X114328542Y-69359600D01*
X114323644Y-69356810D01*
X114315573Y-69332072D01*
X114309013Y-69276790D01*
X114303967Y-69197389D01*
X114300441Y-69100296D01*
X114298439Y-68991938D01*
X114297964Y-68878740D01*
X114299023Y-68767128D01*
X114301618Y-68663529D01*
X114305754Y-68574368D01*
X114311437Y-68506072D01*
X114318669Y-68465066D01*
X114323029Y-68456674D01*
X114347302Y-68448208D01*
X114402574Y-68434435D01*
X114483338Y-68416550D01*
X114584088Y-68395748D01*
X114699317Y-68373223D01*
X114762098Y-68361418D01*
X114881213Y-68339151D01*
X114987435Y-68318979D01*
X115075573Y-68301915D01*
X115140434Y-68288969D01*
X115176826Y-68281155D01*
X115182816Y-68279422D01*
X115192939Y-68259890D01*
X115214338Y-68212843D01*
X115244161Y-68145003D01*
X115279555Y-68063091D01*
X115317668Y-67973828D01*
X115355647Y-67883935D01*
X115390640Y-67800135D01*
X115419794Y-67729147D01*
X115440257Y-67677694D01*
X115449177Y-67652497D01*
X115449343Y-67651396D01*
X115439231Y-67631519D01*
X115410883Y-67585777D01*
X115367277Y-67518717D01*
X115311394Y-67434884D01*
X115246213Y-67338826D01*
X115208321Y-67283650D01*
X115139275Y-67182481D01*
X115077950Y-67090630D01*
X115027337Y-67012744D01*
X114990429Y-66953469D01*
X114970218Y-66917451D01*
X114967299Y-66909377D01*
X114979847Y-66890584D01*
X115014537Y-66850457D01*
X115066937Y-66793493D01*
X115132616Y-66724185D01*
X115207144Y-66647031D01*
X115286087Y-66566525D01*
X115365017Y-66487163D01*
X115439500Y-66413440D01*
X115505106Y-66349852D01*
X115557404Y-66300894D01*
X115591961Y-66271061D01*
X115603522Y-66263942D01*
X115622346Y-66273953D01*
X115667369Y-66302078D01*
X115734213Y-66345454D01*
X115818501Y-66401218D01*
X115915856Y-66466506D01*
X115989293Y-66516246D01*
X116360333Y-66768551D01*
X116978905Y-66513555D01*
X117062725Y-66068931D01*
X117146546Y-65624307D01*
X118071994Y-65624307D01*
X118155814Y-66068931D01*
D12*
%TO.C,U2*%
X129260021Y-65532000D02*
G75*
G03*
X129260021Y-65532000I-11708821J0D01*
G01*
%TD*%
M02*
