%TF.GenerationSoftware,KiCad,Pcbnew,6.0.2+dfsg-1*%
%TF.CreationDate,2023-02-03T15:07:52+01:00*%
%TF.ProjectId,CoaxBalun,436f6178-4261-46c7-956e-2e6b69636164,rev?*%
%TF.SameCoordinates,Original*%
%TF.FileFunction,Copper,L2,Bot*%
%TF.FilePolarity,Positive*%
%FSLAX46Y46*%
G04 Gerber Fmt 4.6, Leading zero omitted, Abs format (unit mm)*
G04 Created by KiCad (PCBNEW 6.0.2+dfsg-1) date 2023-02-03 15:07:52*
%MOMM*%
%LPD*%
G01*
G04 APERTURE LIST*
G04 Aperture macros list*
%AMRoundRect*
0 Rectangle with rounded corners*
0 $1 Rounding radius*
0 $2 $3 $4 $5 $6 $7 $8 $9 X,Y pos of 4 corners*
0 Add a 4 corners polygon primitive as box body*
4,1,4,$2,$3,$4,$5,$6,$7,$8,$9,$2,$3,0*
0 Add four circle primitives for the rounded corners*
1,1,$1+$1,$2,$3*
1,1,$1+$1,$4,$5*
1,1,$1+$1,$6,$7*
1,1,$1+$1,$8,$9*
0 Add four rect primitives between the rounded corners*
20,1,$1+$1,$2,$3,$4,$5,0*
20,1,$1+$1,$4,$5,$6,$7,0*
20,1,$1+$1,$6,$7,$8,$9,0*
20,1,$1+$1,$8,$9,$2,$3,0*%
G04 Aperture macros list end*
%TA.AperFunction,ComponentPad*%
%ADD10RoundRect,0.249999X-1.025001X-1.025001X1.025001X-1.025001X1.025001X1.025001X-1.025001X1.025001X0*%
%TD*%
%TA.AperFunction,ComponentPad*%
%ADD11RoundRect,0.250002X-1.699998X-1.699998X1.699998X-1.699998X1.699998X1.699998X-1.699998X1.699998X0*%
%TD*%
%TA.AperFunction,ComponentPad*%
%ADD12C,6.400000*%
%TD*%
%TA.AperFunction,ComponentPad*%
%ADD13C,3.000000*%
%TD*%
%TA.AperFunction,SMDPad,CuDef*%
%ADD14R,5.000000X22.500000*%
%TD*%
%TA.AperFunction,Conductor*%
%ADD15C,1.300000*%
%TD*%
%TA.AperFunction,Conductor*%
%ADD16C,1.000000*%
%TD*%
%TA.AperFunction,Conductor*%
%ADD17C,2.000000*%
%TD*%
G04 APERTURE END LIST*
D10*
%TO.P,U2,1,a*%
%TO.N,N/C*%
X119837200Y-79121000D03*
%TO.P,U2,2,b*%
X123266200Y-77851000D03*
%TO.P,U2,3,a'*%
X111963200Y-77978000D03*
%TO.P,U2,4,b'*%
X115265200Y-79121000D03*
%TD*%
D11*
%TO.P,J5,1,Pin_1*%
%TO.N,N/C*%
X108204000Y-48260000D03*
%TD*%
%TO.P,J3,1,Pin_1*%
%TO.N,N/C*%
X127000000Y-48260000D03*
%TD*%
D12*
%TO.P,,1,1*%
%TO.N,N/C*%
X121920000Y-90170000D03*
%TD*%
%TO.P,H2,1,1*%
%TO.N,N/C*%
X103124000Y-52324000D03*
%TD*%
D13*
%TO.P,,1,a*%
%TO.N,N/C*%
X117856000Y-84074000D03*
%TD*%
D12*
%TO.P,H1,1,1*%
%TO.N,N/C*%
X132080000Y-52324000D03*
%TD*%
D14*
%TO.P,J4,1,Pin_1*%
%TO.N,N/C*%
X127000000Y-57150000D03*
%TD*%
%TO.P,J6,1,Pin_1*%
%TO.N,N/C*%
X108204000Y-57150000D03*
%TD*%
D15*
%TO.N,*%
X107188000Y-48260000D02*
X103124000Y-52324000D01*
X127000000Y-48260000D02*
X128016000Y-48260000D01*
X108204000Y-48260000D02*
X108204000Y-57150000D01*
X126746000Y-63246000D02*
X127508000Y-62484000D01*
D16*
X127000000Y-57150000D02*
X127000000Y-53086000D01*
D17*
X111963200Y-77978000D02*
X111963200Y-74371200D01*
D15*
X108204000Y-48260000D02*
X107188000Y-48260000D01*
X127000000Y-48260000D02*
X127000000Y-53086000D01*
D17*
X123444000Y-69850000D02*
X126746000Y-69850000D01*
X108204000Y-70612000D02*
X108204000Y-57150000D01*
X123444000Y-90678000D02*
X123444000Y-78232000D01*
X111963200Y-74371200D02*
X108204000Y-70612000D01*
X126746000Y-69850000D02*
X126746000Y-63246000D01*
D16*
X127000000Y-66929000D02*
X127000000Y-57150000D01*
D15*
X127508000Y-57150000D02*
X127254000Y-56896000D01*
X128016000Y-48260000D02*
X132080000Y-52324000D01*
X115265200Y-79121000D02*
X115265200Y-78028800D01*
X127508000Y-62484000D02*
X127508000Y-57150000D01*
D17*
X115265200Y-78028800D02*
X123444000Y-69850000D01*
%TD*%
M02*
