%TF.GenerationSoftware,KiCad,Pcbnew,6.0.2+dfsg-1*%
%TF.CreationDate,2023-02-03T15:03:29+01:00*%
%TF.ProjectId,UnUn_BNC,556e556e-5f42-44e4-932e-6b696361645f,rev?*%
%TF.SameCoordinates,Original*%
%TF.FileFunction,Copper,L2,Bot*%
%TF.FilePolarity,Positive*%
%FSLAX46Y46*%
G04 Gerber Fmt 4.6, Leading zero omitted, Abs format (unit mm)*
G04 Created by KiCad (PCBNEW 6.0.2+dfsg-1) date 2023-02-03 15:03:29*
%MOMM*%
%LPD*%
G01*
G04 APERTURE LIST*
G04 Aperture macros list*
%AMRoundRect*
0 Rectangle with rounded corners*
0 $1 Rounding radius*
0 $2 $3 $4 $5 $6 $7 $8 $9 X,Y pos of 4 corners*
0 Add a 4 corners polygon primitive as box body*
4,1,4,$2,$3,$4,$5,$6,$7,$8,$9,$2,$3,0*
0 Add four circle primitives for the rounded corners*
1,1,$1+$1,$2,$3*
1,1,$1+$1,$4,$5*
1,1,$1+$1,$6,$7*
1,1,$1+$1,$8,$9*
0 Add four rect primitives between the rounded corners*
20,1,$1+$1,$2,$3,$4,$5,0*
20,1,$1+$1,$4,$5,$6,$7,0*
20,1,$1+$1,$6,$7,$8,$9,0*
20,1,$1+$1,$8,$9,$2,$3,0*%
G04 Aperture macros list end*
%TA.AperFunction,ComponentPad*%
%ADD10RoundRect,0.249999X-1.025001X-1.025001X1.025001X-1.025001X1.025001X1.025001X-1.025001X1.025001X0*%
%TD*%
%TA.AperFunction,ComponentPad*%
%ADD11RoundRect,0.250002X-1.699998X-1.699998X1.699998X-1.699998X1.699998X1.699998X-1.699998X1.699998X0*%
%TD*%
%TA.AperFunction,ComponentPad*%
%ADD12O,1.600000X2.500000*%
%TD*%
%TA.AperFunction,ComponentPad*%
%ADD13O,3.500000X7.000000*%
%TD*%
%TA.AperFunction,ComponentPad*%
%ADD14C,6.400000*%
%TD*%
%TA.AperFunction,ComponentPad*%
%ADD15RoundRect,0.500000X-0.500000X-0.500000X0.500000X-0.500000X0.500000X0.500000X-0.500000X0.500000X0*%
%TD*%
%TA.AperFunction,SMDPad,CuDef*%
%ADD16R,5.000000X22.500000*%
%TD*%
%TA.AperFunction,Conductor*%
%ADD17C,1.300000*%
%TD*%
%TA.AperFunction,Conductor*%
%ADD18C,2.000000*%
%TD*%
%TA.AperFunction,Conductor*%
%ADD19C,1.700000*%
%TD*%
%TA.AperFunction,Conductor*%
%ADD20C,1.000000*%
%TD*%
G04 APERTURE END LIST*
D10*
%TO.P,U2,1,a*%
%TO.N,GND*%
X121302000Y-78632000D03*
%TO.P,U2,4,b'*%
%TO.N,Net-(U1-Pad1)*%
X113902000Y-78732000D03*
%TO.P,U2,5,x*%
%TO.N,Net-(H1-Pad1)*%
X122123200Y-52832000D03*
%TD*%
D11*
%TO.P,J5,1,Pin_1*%
%TO.N,GND*%
X108204000Y-48260000D03*
%TD*%
D12*
%TO.P,J1,1,In*%
%TO.N,Net-(C1-Pad1)*%
X117525000Y-87375000D03*
D13*
%TO.P,J1,2,Ext*%
%TO.N,GND*%
X122605000Y-92455000D03*
D12*
X120065000Y-87375000D03*
D13*
X112445000Y-92455000D03*
%TD*%
D11*
%TO.P,J3,1,Pin_1*%
%TO.N,Net-(H1-Pad1)*%
X127000000Y-48260000D03*
%TD*%
D14*
%TO.P,H2,1,1*%
%TO.N,GND*%
X103124000Y-52324000D03*
%TD*%
D15*
%TO.P,C1,1*%
%TO.N,Net-(C1-Pad1)*%
X115135000Y-82425000D03*
X112595000Y-82425000D03*
%TO.P,C1,2*%
%TO.N,GND*%
X122755000Y-82425000D03*
%TD*%
D14*
%TO.P,H1,1,1*%
%TO.N,Net-(H1-Pad1)*%
X132080000Y-52324000D03*
%TD*%
D16*
%TO.P,J4,1,Pin_1*%
%TO.N,Net-(H1-Pad1)*%
X127000000Y-57150000D03*
%TD*%
%TO.P,J6,1,Pin_1*%
%TO.N,GND*%
X108204000Y-57150000D03*
%TD*%
D17*
%TO.N,Net-(C1-Pad1)*%
X113800000Y-82425000D02*
X112595000Y-82425000D01*
X117075000Y-82425000D02*
X115135000Y-82425000D01*
X113800000Y-79175000D02*
X113975000Y-79000000D01*
X113800000Y-82425000D02*
X113800000Y-79175000D01*
X117525000Y-82875000D02*
X117075000Y-82425000D01*
X115135000Y-82425000D02*
X113800000Y-82425000D01*
X117525000Y-87375000D02*
X117525000Y-82875000D01*
%TO.N,GND*%
X107188000Y-48260000D02*
X103124000Y-52324000D01*
D18*
X121302000Y-78632000D02*
X121302000Y-76102000D01*
D17*
X108204000Y-48260000D02*
X108204000Y-57150000D01*
D18*
X121302000Y-76102000D02*
X119125000Y-73925000D01*
D17*
X108204000Y-48260000D02*
X107188000Y-48260000D01*
X108204000Y-57150000D02*
X108204000Y-66929000D01*
D18*
X121302000Y-78632000D02*
X121302000Y-80972000D01*
X112350000Y-73925000D02*
X108375000Y-69950000D01*
D17*
X121275000Y-79050000D02*
X121675000Y-79050000D01*
D18*
X121302000Y-80972000D02*
X122755000Y-82425000D01*
D19*
X122755000Y-84685000D02*
X120065000Y-87375000D01*
D18*
X108375000Y-69950000D02*
X108375000Y-60225000D01*
X122755000Y-82425000D02*
X122755000Y-84685000D01*
D17*
X121000000Y-78775000D02*
X121275000Y-79050000D01*
X108375000Y-60225000D02*
X108650000Y-59950000D01*
D18*
X119125000Y-73925000D02*
X112350000Y-73925000D01*
D17*
%TO.N,Net-(H1-Pad1)*%
X127000000Y-48260000D02*
X128016000Y-48260000D01*
D18*
X127000000Y-53086000D02*
X122377200Y-53086000D01*
D20*
X127000000Y-57150000D02*
X127000000Y-53086000D01*
X122377200Y-53086000D02*
X122123200Y-52832000D01*
D17*
X127000000Y-48260000D02*
X127000000Y-53086000D01*
D20*
X127000000Y-66929000D02*
X127000000Y-57150000D01*
D17*
X128016000Y-48260000D02*
X132080000Y-52324000D01*
X125526800Y-55676800D02*
X127000000Y-57150000D01*
%TO.N,Net-(U1-Pad1)*%
X114018000Y-78668000D02*
X113925000Y-78575000D01*
%TD*%
%TA.AperFunction,Conductor*%
%TO.N,GND*%
G36*
X116016621Y-84657002D02*
G01*
X116063114Y-84710658D01*
X116074500Y-84763000D01*
X116074500Y-86219445D01*
X116064909Y-86267663D01*
X115998127Y-86428889D01*
X115939317Y-86673852D01*
X115924500Y-86862118D01*
X115924500Y-87887882D01*
X115939317Y-88076148D01*
X115998127Y-88321111D01*
X116094534Y-88553859D01*
X116226164Y-88768659D01*
X116229376Y-88772419D01*
X116229379Y-88772424D01*
X116374256Y-88942052D01*
X116389776Y-88960224D01*
X116393538Y-88963437D01*
X116577576Y-89120621D01*
X116577581Y-89120624D01*
X116581341Y-89123836D01*
X116796141Y-89255466D01*
X116800711Y-89257359D01*
X116800715Y-89257361D01*
X117024316Y-89349979D01*
X117028889Y-89351873D01*
X117113289Y-89372135D01*
X117269039Y-89409528D01*
X117269045Y-89409529D01*
X117273852Y-89410683D01*
X117525000Y-89430449D01*
X117776148Y-89410683D01*
X117780955Y-89409529D01*
X117780961Y-89409528D01*
X117936711Y-89372135D01*
X118021111Y-89351873D01*
X118025684Y-89349979D01*
X118249285Y-89257361D01*
X118249289Y-89257359D01*
X118253859Y-89255466D01*
X118468659Y-89123836D01*
X118472419Y-89120624D01*
X118472424Y-89120621D01*
X118656462Y-88963437D01*
X118660224Y-88960224D01*
X118675744Y-88942052D01*
X118820621Y-88772424D01*
X118820624Y-88772419D01*
X118823836Y-88768659D01*
X118955466Y-88553859D01*
X119051873Y-88321111D01*
X119110683Y-88076148D01*
X119125500Y-87887882D01*
X119125500Y-86862118D01*
X119110683Y-86673852D01*
X119051873Y-86428889D01*
X118985091Y-86267663D01*
X118975500Y-86219445D01*
X118975500Y-84763000D01*
X118995502Y-84694879D01*
X119049158Y-84648386D01*
X119101500Y-84637000D01*
X124935231Y-84637000D01*
X125003352Y-84657002D01*
X125049845Y-84710658D01*
X125061231Y-84763000D01*
X125061231Y-98774283D01*
X125057112Y-98806235D01*
X125042016Y-98863819D01*
X125033451Y-98886961D01*
X125006035Y-98943341D01*
X124992049Y-98972102D01*
X124944270Y-99024616D01*
X124878736Y-99043000D01*
X110329737Y-99043000D01*
X110261616Y-99022998D01*
X110215123Y-98969342D01*
X110205856Y-98929221D01*
X110204798Y-98929367D01*
X110201192Y-98903275D01*
X110200006Y-98886013D01*
X110200905Y-89409528D01*
X110201346Y-84762988D01*
X110221355Y-84694869D01*
X110275015Y-84648381D01*
X110327346Y-84637000D01*
X115948500Y-84637000D01*
X116016621Y-84657002D01*
G37*
%TD.AperFunction*%
%TD*%
M02*
