%TF.GenerationSoftware,KiCad,Pcbnew,6.0.2+dfsg-1*%
%TF.CreationDate,2023-02-03T15:03:30+01:00*%
%TF.ProjectId,UnUn_BNC,556e556e-5f42-44e4-932e-6b696361645f,rev?*%
%TF.SameCoordinates,Original*%
%TF.FileFunction,Legend,Top*%
%TF.FilePolarity,Positive*%
%FSLAX46Y46*%
G04 Gerber Fmt 4.6, Leading zero omitted, Abs format (unit mm)*
G04 Created by KiCad (PCBNEW 6.0.2+dfsg-1) date 2023-02-03 15:03:30*
%MOMM*%
%LPD*%
G01*
G04 APERTURE LIST*
%ADD10C,0.250000*%
%ADD11C,0.300000*%
%ADD12C,0.150000*%
%ADD13C,0.010000*%
%ADD14C,0.120000*%
G04 APERTURE END LIST*
D10*
X129610714Y-48050000D02*
X130325000Y-48050000D01*
X129467857Y-48478571D02*
X129967857Y-46978571D01*
X130467857Y-48478571D01*
X130967857Y-47478571D02*
X130967857Y-48478571D01*
X130967857Y-47621428D02*
X131039285Y-47550000D01*
X131182142Y-47478571D01*
X131396428Y-47478571D01*
X131539285Y-47550000D01*
X131610714Y-47692857D01*
X131610714Y-48478571D01*
X132110714Y-47478571D02*
X132682142Y-47478571D01*
X132325000Y-46978571D02*
X132325000Y-48264285D01*
X132396428Y-48407142D01*
X132539285Y-48478571D01*
X132682142Y-48478571D01*
D11*
X115157571Y-56645071D02*
X115157571Y-57859357D01*
X115229000Y-58002214D01*
X115300428Y-58073642D01*
X115443285Y-58145071D01*
X115729000Y-58145071D01*
X115871857Y-58073642D01*
X115943285Y-58002214D01*
X116014714Y-57859357D01*
X116014714Y-56645071D01*
X116729000Y-57145071D02*
X116729000Y-58145071D01*
X116729000Y-57287928D02*
X116800428Y-57216500D01*
X116943285Y-57145071D01*
X117157571Y-57145071D01*
X117300428Y-57216500D01*
X117371857Y-57359357D01*
X117371857Y-58145071D01*
X118086142Y-56645071D02*
X118086142Y-57859357D01*
X118157571Y-58002214D01*
X118229000Y-58073642D01*
X118371857Y-58145071D01*
X118657571Y-58145071D01*
X118800428Y-58073642D01*
X118871857Y-58002214D01*
X118943285Y-57859357D01*
X118943285Y-56645071D01*
X119657571Y-57145071D02*
X119657571Y-58145071D01*
X119657571Y-57287928D02*
X119729000Y-57216500D01*
X119871857Y-57145071D01*
X120086142Y-57145071D01*
X120229000Y-57216500D01*
X120300428Y-57359357D01*
X120300428Y-58145071D01*
X115157571Y-59202928D02*
X115229000Y-59131500D01*
X115371857Y-59060071D01*
X115729000Y-59060071D01*
X115871857Y-59131500D01*
X115943285Y-59202928D01*
X116014714Y-59345785D01*
X116014714Y-59488642D01*
X115943285Y-59702928D01*
X115086142Y-60560071D01*
X116014714Y-60560071D01*
X116943285Y-59060071D02*
X117086142Y-59060071D01*
X117229000Y-59131500D01*
X117300428Y-59202928D01*
X117371857Y-59345785D01*
X117443285Y-59631500D01*
X117443285Y-59988642D01*
X117371857Y-60274357D01*
X117300428Y-60417214D01*
X117229000Y-60488642D01*
X117086142Y-60560071D01*
X116943285Y-60560071D01*
X116800428Y-60488642D01*
X116729000Y-60417214D01*
X116657571Y-60274357D01*
X116586142Y-59988642D01*
X116586142Y-59631500D01*
X116657571Y-59345785D01*
X116729000Y-59202928D01*
X116800428Y-59131500D01*
X116943285Y-59060071D01*
X118014714Y-59202928D02*
X118086142Y-59131500D01*
X118229000Y-59060071D01*
X118586142Y-59060071D01*
X118729000Y-59131500D01*
X118800428Y-59202928D01*
X118871857Y-59345785D01*
X118871857Y-59488642D01*
X118800428Y-59702928D01*
X117943285Y-60560071D01*
X118871857Y-60560071D01*
X119371857Y-59060071D02*
X120300428Y-59060071D01*
X119800428Y-59631500D01*
X120014714Y-59631500D01*
X120157571Y-59702928D01*
X120229000Y-59774357D01*
X120300428Y-59917214D01*
X120300428Y-60274357D01*
X120229000Y-60417214D01*
X120157571Y-60488642D01*
X120014714Y-60560071D01*
X119586142Y-60560071D01*
X119443285Y-60488642D01*
X119371857Y-60417214D01*
X113442857Y-74078571D02*
X113442857Y-72578571D01*
X113800000Y-72578571D01*
X114014285Y-72650000D01*
X114157142Y-72792857D01*
X114228571Y-72935714D01*
X114300000Y-73221428D01*
X114300000Y-73435714D01*
X114228571Y-73721428D01*
X114157142Y-73864285D01*
X114014285Y-74007142D01*
X113800000Y-74078571D01*
X113442857Y-74078571D01*
X115728571Y-72650000D02*
X115585714Y-72578571D01*
X115371428Y-72578571D01*
X115157142Y-72650000D01*
X115014285Y-72792857D01*
X114942857Y-72935714D01*
X114871428Y-73221428D01*
X114871428Y-73435714D01*
X114942857Y-73721428D01*
X115014285Y-73864285D01*
X115157142Y-74007142D01*
X115371428Y-74078571D01*
X115514285Y-74078571D01*
X115728571Y-74007142D01*
X115800000Y-73935714D01*
X115800000Y-73435714D01*
X115514285Y-73435714D01*
X117228571Y-74078571D02*
X116371428Y-74078571D01*
X116800000Y-74078571D02*
X116800000Y-72578571D01*
X116657142Y-72792857D01*
X116514285Y-72935714D01*
X116371428Y-73007142D01*
X118300000Y-72578571D02*
X118300000Y-73650000D01*
X118228571Y-73864285D01*
X118085714Y-74007142D01*
X117871428Y-74078571D01*
X117728571Y-74078571D01*
X118942857Y-73650000D02*
X119657142Y-73650000D01*
X118800000Y-74078571D02*
X119300000Y-72578571D01*
X119800000Y-74078571D01*
X120300000Y-74078571D02*
X120300000Y-72578571D01*
X121157142Y-74078571D01*
X121157142Y-72578571D01*
D10*
X102757142Y-47175000D02*
X102614285Y-47103571D01*
X102400000Y-47103571D01*
X102185714Y-47175000D01*
X102042857Y-47317857D01*
X101971428Y-47460714D01*
X101900000Y-47746428D01*
X101900000Y-47960714D01*
X101971428Y-48246428D01*
X102042857Y-48389285D01*
X102185714Y-48532142D01*
X102400000Y-48603571D01*
X102542857Y-48603571D01*
X102757142Y-48532142D01*
X102828571Y-48460714D01*
X102828571Y-47960714D01*
X102542857Y-47960714D01*
X103471428Y-48603571D02*
X103471428Y-47103571D01*
X104328571Y-48603571D01*
X104328571Y-47103571D01*
X105042857Y-48603571D02*
X105042857Y-47103571D01*
X105400000Y-47103571D01*
X105614285Y-47175000D01*
X105757142Y-47317857D01*
X105828571Y-47460714D01*
X105900000Y-47746428D01*
X105900000Y-47960714D01*
X105828571Y-48246428D01*
X105757142Y-48389285D01*
X105614285Y-48532142D01*
X105400000Y-48603571D01*
X105042857Y-48603571D01*
D12*
%TO.C,U2*%
X123867895Y-55062380D02*
X124391704Y-54395714D01*
X123867895Y-54395714D02*
X124391704Y-55062380D01*
X120211523Y-75317714D02*
X120211523Y-76127238D01*
X120163904Y-76222476D01*
X120116285Y-76270095D01*
X120021047Y-76317714D01*
X119878190Y-76317714D01*
X119782952Y-76270095D01*
X120211523Y-75936761D02*
X120116285Y-75984380D01*
X119925809Y-75984380D01*
X119830571Y-75936761D01*
X119782952Y-75889142D01*
X119735333Y-75793904D01*
X119735333Y-75508190D01*
X119782952Y-75412952D01*
X119830571Y-75365333D01*
X119925809Y-75317714D01*
X120116285Y-75317714D01*
X120211523Y-75365333D01*
X120687714Y-75317714D02*
X120687714Y-75984380D01*
X120687714Y-75412952D02*
X120735333Y-75365333D01*
X120830571Y-75317714D01*
X120973428Y-75317714D01*
X121068666Y-75365333D01*
X121116285Y-75460571D01*
X121116285Y-75984380D01*
X122021047Y-75984380D02*
X122021047Y-74984380D01*
X122021047Y-75936761D02*
X121925809Y-75984380D01*
X121735333Y-75984380D01*
X121640095Y-75936761D01*
X121592476Y-75889142D01*
X121544857Y-75793904D01*
X121544857Y-75508190D01*
X121592476Y-75412952D01*
X121640095Y-75365333D01*
X121735333Y-75317714D01*
X121925809Y-75317714D01*
X122021047Y-75365333D01*
X113549619Y-75984380D02*
X113549619Y-75317714D01*
X113549619Y-74984380D02*
X113502000Y-75032000D01*
X113549619Y-75079619D01*
X113597238Y-75032000D01*
X113549619Y-74984380D01*
X113549619Y-75079619D01*
X114025809Y-75317714D02*
X114025809Y-75984380D01*
X114025809Y-75412952D02*
X114073428Y-75365333D01*
X114168666Y-75317714D01*
X114311523Y-75317714D01*
X114406761Y-75365333D01*
X114454380Y-75460571D01*
X114454380Y-75984380D01*
%TO.C,C1*%
X119032333Y-82832942D02*
X118984714Y-82880561D01*
X118841857Y-82928180D01*
X118746619Y-82928180D01*
X118603761Y-82880561D01*
X118508523Y-82785323D01*
X118460904Y-82690085D01*
X118413285Y-82499609D01*
X118413285Y-82356752D01*
X118460904Y-82166276D01*
X118508523Y-82071038D01*
X118603761Y-81975800D01*
X118746619Y-81928180D01*
X118841857Y-81928180D01*
X118984714Y-81975800D01*
X119032333Y-82023419D01*
X119984714Y-82928180D02*
X119413285Y-82928180D01*
X119699000Y-82928180D02*
X119699000Y-81928180D01*
X119603761Y-82071038D01*
X119508523Y-82166276D01*
X119413285Y-82213895D01*
D13*
%TO.C,REF\u002A\u002A*%
X117955814Y-66168931D02*
X118039635Y-66613555D01*
X118039635Y-66613555D02*
X118348920Y-66741053D01*
X118348920Y-66741053D02*
X118658206Y-66868551D01*
X118658206Y-66868551D02*
X119029246Y-66616246D01*
X119029246Y-66616246D02*
X119133157Y-66545996D01*
X119133157Y-66545996D02*
X119227087Y-66483272D01*
X119227087Y-66483272D02*
X119306652Y-66430938D01*
X119306652Y-66430938D02*
X119367470Y-66391857D01*
X119367470Y-66391857D02*
X119405157Y-66368893D01*
X119405157Y-66368893D02*
X119415421Y-66363942D01*
X119415421Y-66363942D02*
X119433910Y-66376676D01*
X119433910Y-66376676D02*
X119473420Y-66411882D01*
X119473420Y-66411882D02*
X119529522Y-66465062D01*
X119529522Y-66465062D02*
X119597787Y-66531718D01*
X119597787Y-66531718D02*
X119673786Y-66607354D01*
X119673786Y-66607354D02*
X119753092Y-66687472D01*
X119753092Y-66687472D02*
X119831275Y-66767574D01*
X119831275Y-66767574D02*
X119903907Y-66843164D01*
X119903907Y-66843164D02*
X119966559Y-66909745D01*
X119966559Y-66909745D02*
X120014803Y-66962818D01*
X120014803Y-66962818D02*
X120044210Y-66997887D01*
X120044210Y-66997887D02*
X120051241Y-67009623D01*
X120051241Y-67009623D02*
X120041123Y-67031260D01*
X120041123Y-67031260D02*
X120012759Y-67078662D01*
X120012759Y-67078662D02*
X119969129Y-67147193D01*
X119969129Y-67147193D02*
X119913218Y-67232215D01*
X119913218Y-67232215D02*
X119848006Y-67329093D01*
X119848006Y-67329093D02*
X119810219Y-67384350D01*
X119810219Y-67384350D02*
X119741343Y-67485248D01*
X119741343Y-67485248D02*
X119680140Y-67576299D01*
X119680140Y-67576299D02*
X119629578Y-67652970D01*
X119629578Y-67652970D02*
X119592628Y-67710728D01*
X119592628Y-67710728D02*
X119572258Y-67745043D01*
X119572258Y-67745043D02*
X119569197Y-67752254D01*
X119569197Y-67752254D02*
X119576136Y-67772748D01*
X119576136Y-67772748D02*
X119595051Y-67820513D01*
X119595051Y-67820513D02*
X119623087Y-67888832D01*
X119623087Y-67888832D02*
X119657391Y-67970989D01*
X119657391Y-67970989D02*
X119695109Y-68060270D01*
X119695109Y-68060270D02*
X119733387Y-68149958D01*
X119733387Y-68149958D02*
X119769370Y-68233338D01*
X119769370Y-68233338D02*
X119800206Y-68303694D01*
X119800206Y-68303694D02*
X119823039Y-68354310D01*
X119823039Y-68354310D02*
X119835017Y-68378471D01*
X119835017Y-68378471D02*
X119835724Y-68379422D01*
X119835724Y-68379422D02*
X119854531Y-68384036D01*
X119854531Y-68384036D02*
X119904618Y-68394328D01*
X119904618Y-68394328D02*
X119980793Y-68409287D01*
X119980793Y-68409287D02*
X120077865Y-68427901D01*
X120077865Y-68427901D02*
X120190643Y-68449159D01*
X120190643Y-68449159D02*
X120256442Y-68461418D01*
X120256442Y-68461418D02*
X120376950Y-68484362D01*
X120376950Y-68484362D02*
X120485797Y-68506195D01*
X120485797Y-68506195D02*
X120577476Y-68525722D01*
X120577476Y-68525722D02*
X120646481Y-68541748D01*
X120646481Y-68541748D02*
X120687304Y-68553079D01*
X120687304Y-68553079D02*
X120695511Y-68556674D01*
X120695511Y-68556674D02*
X120703548Y-68581006D01*
X120703548Y-68581006D02*
X120710033Y-68635959D01*
X120710033Y-68635959D02*
X120714970Y-68715108D01*
X120714970Y-68715108D02*
X120718364Y-68812026D01*
X120718364Y-68812026D02*
X120720218Y-68920287D01*
X120720218Y-68920287D02*
X120720538Y-69033465D01*
X120720538Y-69033465D02*
X120719327Y-69145135D01*
X120719327Y-69145135D02*
X120716590Y-69248868D01*
X120716590Y-69248868D02*
X120712331Y-69338241D01*
X120712331Y-69338241D02*
X120706555Y-69406826D01*
X120706555Y-69406826D02*
X120699267Y-69448197D01*
X120699267Y-69448197D02*
X120694895Y-69456810D01*
X120694895Y-69456810D02*
X120668764Y-69467133D01*
X120668764Y-69467133D02*
X120613393Y-69481892D01*
X120613393Y-69481892D02*
X120536107Y-69499352D01*
X120536107Y-69499352D02*
X120444230Y-69517780D01*
X120444230Y-69517780D02*
X120412158Y-69523741D01*
X120412158Y-69523741D02*
X120257524Y-69552066D01*
X120257524Y-69552066D02*
X120135375Y-69574876D01*
X120135375Y-69574876D02*
X120041673Y-69593080D01*
X120041673Y-69593080D02*
X119972384Y-69607583D01*
X119972384Y-69607583D02*
X119923471Y-69619292D01*
X119923471Y-69619292D02*
X119890897Y-69629115D01*
X119890897Y-69629115D02*
X119870628Y-69637956D01*
X119870628Y-69637956D02*
X119858626Y-69646724D01*
X119858626Y-69646724D02*
X119856947Y-69648457D01*
X119856947Y-69648457D02*
X119840184Y-69676371D01*
X119840184Y-69676371D02*
X119814614Y-69730695D01*
X119814614Y-69730695D02*
X119782788Y-69804777D01*
X119782788Y-69804777D02*
X119747260Y-69891965D01*
X119747260Y-69891965D02*
X119710583Y-69985608D01*
X119710583Y-69985608D02*
X119675311Y-70079052D01*
X119675311Y-70079052D02*
X119643996Y-70165647D01*
X119643996Y-70165647D02*
X119619193Y-70238740D01*
X119619193Y-70238740D02*
X119603454Y-70291678D01*
X119603454Y-70291678D02*
X119599332Y-70317811D01*
X119599332Y-70317811D02*
X119599676Y-70318726D01*
X119599676Y-70318726D02*
X119613641Y-70340086D01*
X119613641Y-70340086D02*
X119645322Y-70387084D01*
X119645322Y-70387084D02*
X119691391Y-70454827D01*
X119691391Y-70454827D02*
X119748518Y-70538423D01*
X119748518Y-70538423D02*
X119813373Y-70632982D01*
X119813373Y-70632982D02*
X119831843Y-70659854D01*
X119831843Y-70659854D02*
X119897699Y-70757275D01*
X119897699Y-70757275D02*
X119955650Y-70846163D01*
X119955650Y-70846163D02*
X120002538Y-70921412D01*
X120002538Y-70921412D02*
X120035207Y-70977920D01*
X120035207Y-70977920D02*
X120050500Y-71010581D01*
X120050500Y-71010581D02*
X120051241Y-71014593D01*
X120051241Y-71014593D02*
X120038392Y-71035684D01*
X120038392Y-71035684D02*
X120002888Y-71077464D01*
X120002888Y-71077464D02*
X119949293Y-71135445D01*
X119949293Y-71135445D02*
X119882171Y-71205135D01*
X119882171Y-71205135D02*
X119806087Y-71282045D01*
X119806087Y-71282045D02*
X119725604Y-71361683D01*
X119725604Y-71361683D02*
X119645287Y-71439561D01*
X119645287Y-71439561D02*
X119569699Y-71511186D01*
X119569699Y-71511186D02*
X119503405Y-71572070D01*
X119503405Y-71572070D02*
X119450969Y-71617721D01*
X119450969Y-71617721D02*
X119416955Y-71643650D01*
X119416955Y-71643650D02*
X119407545Y-71647883D01*
X119407545Y-71647883D02*
X119385643Y-71637912D01*
X119385643Y-71637912D02*
X119340800Y-71611020D01*
X119340800Y-71611020D02*
X119280321Y-71571736D01*
X119280321Y-71571736D02*
X119233789Y-71540117D01*
X119233789Y-71540117D02*
X119149475Y-71482098D01*
X119149475Y-71482098D02*
X119049626Y-71413784D01*
X119049626Y-71413784D02*
X118949473Y-71345579D01*
X118949473Y-71345579D02*
X118895627Y-71309075D01*
X118895627Y-71309075D02*
X118713371Y-71185800D01*
X118713371Y-71185800D02*
X118560381Y-71268520D01*
X118560381Y-71268520D02*
X118490682Y-71304759D01*
X118490682Y-71304759D02*
X118431414Y-71332926D01*
X118431414Y-71332926D02*
X118391311Y-71348991D01*
X118391311Y-71348991D02*
X118381103Y-71351226D01*
X118381103Y-71351226D02*
X118368829Y-71334722D01*
X118368829Y-71334722D02*
X118344613Y-71288082D01*
X118344613Y-71288082D02*
X118310263Y-71215609D01*
X118310263Y-71215609D02*
X118267588Y-71121606D01*
X118267588Y-71121606D02*
X118218394Y-71010374D01*
X118218394Y-71010374D02*
X118164490Y-70886215D01*
X118164490Y-70886215D02*
X118107684Y-70753432D01*
X118107684Y-70753432D02*
X118049782Y-70616327D01*
X118049782Y-70616327D02*
X117992593Y-70479202D01*
X117992593Y-70479202D02*
X117937924Y-70346358D01*
X117937924Y-70346358D02*
X117887584Y-70222098D01*
X117887584Y-70222098D02*
X117843380Y-70110725D01*
X117843380Y-70110725D02*
X117807119Y-70016539D01*
X117807119Y-70016539D02*
X117780609Y-69943844D01*
X117780609Y-69943844D02*
X117765658Y-69896941D01*
X117765658Y-69896941D02*
X117763254Y-69880833D01*
X117763254Y-69880833D02*
X117782311Y-69860286D01*
X117782311Y-69860286D02*
X117824036Y-69826933D01*
X117824036Y-69826933D02*
X117879706Y-69787702D01*
X117879706Y-69787702D02*
X117884378Y-69784599D01*
X117884378Y-69784599D02*
X118028264Y-69669423D01*
X118028264Y-69669423D02*
X118144283Y-69535053D01*
X118144283Y-69535053D02*
X118231430Y-69385784D01*
X118231430Y-69385784D02*
X118288699Y-69225913D01*
X118288699Y-69225913D02*
X118315086Y-69059737D01*
X118315086Y-69059737D02*
X118309585Y-68891552D01*
X118309585Y-68891552D02*
X118271190Y-68725655D01*
X118271190Y-68725655D02*
X118198895Y-68566342D01*
X118198895Y-68566342D02*
X118177626Y-68531487D01*
X118177626Y-68531487D02*
X118066996Y-68390737D01*
X118066996Y-68390737D02*
X117936302Y-68277714D01*
X117936302Y-68277714D02*
X117790064Y-68193003D01*
X117790064Y-68193003D02*
X117632808Y-68137194D01*
X117632808Y-68137194D02*
X117469057Y-68110874D01*
X117469057Y-68110874D02*
X117303333Y-68114630D01*
X117303333Y-68114630D02*
X117140162Y-68149050D01*
X117140162Y-68149050D02*
X116984065Y-68214723D01*
X116984065Y-68214723D02*
X116839567Y-68312235D01*
X116839567Y-68312235D02*
X116794869Y-68351813D01*
X116794869Y-68351813D02*
X116681112Y-68475703D01*
X116681112Y-68475703D02*
X116598218Y-68606124D01*
X116598218Y-68606124D02*
X116541356Y-68752315D01*
X116541356Y-68752315D02*
X116509687Y-68897088D01*
X116509687Y-68897088D02*
X116501869Y-69059860D01*
X116501869Y-69059860D02*
X116527938Y-69223440D01*
X116527938Y-69223440D02*
X116585245Y-69382298D01*
X116585245Y-69382298D02*
X116671144Y-69530906D01*
X116671144Y-69530906D02*
X116782986Y-69663735D01*
X116782986Y-69663735D02*
X116918123Y-69775256D01*
X116918123Y-69775256D02*
X116935883Y-69787011D01*
X116935883Y-69787011D02*
X116992150Y-69825508D01*
X116992150Y-69825508D02*
X117034923Y-69858863D01*
X117034923Y-69858863D02*
X117055372Y-69880160D01*
X117055372Y-69880160D02*
X117055669Y-69880833D01*
X117055669Y-69880833D02*
X117051279Y-69903871D01*
X117051279Y-69903871D02*
X117033876Y-69956157D01*
X117033876Y-69956157D02*
X117005268Y-70033390D01*
X117005268Y-70033390D02*
X116967265Y-70131268D01*
X116967265Y-70131268D02*
X116921674Y-70245491D01*
X116921674Y-70245491D02*
X116870303Y-70371758D01*
X116870303Y-70371758D02*
X116814962Y-70505767D01*
X116814962Y-70505767D02*
X116757458Y-70643218D01*
X116757458Y-70643218D02*
X116699601Y-70779808D01*
X116699601Y-70779808D02*
X116643198Y-70911237D01*
X116643198Y-70911237D02*
X116590058Y-71033205D01*
X116590058Y-71033205D02*
X116541990Y-71141409D01*
X116541990Y-71141409D02*
X116500801Y-71231549D01*
X116500801Y-71231549D02*
X116468301Y-71299323D01*
X116468301Y-71299323D02*
X116446297Y-71340430D01*
X116446297Y-71340430D02*
X116437436Y-71351226D01*
X116437436Y-71351226D02*
X116410360Y-71342819D01*
X116410360Y-71342819D02*
X116359697Y-71320272D01*
X116359697Y-71320272D02*
X116294183Y-71287613D01*
X116294183Y-71287613D02*
X116258159Y-71268520D01*
X116258159Y-71268520D02*
X116105168Y-71185800D01*
X116105168Y-71185800D02*
X115922912Y-71309075D01*
X115922912Y-71309075D02*
X115829875Y-71372228D01*
X115829875Y-71372228D02*
X115728015Y-71441727D01*
X115728015Y-71441727D02*
X115632562Y-71507165D01*
X115632562Y-71507165D02*
X115584750Y-71540117D01*
X115584750Y-71540117D02*
X115517505Y-71585273D01*
X115517505Y-71585273D02*
X115460564Y-71621057D01*
X115460564Y-71621057D02*
X115421354Y-71642938D01*
X115421354Y-71642938D02*
X115408619Y-71647563D01*
X115408619Y-71647563D02*
X115390083Y-71635085D01*
X115390083Y-71635085D02*
X115349059Y-71600252D01*
X115349059Y-71600252D02*
X115289525Y-71546678D01*
X115289525Y-71546678D02*
X115215458Y-71477983D01*
X115215458Y-71477983D02*
X115130835Y-71397781D01*
X115130835Y-71397781D02*
X115077315Y-71346286D01*
X115077315Y-71346286D02*
X114983681Y-71254286D01*
X114983681Y-71254286D02*
X114902759Y-71171999D01*
X114902759Y-71171999D02*
X114837823Y-71102945D01*
X114837823Y-71102945D02*
X114792142Y-71050644D01*
X114792142Y-71050644D02*
X114768989Y-71018616D01*
X114768989Y-71018616D02*
X114766768Y-71012116D01*
X114766768Y-71012116D02*
X114777076Y-70987394D01*
X114777076Y-70987394D02*
X114805561Y-70937405D01*
X114805561Y-70937405D02*
X114849063Y-70867212D01*
X114849063Y-70867212D02*
X114904423Y-70781875D01*
X114904423Y-70781875D02*
X114968480Y-70686456D01*
X114968480Y-70686456D02*
X114986697Y-70659854D01*
X114986697Y-70659854D02*
X115053073Y-70563167D01*
X115053073Y-70563167D02*
X115112622Y-70476117D01*
X115112622Y-70476117D02*
X115162016Y-70403595D01*
X115162016Y-70403595D02*
X115197925Y-70350493D01*
X115197925Y-70350493D02*
X115217019Y-70321703D01*
X115217019Y-70321703D02*
X115218864Y-70318726D01*
X115218864Y-70318726D02*
X115216105Y-70295782D01*
X115216105Y-70295782D02*
X115201462Y-70245336D01*
X115201462Y-70245336D02*
X115177487Y-70174041D01*
X115177487Y-70174041D02*
X115146734Y-70088547D01*
X115146734Y-70088547D02*
X115111756Y-69995507D01*
X115111756Y-69995507D02*
X115075107Y-69901574D01*
X115075107Y-69901574D02*
X115039339Y-69813399D01*
X115039339Y-69813399D02*
X115007006Y-69737634D01*
X115007006Y-69737634D02*
X114980662Y-69680931D01*
X114980662Y-69680931D02*
X114962858Y-69649943D01*
X114962858Y-69649943D02*
X114961593Y-69648457D01*
X114961593Y-69648457D02*
X114950706Y-69639601D01*
X114950706Y-69639601D02*
X114932318Y-69630843D01*
X114932318Y-69630843D02*
X114902394Y-69621277D01*
X114902394Y-69621277D02*
X114856897Y-69609996D01*
X114856897Y-69609996D02*
X114791791Y-69596093D01*
X114791791Y-69596093D02*
X114703039Y-69578663D01*
X114703039Y-69578663D02*
X114586607Y-69556798D01*
X114586607Y-69556798D02*
X114438458Y-69529591D01*
X114438458Y-69529591D02*
X114406382Y-69523741D01*
X114406382Y-69523741D02*
X114311314Y-69505374D01*
X114311314Y-69505374D02*
X114228435Y-69487405D01*
X114228435Y-69487405D02*
X114165070Y-69471569D01*
X114165070Y-69471569D02*
X114128542Y-69459600D01*
X114128542Y-69459600D02*
X114123644Y-69456810D01*
X114123644Y-69456810D02*
X114115573Y-69432072D01*
X114115573Y-69432072D02*
X114109013Y-69376790D01*
X114109013Y-69376790D02*
X114103967Y-69297389D01*
X114103967Y-69297389D02*
X114100441Y-69200296D01*
X114100441Y-69200296D02*
X114098439Y-69091938D01*
X114098439Y-69091938D02*
X114097964Y-68978740D01*
X114097964Y-68978740D02*
X114099023Y-68867128D01*
X114099023Y-68867128D02*
X114101618Y-68763529D01*
X114101618Y-68763529D02*
X114105754Y-68674368D01*
X114105754Y-68674368D02*
X114111437Y-68606072D01*
X114111437Y-68606072D02*
X114118669Y-68565066D01*
X114118669Y-68565066D02*
X114123029Y-68556674D01*
X114123029Y-68556674D02*
X114147302Y-68548208D01*
X114147302Y-68548208D02*
X114202574Y-68534435D01*
X114202574Y-68534435D02*
X114283338Y-68516550D01*
X114283338Y-68516550D02*
X114384088Y-68495748D01*
X114384088Y-68495748D02*
X114499317Y-68473223D01*
X114499317Y-68473223D02*
X114562098Y-68461418D01*
X114562098Y-68461418D02*
X114681213Y-68439151D01*
X114681213Y-68439151D02*
X114787435Y-68418979D01*
X114787435Y-68418979D02*
X114875573Y-68401915D01*
X114875573Y-68401915D02*
X114940434Y-68388969D01*
X114940434Y-68388969D02*
X114976826Y-68381155D01*
X114976826Y-68381155D02*
X114982816Y-68379422D01*
X114982816Y-68379422D02*
X114992939Y-68359890D01*
X114992939Y-68359890D02*
X115014338Y-68312843D01*
X115014338Y-68312843D02*
X115044161Y-68245003D01*
X115044161Y-68245003D02*
X115079555Y-68163091D01*
X115079555Y-68163091D02*
X115117668Y-68073828D01*
X115117668Y-68073828D02*
X115155647Y-67983935D01*
X115155647Y-67983935D02*
X115190640Y-67900135D01*
X115190640Y-67900135D02*
X115219794Y-67829147D01*
X115219794Y-67829147D02*
X115240257Y-67777694D01*
X115240257Y-67777694D02*
X115249177Y-67752497D01*
X115249177Y-67752497D02*
X115249343Y-67751396D01*
X115249343Y-67751396D02*
X115239231Y-67731519D01*
X115239231Y-67731519D02*
X115210883Y-67685777D01*
X115210883Y-67685777D02*
X115167277Y-67618717D01*
X115167277Y-67618717D02*
X115111394Y-67534884D01*
X115111394Y-67534884D02*
X115046213Y-67438826D01*
X115046213Y-67438826D02*
X115008321Y-67383650D01*
X115008321Y-67383650D02*
X114939275Y-67282481D01*
X114939275Y-67282481D02*
X114877950Y-67190630D01*
X114877950Y-67190630D02*
X114827337Y-67112744D01*
X114827337Y-67112744D02*
X114790429Y-67053469D01*
X114790429Y-67053469D02*
X114770218Y-67017451D01*
X114770218Y-67017451D02*
X114767299Y-67009377D01*
X114767299Y-67009377D02*
X114779847Y-66990584D01*
X114779847Y-66990584D02*
X114814537Y-66950457D01*
X114814537Y-66950457D02*
X114866937Y-66893493D01*
X114866937Y-66893493D02*
X114932616Y-66824185D01*
X114932616Y-66824185D02*
X115007144Y-66747031D01*
X115007144Y-66747031D02*
X115086087Y-66666525D01*
X115086087Y-66666525D02*
X115165017Y-66587163D01*
X115165017Y-66587163D02*
X115239500Y-66513440D01*
X115239500Y-66513440D02*
X115305106Y-66449852D01*
X115305106Y-66449852D02*
X115357404Y-66400894D01*
X115357404Y-66400894D02*
X115391961Y-66371061D01*
X115391961Y-66371061D02*
X115403522Y-66363942D01*
X115403522Y-66363942D02*
X115422346Y-66373953D01*
X115422346Y-66373953D02*
X115467369Y-66402078D01*
X115467369Y-66402078D02*
X115534213Y-66445454D01*
X115534213Y-66445454D02*
X115618501Y-66501218D01*
X115618501Y-66501218D02*
X115715856Y-66566506D01*
X115715856Y-66566506D02*
X115789293Y-66616246D01*
X115789293Y-66616246D02*
X116160333Y-66868551D01*
X116160333Y-66868551D02*
X116778905Y-66613555D01*
X116778905Y-66613555D02*
X116862725Y-66168931D01*
X116862725Y-66168931D02*
X116946546Y-65724307D01*
X116946546Y-65724307D02*
X117871994Y-65724307D01*
X117871994Y-65724307D02*
X117955814Y-66168931D01*
X117955814Y-66168931D02*
X117955814Y-66168931D01*
G36*
X117955814Y-66168931D02*
G01*
X118039635Y-66613555D01*
X118348920Y-66741053D01*
X118658206Y-66868551D01*
X119029246Y-66616246D01*
X119133157Y-66545996D01*
X119227087Y-66483272D01*
X119306652Y-66430938D01*
X119367470Y-66391857D01*
X119405157Y-66368893D01*
X119415421Y-66363942D01*
X119433910Y-66376676D01*
X119473420Y-66411882D01*
X119529522Y-66465062D01*
X119597787Y-66531718D01*
X119673786Y-66607354D01*
X119753092Y-66687472D01*
X119831275Y-66767574D01*
X119903907Y-66843164D01*
X119966559Y-66909745D01*
X120014803Y-66962818D01*
X120044210Y-66997887D01*
X120051241Y-67009623D01*
X120041123Y-67031260D01*
X120012759Y-67078662D01*
X119969129Y-67147193D01*
X119913218Y-67232215D01*
X119848006Y-67329093D01*
X119810219Y-67384350D01*
X119741343Y-67485248D01*
X119680140Y-67576299D01*
X119629578Y-67652970D01*
X119592628Y-67710728D01*
X119572258Y-67745043D01*
X119569197Y-67752254D01*
X119576136Y-67772748D01*
X119595051Y-67820513D01*
X119623087Y-67888832D01*
X119657391Y-67970989D01*
X119695109Y-68060270D01*
X119733387Y-68149958D01*
X119769370Y-68233338D01*
X119800206Y-68303694D01*
X119823039Y-68354310D01*
X119835017Y-68378471D01*
X119835724Y-68379422D01*
X119854531Y-68384036D01*
X119904618Y-68394328D01*
X119980793Y-68409287D01*
X120077865Y-68427901D01*
X120190643Y-68449159D01*
X120256442Y-68461418D01*
X120376950Y-68484362D01*
X120485797Y-68506195D01*
X120577476Y-68525722D01*
X120646481Y-68541748D01*
X120687304Y-68553079D01*
X120695511Y-68556674D01*
X120703548Y-68581006D01*
X120710033Y-68635959D01*
X120714970Y-68715108D01*
X120718364Y-68812026D01*
X120720218Y-68920287D01*
X120720538Y-69033465D01*
X120719327Y-69145135D01*
X120716590Y-69248868D01*
X120712331Y-69338241D01*
X120706555Y-69406826D01*
X120699267Y-69448197D01*
X120694895Y-69456810D01*
X120668764Y-69467133D01*
X120613393Y-69481892D01*
X120536107Y-69499352D01*
X120444230Y-69517780D01*
X120412158Y-69523741D01*
X120257524Y-69552066D01*
X120135375Y-69574876D01*
X120041673Y-69593080D01*
X119972384Y-69607583D01*
X119923471Y-69619292D01*
X119890897Y-69629115D01*
X119870628Y-69637956D01*
X119858626Y-69646724D01*
X119856947Y-69648457D01*
X119840184Y-69676371D01*
X119814614Y-69730695D01*
X119782788Y-69804777D01*
X119747260Y-69891965D01*
X119710583Y-69985608D01*
X119675311Y-70079052D01*
X119643996Y-70165647D01*
X119619193Y-70238740D01*
X119603454Y-70291678D01*
X119599332Y-70317811D01*
X119599676Y-70318726D01*
X119613641Y-70340086D01*
X119645322Y-70387084D01*
X119691391Y-70454827D01*
X119748518Y-70538423D01*
X119813373Y-70632982D01*
X119831843Y-70659854D01*
X119897699Y-70757275D01*
X119955650Y-70846163D01*
X120002538Y-70921412D01*
X120035207Y-70977920D01*
X120050500Y-71010581D01*
X120051241Y-71014593D01*
X120038392Y-71035684D01*
X120002888Y-71077464D01*
X119949293Y-71135445D01*
X119882171Y-71205135D01*
X119806087Y-71282045D01*
X119725604Y-71361683D01*
X119645287Y-71439561D01*
X119569699Y-71511186D01*
X119503405Y-71572070D01*
X119450969Y-71617721D01*
X119416955Y-71643650D01*
X119407545Y-71647883D01*
X119385643Y-71637912D01*
X119340800Y-71611020D01*
X119280321Y-71571736D01*
X119233789Y-71540117D01*
X119149475Y-71482098D01*
X119049626Y-71413784D01*
X118949473Y-71345579D01*
X118895627Y-71309075D01*
X118713371Y-71185800D01*
X118560381Y-71268520D01*
X118490682Y-71304759D01*
X118431414Y-71332926D01*
X118391311Y-71348991D01*
X118381103Y-71351226D01*
X118368829Y-71334722D01*
X118344613Y-71288082D01*
X118310263Y-71215609D01*
X118267588Y-71121606D01*
X118218394Y-71010374D01*
X118164490Y-70886215D01*
X118107684Y-70753432D01*
X118049782Y-70616327D01*
X117992593Y-70479202D01*
X117937924Y-70346358D01*
X117887584Y-70222098D01*
X117843380Y-70110725D01*
X117807119Y-70016539D01*
X117780609Y-69943844D01*
X117765658Y-69896941D01*
X117763254Y-69880833D01*
X117782311Y-69860286D01*
X117824036Y-69826933D01*
X117879706Y-69787702D01*
X117884378Y-69784599D01*
X118028264Y-69669423D01*
X118144283Y-69535053D01*
X118231430Y-69385784D01*
X118288699Y-69225913D01*
X118315086Y-69059737D01*
X118309585Y-68891552D01*
X118271190Y-68725655D01*
X118198895Y-68566342D01*
X118177626Y-68531487D01*
X118066996Y-68390737D01*
X117936302Y-68277714D01*
X117790064Y-68193003D01*
X117632808Y-68137194D01*
X117469057Y-68110874D01*
X117303333Y-68114630D01*
X117140162Y-68149050D01*
X116984065Y-68214723D01*
X116839567Y-68312235D01*
X116794869Y-68351813D01*
X116681112Y-68475703D01*
X116598218Y-68606124D01*
X116541356Y-68752315D01*
X116509687Y-68897088D01*
X116501869Y-69059860D01*
X116527938Y-69223440D01*
X116585245Y-69382298D01*
X116671144Y-69530906D01*
X116782986Y-69663735D01*
X116918123Y-69775256D01*
X116935883Y-69787011D01*
X116992150Y-69825508D01*
X117034923Y-69858863D01*
X117055372Y-69880160D01*
X117055669Y-69880833D01*
X117051279Y-69903871D01*
X117033876Y-69956157D01*
X117005268Y-70033390D01*
X116967265Y-70131268D01*
X116921674Y-70245491D01*
X116870303Y-70371758D01*
X116814962Y-70505767D01*
X116757458Y-70643218D01*
X116699601Y-70779808D01*
X116643198Y-70911237D01*
X116590058Y-71033205D01*
X116541990Y-71141409D01*
X116500801Y-71231549D01*
X116468301Y-71299323D01*
X116446297Y-71340430D01*
X116437436Y-71351226D01*
X116410360Y-71342819D01*
X116359697Y-71320272D01*
X116294183Y-71287613D01*
X116258159Y-71268520D01*
X116105168Y-71185800D01*
X115922912Y-71309075D01*
X115829875Y-71372228D01*
X115728015Y-71441727D01*
X115632562Y-71507165D01*
X115584750Y-71540117D01*
X115517505Y-71585273D01*
X115460564Y-71621057D01*
X115421354Y-71642938D01*
X115408619Y-71647563D01*
X115390083Y-71635085D01*
X115349059Y-71600252D01*
X115289525Y-71546678D01*
X115215458Y-71477983D01*
X115130835Y-71397781D01*
X115077315Y-71346286D01*
X114983681Y-71254286D01*
X114902759Y-71171999D01*
X114837823Y-71102945D01*
X114792142Y-71050644D01*
X114768989Y-71018616D01*
X114766768Y-71012116D01*
X114777076Y-70987394D01*
X114805561Y-70937405D01*
X114849063Y-70867212D01*
X114904423Y-70781875D01*
X114968480Y-70686456D01*
X114986697Y-70659854D01*
X115053073Y-70563167D01*
X115112622Y-70476117D01*
X115162016Y-70403595D01*
X115197925Y-70350493D01*
X115217019Y-70321703D01*
X115218864Y-70318726D01*
X115216105Y-70295782D01*
X115201462Y-70245336D01*
X115177487Y-70174041D01*
X115146734Y-70088547D01*
X115111756Y-69995507D01*
X115075107Y-69901574D01*
X115039339Y-69813399D01*
X115007006Y-69737634D01*
X114980662Y-69680931D01*
X114962858Y-69649943D01*
X114961593Y-69648457D01*
X114950706Y-69639601D01*
X114932318Y-69630843D01*
X114902394Y-69621277D01*
X114856897Y-69609996D01*
X114791791Y-69596093D01*
X114703039Y-69578663D01*
X114586607Y-69556798D01*
X114438458Y-69529591D01*
X114406382Y-69523741D01*
X114311314Y-69505374D01*
X114228435Y-69487405D01*
X114165070Y-69471569D01*
X114128542Y-69459600D01*
X114123644Y-69456810D01*
X114115573Y-69432072D01*
X114109013Y-69376790D01*
X114103967Y-69297389D01*
X114100441Y-69200296D01*
X114098439Y-69091938D01*
X114097964Y-68978740D01*
X114099023Y-68867128D01*
X114101618Y-68763529D01*
X114105754Y-68674368D01*
X114111437Y-68606072D01*
X114118669Y-68565066D01*
X114123029Y-68556674D01*
X114147302Y-68548208D01*
X114202574Y-68534435D01*
X114283338Y-68516550D01*
X114384088Y-68495748D01*
X114499317Y-68473223D01*
X114562098Y-68461418D01*
X114681213Y-68439151D01*
X114787435Y-68418979D01*
X114875573Y-68401915D01*
X114940434Y-68388969D01*
X114976826Y-68381155D01*
X114982816Y-68379422D01*
X114992939Y-68359890D01*
X115014338Y-68312843D01*
X115044161Y-68245003D01*
X115079555Y-68163091D01*
X115117668Y-68073828D01*
X115155647Y-67983935D01*
X115190640Y-67900135D01*
X115219794Y-67829147D01*
X115240257Y-67777694D01*
X115249177Y-67752497D01*
X115249343Y-67751396D01*
X115239231Y-67731519D01*
X115210883Y-67685777D01*
X115167277Y-67618717D01*
X115111394Y-67534884D01*
X115046213Y-67438826D01*
X115008321Y-67383650D01*
X114939275Y-67282481D01*
X114877950Y-67190630D01*
X114827337Y-67112744D01*
X114790429Y-67053469D01*
X114770218Y-67017451D01*
X114767299Y-67009377D01*
X114779847Y-66990584D01*
X114814537Y-66950457D01*
X114866937Y-66893493D01*
X114932616Y-66824185D01*
X115007144Y-66747031D01*
X115086087Y-66666525D01*
X115165017Y-66587163D01*
X115239500Y-66513440D01*
X115305106Y-66449852D01*
X115357404Y-66400894D01*
X115391961Y-66371061D01*
X115403522Y-66363942D01*
X115422346Y-66373953D01*
X115467369Y-66402078D01*
X115534213Y-66445454D01*
X115618501Y-66501218D01*
X115715856Y-66566506D01*
X115789293Y-66616246D01*
X116160333Y-66868551D01*
X116778905Y-66613555D01*
X116862725Y-66168931D01*
X116946546Y-65724307D01*
X117871994Y-65724307D01*
X117955814Y-66168931D01*
G37*
X117955814Y-66168931D02*
X118039635Y-66613555D01*
X118348920Y-66741053D01*
X118658206Y-66868551D01*
X119029246Y-66616246D01*
X119133157Y-66545996D01*
X119227087Y-66483272D01*
X119306652Y-66430938D01*
X119367470Y-66391857D01*
X119405157Y-66368893D01*
X119415421Y-66363942D01*
X119433910Y-66376676D01*
X119473420Y-66411882D01*
X119529522Y-66465062D01*
X119597787Y-66531718D01*
X119673786Y-66607354D01*
X119753092Y-66687472D01*
X119831275Y-66767574D01*
X119903907Y-66843164D01*
X119966559Y-66909745D01*
X120014803Y-66962818D01*
X120044210Y-66997887D01*
X120051241Y-67009623D01*
X120041123Y-67031260D01*
X120012759Y-67078662D01*
X119969129Y-67147193D01*
X119913218Y-67232215D01*
X119848006Y-67329093D01*
X119810219Y-67384350D01*
X119741343Y-67485248D01*
X119680140Y-67576299D01*
X119629578Y-67652970D01*
X119592628Y-67710728D01*
X119572258Y-67745043D01*
X119569197Y-67752254D01*
X119576136Y-67772748D01*
X119595051Y-67820513D01*
X119623087Y-67888832D01*
X119657391Y-67970989D01*
X119695109Y-68060270D01*
X119733387Y-68149958D01*
X119769370Y-68233338D01*
X119800206Y-68303694D01*
X119823039Y-68354310D01*
X119835017Y-68378471D01*
X119835724Y-68379422D01*
X119854531Y-68384036D01*
X119904618Y-68394328D01*
X119980793Y-68409287D01*
X120077865Y-68427901D01*
X120190643Y-68449159D01*
X120256442Y-68461418D01*
X120376950Y-68484362D01*
X120485797Y-68506195D01*
X120577476Y-68525722D01*
X120646481Y-68541748D01*
X120687304Y-68553079D01*
X120695511Y-68556674D01*
X120703548Y-68581006D01*
X120710033Y-68635959D01*
X120714970Y-68715108D01*
X120718364Y-68812026D01*
X120720218Y-68920287D01*
X120720538Y-69033465D01*
X120719327Y-69145135D01*
X120716590Y-69248868D01*
X120712331Y-69338241D01*
X120706555Y-69406826D01*
X120699267Y-69448197D01*
X120694895Y-69456810D01*
X120668764Y-69467133D01*
X120613393Y-69481892D01*
X120536107Y-69499352D01*
X120444230Y-69517780D01*
X120412158Y-69523741D01*
X120257524Y-69552066D01*
X120135375Y-69574876D01*
X120041673Y-69593080D01*
X119972384Y-69607583D01*
X119923471Y-69619292D01*
X119890897Y-69629115D01*
X119870628Y-69637956D01*
X119858626Y-69646724D01*
X119856947Y-69648457D01*
X119840184Y-69676371D01*
X119814614Y-69730695D01*
X119782788Y-69804777D01*
X119747260Y-69891965D01*
X119710583Y-69985608D01*
X119675311Y-70079052D01*
X119643996Y-70165647D01*
X119619193Y-70238740D01*
X119603454Y-70291678D01*
X119599332Y-70317811D01*
X119599676Y-70318726D01*
X119613641Y-70340086D01*
X119645322Y-70387084D01*
X119691391Y-70454827D01*
X119748518Y-70538423D01*
X119813373Y-70632982D01*
X119831843Y-70659854D01*
X119897699Y-70757275D01*
X119955650Y-70846163D01*
X120002538Y-70921412D01*
X120035207Y-70977920D01*
X120050500Y-71010581D01*
X120051241Y-71014593D01*
X120038392Y-71035684D01*
X120002888Y-71077464D01*
X119949293Y-71135445D01*
X119882171Y-71205135D01*
X119806087Y-71282045D01*
X119725604Y-71361683D01*
X119645287Y-71439561D01*
X119569699Y-71511186D01*
X119503405Y-71572070D01*
X119450969Y-71617721D01*
X119416955Y-71643650D01*
X119407545Y-71647883D01*
X119385643Y-71637912D01*
X119340800Y-71611020D01*
X119280321Y-71571736D01*
X119233789Y-71540117D01*
X119149475Y-71482098D01*
X119049626Y-71413784D01*
X118949473Y-71345579D01*
X118895627Y-71309075D01*
X118713371Y-71185800D01*
X118560381Y-71268520D01*
X118490682Y-71304759D01*
X118431414Y-71332926D01*
X118391311Y-71348991D01*
X118381103Y-71351226D01*
X118368829Y-71334722D01*
X118344613Y-71288082D01*
X118310263Y-71215609D01*
X118267588Y-71121606D01*
X118218394Y-71010374D01*
X118164490Y-70886215D01*
X118107684Y-70753432D01*
X118049782Y-70616327D01*
X117992593Y-70479202D01*
X117937924Y-70346358D01*
X117887584Y-70222098D01*
X117843380Y-70110725D01*
X117807119Y-70016539D01*
X117780609Y-69943844D01*
X117765658Y-69896941D01*
X117763254Y-69880833D01*
X117782311Y-69860286D01*
X117824036Y-69826933D01*
X117879706Y-69787702D01*
X117884378Y-69784599D01*
X118028264Y-69669423D01*
X118144283Y-69535053D01*
X118231430Y-69385784D01*
X118288699Y-69225913D01*
X118315086Y-69059737D01*
X118309585Y-68891552D01*
X118271190Y-68725655D01*
X118198895Y-68566342D01*
X118177626Y-68531487D01*
X118066996Y-68390737D01*
X117936302Y-68277714D01*
X117790064Y-68193003D01*
X117632808Y-68137194D01*
X117469057Y-68110874D01*
X117303333Y-68114630D01*
X117140162Y-68149050D01*
X116984065Y-68214723D01*
X116839567Y-68312235D01*
X116794869Y-68351813D01*
X116681112Y-68475703D01*
X116598218Y-68606124D01*
X116541356Y-68752315D01*
X116509687Y-68897088D01*
X116501869Y-69059860D01*
X116527938Y-69223440D01*
X116585245Y-69382298D01*
X116671144Y-69530906D01*
X116782986Y-69663735D01*
X116918123Y-69775256D01*
X116935883Y-69787011D01*
X116992150Y-69825508D01*
X117034923Y-69858863D01*
X117055372Y-69880160D01*
X117055669Y-69880833D01*
X117051279Y-69903871D01*
X117033876Y-69956157D01*
X117005268Y-70033390D01*
X116967265Y-70131268D01*
X116921674Y-70245491D01*
X116870303Y-70371758D01*
X116814962Y-70505767D01*
X116757458Y-70643218D01*
X116699601Y-70779808D01*
X116643198Y-70911237D01*
X116590058Y-71033205D01*
X116541990Y-71141409D01*
X116500801Y-71231549D01*
X116468301Y-71299323D01*
X116446297Y-71340430D01*
X116437436Y-71351226D01*
X116410360Y-71342819D01*
X116359697Y-71320272D01*
X116294183Y-71287613D01*
X116258159Y-71268520D01*
X116105168Y-71185800D01*
X115922912Y-71309075D01*
X115829875Y-71372228D01*
X115728015Y-71441727D01*
X115632562Y-71507165D01*
X115584750Y-71540117D01*
X115517505Y-71585273D01*
X115460564Y-71621057D01*
X115421354Y-71642938D01*
X115408619Y-71647563D01*
X115390083Y-71635085D01*
X115349059Y-71600252D01*
X115289525Y-71546678D01*
X115215458Y-71477983D01*
X115130835Y-71397781D01*
X115077315Y-71346286D01*
X114983681Y-71254286D01*
X114902759Y-71171999D01*
X114837823Y-71102945D01*
X114792142Y-71050644D01*
X114768989Y-71018616D01*
X114766768Y-71012116D01*
X114777076Y-70987394D01*
X114805561Y-70937405D01*
X114849063Y-70867212D01*
X114904423Y-70781875D01*
X114968480Y-70686456D01*
X114986697Y-70659854D01*
X115053073Y-70563167D01*
X115112622Y-70476117D01*
X115162016Y-70403595D01*
X115197925Y-70350493D01*
X115217019Y-70321703D01*
X115218864Y-70318726D01*
X115216105Y-70295782D01*
X115201462Y-70245336D01*
X115177487Y-70174041D01*
X115146734Y-70088547D01*
X115111756Y-69995507D01*
X115075107Y-69901574D01*
X115039339Y-69813399D01*
X115007006Y-69737634D01*
X114980662Y-69680931D01*
X114962858Y-69649943D01*
X114961593Y-69648457D01*
X114950706Y-69639601D01*
X114932318Y-69630843D01*
X114902394Y-69621277D01*
X114856897Y-69609996D01*
X114791791Y-69596093D01*
X114703039Y-69578663D01*
X114586607Y-69556798D01*
X114438458Y-69529591D01*
X114406382Y-69523741D01*
X114311314Y-69505374D01*
X114228435Y-69487405D01*
X114165070Y-69471569D01*
X114128542Y-69459600D01*
X114123644Y-69456810D01*
X114115573Y-69432072D01*
X114109013Y-69376790D01*
X114103967Y-69297389D01*
X114100441Y-69200296D01*
X114098439Y-69091938D01*
X114097964Y-68978740D01*
X114099023Y-68867128D01*
X114101618Y-68763529D01*
X114105754Y-68674368D01*
X114111437Y-68606072D01*
X114118669Y-68565066D01*
X114123029Y-68556674D01*
X114147302Y-68548208D01*
X114202574Y-68534435D01*
X114283338Y-68516550D01*
X114384088Y-68495748D01*
X114499317Y-68473223D01*
X114562098Y-68461418D01*
X114681213Y-68439151D01*
X114787435Y-68418979D01*
X114875573Y-68401915D01*
X114940434Y-68388969D01*
X114976826Y-68381155D01*
X114982816Y-68379422D01*
X114992939Y-68359890D01*
X115014338Y-68312843D01*
X115044161Y-68245003D01*
X115079555Y-68163091D01*
X115117668Y-68073828D01*
X115155647Y-67983935D01*
X115190640Y-67900135D01*
X115219794Y-67829147D01*
X115240257Y-67777694D01*
X115249177Y-67752497D01*
X115249343Y-67751396D01*
X115239231Y-67731519D01*
X115210883Y-67685777D01*
X115167277Y-67618717D01*
X115111394Y-67534884D01*
X115046213Y-67438826D01*
X115008321Y-67383650D01*
X114939275Y-67282481D01*
X114877950Y-67190630D01*
X114827337Y-67112744D01*
X114790429Y-67053469D01*
X114770218Y-67017451D01*
X114767299Y-67009377D01*
X114779847Y-66990584D01*
X114814537Y-66950457D01*
X114866937Y-66893493D01*
X114932616Y-66824185D01*
X115007144Y-66747031D01*
X115086087Y-66666525D01*
X115165017Y-66587163D01*
X115239500Y-66513440D01*
X115305106Y-66449852D01*
X115357404Y-66400894D01*
X115391961Y-66371061D01*
X115403522Y-66363942D01*
X115422346Y-66373953D01*
X115467369Y-66402078D01*
X115534213Y-66445454D01*
X115618501Y-66501218D01*
X115715856Y-66566506D01*
X115789293Y-66616246D01*
X116160333Y-66868551D01*
X116778905Y-66613555D01*
X116862725Y-66168931D01*
X116946546Y-65724307D01*
X117871994Y-65724307D01*
X117955814Y-66168931D01*
D12*
%TO.C,U2*%
X129260021Y-65532000D02*
G75*
G03*
X129260021Y-65532000I-11708821J0D01*
G01*
D14*
%TO.C,J1*%
X125025000Y-85075000D02*
X125025000Y-100075000D01*
X110025000Y-85075000D02*
X125025000Y-85075000D01*
X117525000Y-99875000D02*
X116525000Y-98875000D01*
X110025000Y-100075000D02*
X110025000Y-85075000D01*
X117525000Y-99875000D02*
X118525000Y-98875000D01*
X125025000Y-100075000D02*
X110025000Y-100075000D01*
%TO.C,C1*%
X111379000Y-81132800D02*
X123969400Y-81132800D01*
X123969400Y-81132800D02*
X123969400Y-83690200D01*
X123969400Y-83690200D02*
X111379000Y-83690200D01*
X111379000Y-83690200D02*
X111379000Y-81132800D01*
%TD*%
M02*
