%TF.GenerationSoftware,KiCad,Pcbnew,6.0.2+dfsg-1*%
%TF.CreationDate,2023-02-03T10:11:00+01:00*%
%TF.ProjectId,UniBalun1.2,556e6942-616c-4756-9e31-2e322e6b6963,rev?*%
%TF.SameCoordinates,Original*%
%TF.FileFunction,Legend,Top*%
%TF.FilePolarity,Positive*%
%FSLAX46Y46*%
G04 Gerber Fmt 4.6, Leading zero omitted, Abs format (unit mm)*
G04 Created by KiCad (PCBNEW 6.0.2+dfsg-1) date 2023-02-03 10:11:00*
%MOMM*%
%LPD*%
G01*
G04 APERTURE LIST*
%ADD10C,0.400000*%
%ADD11C,0.200000*%
%ADD12C,0.300000*%
%ADD13C,0.150000*%
%ADD14C,0.120000*%
%ADD15C,0.010000*%
G04 APERTURE END LIST*
D10*
X130571857Y-47736142D02*
X130857571Y-47831380D01*
X130952809Y-47926619D01*
X131048047Y-48117095D01*
X131048047Y-48402809D01*
X130952809Y-48593285D01*
X130857571Y-48688523D01*
X130667095Y-48783761D01*
X129905190Y-48783761D01*
X129905190Y-46783761D01*
X130571857Y-46783761D01*
X130762333Y-46879000D01*
X130857571Y-46974238D01*
X130952809Y-47164714D01*
X130952809Y-47355190D01*
X130857571Y-47545666D01*
X130762333Y-47640904D01*
X130571857Y-47736142D01*
X129905190Y-47736142D01*
D11*
X110380952Y-62761904D02*
X110380952Y-62228571D01*
X110380952Y-62304761D02*
X110419047Y-62266666D01*
X110495238Y-62228571D01*
X110609523Y-62228571D01*
X110685714Y-62266666D01*
X110723809Y-62342857D01*
X110723809Y-62761904D01*
X110723809Y-62342857D02*
X110761904Y-62266666D01*
X110838095Y-62228571D01*
X110952380Y-62228571D01*
X111028571Y-62266666D01*
X111066666Y-62342857D01*
X111066666Y-62761904D01*
X111790476Y-62761904D02*
X111790476Y-62342857D01*
X111752380Y-62266666D01*
X111676190Y-62228571D01*
X111523809Y-62228571D01*
X111447619Y-62266666D01*
X111790476Y-62723809D02*
X111714285Y-62761904D01*
X111523809Y-62761904D01*
X111447619Y-62723809D01*
X111409523Y-62647619D01*
X111409523Y-62571428D01*
X111447619Y-62495238D01*
X111523809Y-62457142D01*
X111714285Y-62457142D01*
X111790476Y-62419047D01*
X112095238Y-62761904D02*
X112514285Y-62228571D01*
X112095238Y-62228571D02*
X112514285Y-62761904D01*
X113847619Y-62761904D02*
X113390476Y-62761904D01*
X113619047Y-62761904D02*
X113619047Y-61961904D01*
X113542857Y-62076190D01*
X113466666Y-62152380D01*
X113390476Y-62190476D01*
X114342857Y-61961904D02*
X114419047Y-61961904D01*
X114495238Y-62000000D01*
X114533333Y-62038095D01*
X114571428Y-62114285D01*
X114609523Y-62266666D01*
X114609523Y-62457142D01*
X114571428Y-62609523D01*
X114533333Y-62685714D01*
X114495238Y-62723809D01*
X114419047Y-62761904D01*
X114342857Y-62761904D01*
X114266666Y-62723809D01*
X114228571Y-62685714D01*
X114190476Y-62609523D01*
X114152380Y-62457142D01*
X114152380Y-62266666D01*
X114190476Y-62114285D01*
X114228571Y-62038095D01*
X114266666Y-62000000D01*
X114342857Y-61961904D01*
X114876190Y-61961904D02*
X115066666Y-62761904D01*
X115219047Y-62190476D01*
X115371428Y-62761904D01*
X115561904Y-61961904D01*
X116438095Y-62723809D02*
X116552380Y-62761904D01*
X116742857Y-62761904D01*
X116819047Y-62723809D01*
X116857142Y-62685714D01*
X116895238Y-62609523D01*
X116895238Y-62533333D01*
X116857142Y-62457142D01*
X116819047Y-62419047D01*
X116742857Y-62380952D01*
X116590476Y-62342857D01*
X116514285Y-62304761D01*
X116476190Y-62266666D01*
X116438095Y-62190476D01*
X116438095Y-62114285D01*
X116476190Y-62038095D01*
X116514285Y-62000000D01*
X116590476Y-61961904D01*
X116780952Y-61961904D01*
X116895238Y-62000000D01*
X117200000Y-62723809D02*
X117314285Y-62761904D01*
X117504761Y-62761904D01*
X117580952Y-62723809D01*
X117619047Y-62685714D01*
X117657142Y-62609523D01*
X117657142Y-62533333D01*
X117619047Y-62457142D01*
X117580952Y-62419047D01*
X117504761Y-62380952D01*
X117352380Y-62342857D01*
X117276190Y-62304761D01*
X117238095Y-62266666D01*
X117200000Y-62190476D01*
X117200000Y-62114285D01*
X117238095Y-62038095D01*
X117276190Y-62000000D01*
X117352380Y-61961904D01*
X117542857Y-61961904D01*
X117657142Y-62000000D01*
X118266666Y-62342857D02*
X118380952Y-62380952D01*
X118419047Y-62419047D01*
X118457142Y-62495238D01*
X118457142Y-62609523D01*
X118419047Y-62685714D01*
X118380952Y-62723809D01*
X118304761Y-62761904D01*
X118000000Y-62761904D01*
X118000000Y-61961904D01*
X118266666Y-61961904D01*
X118342857Y-62000000D01*
X118380952Y-62038095D01*
X118419047Y-62114285D01*
X118419047Y-62190476D01*
X118380952Y-62266666D01*
X118342857Y-62304761D01*
X118266666Y-62342857D01*
X118000000Y-62342857D01*
X119980952Y-61923809D02*
X119295238Y-62952380D01*
X121238095Y-61961904D02*
X120857142Y-61961904D01*
X120819047Y-62342857D01*
X120857142Y-62304761D01*
X120933333Y-62266666D01*
X121123809Y-62266666D01*
X121200000Y-62304761D01*
X121238095Y-62342857D01*
X121276190Y-62419047D01*
X121276190Y-62609523D01*
X121238095Y-62685714D01*
X121200000Y-62723809D01*
X121123809Y-62761904D01*
X120933333Y-62761904D01*
X120857142Y-62723809D01*
X120819047Y-62685714D01*
X121542857Y-61961904D02*
X121733333Y-62761904D01*
X121885714Y-62190476D01*
X122038095Y-62761904D01*
X122228571Y-61961904D01*
X123409523Y-62342857D02*
X123142857Y-62342857D01*
X123142857Y-62761904D02*
X123142857Y-61961904D01*
X123523809Y-61961904D01*
X123714285Y-61961904D02*
X124171428Y-61961904D01*
X123942857Y-62761904D02*
X123942857Y-61961904D01*
X124552380Y-62304761D02*
X124476190Y-62266666D01*
X124438095Y-62228571D01*
X124400000Y-62152380D01*
X124400000Y-62114285D01*
X124438095Y-62038095D01*
X124476190Y-62000000D01*
X124552380Y-61961904D01*
X124704761Y-61961904D01*
X124780952Y-62000000D01*
X124819047Y-62038095D01*
X124857142Y-62114285D01*
X124857142Y-62152380D01*
X124819047Y-62228571D01*
X124780952Y-62266666D01*
X124704761Y-62304761D01*
X124552380Y-62304761D01*
X124476190Y-62342857D01*
X124438095Y-62380952D01*
X124400000Y-62457142D01*
X124400000Y-62609523D01*
X124438095Y-62685714D01*
X124476190Y-62723809D01*
X124552380Y-62761904D01*
X124704761Y-62761904D01*
X124780952Y-62723809D01*
X124819047Y-62685714D01*
X124857142Y-62609523D01*
X124857142Y-62457142D01*
X124819047Y-62380952D01*
X124780952Y-62342857D01*
X124704761Y-62304761D01*
D12*
X113086142Y-56645071D02*
X113086142Y-57859357D01*
X113157571Y-58002214D01*
X113229000Y-58073642D01*
X113371857Y-58145071D01*
X113657571Y-58145071D01*
X113800428Y-58073642D01*
X113871857Y-58002214D01*
X113943285Y-57859357D01*
X113943285Y-56645071D01*
X114657571Y-57145071D02*
X114657571Y-58145071D01*
X114657571Y-57287928D02*
X114729000Y-57216500D01*
X114871857Y-57145071D01*
X115086142Y-57145071D01*
X115229000Y-57216500D01*
X115300428Y-57359357D01*
X115300428Y-58145071D01*
X116014714Y-58145071D02*
X116014714Y-57145071D01*
X116014714Y-56645071D02*
X115943285Y-56716500D01*
X116014714Y-56787928D01*
X116086142Y-56716500D01*
X116014714Y-56645071D01*
X116014714Y-56787928D01*
X117229000Y-57359357D02*
X117443285Y-57430785D01*
X117514714Y-57502214D01*
X117586142Y-57645071D01*
X117586142Y-57859357D01*
X117514714Y-58002214D01*
X117443285Y-58073642D01*
X117300428Y-58145071D01*
X116729000Y-58145071D01*
X116729000Y-56645071D01*
X117229000Y-56645071D01*
X117371857Y-56716500D01*
X117443285Y-56787928D01*
X117514714Y-56930785D01*
X117514714Y-57073642D01*
X117443285Y-57216500D01*
X117371857Y-57287928D01*
X117229000Y-57359357D01*
X116729000Y-57359357D01*
X118871857Y-58145071D02*
X118871857Y-57359357D01*
X118800428Y-57216500D01*
X118657571Y-57145071D01*
X118371857Y-57145071D01*
X118229000Y-57216500D01*
X118871857Y-58073642D02*
X118729000Y-58145071D01*
X118371857Y-58145071D01*
X118229000Y-58073642D01*
X118157571Y-57930785D01*
X118157571Y-57787928D01*
X118229000Y-57645071D01*
X118371857Y-57573642D01*
X118729000Y-57573642D01*
X118871857Y-57502214D01*
X119800428Y-58145071D02*
X119657571Y-58073642D01*
X119586142Y-57930785D01*
X119586142Y-56645071D01*
X121014714Y-57145071D02*
X121014714Y-58145071D01*
X120371857Y-57145071D02*
X120371857Y-57930785D01*
X120443285Y-58073642D01*
X120586142Y-58145071D01*
X120800428Y-58145071D01*
X120943285Y-58073642D01*
X121014714Y-58002214D01*
X121729000Y-57145071D02*
X121729000Y-58145071D01*
X121729000Y-57287928D02*
X121800428Y-57216500D01*
X121943285Y-57145071D01*
X122157571Y-57145071D01*
X122300428Y-57216500D01*
X122371857Y-57359357D01*
X122371857Y-58145071D01*
X112157571Y-59202928D02*
X112229000Y-59131500D01*
X112371857Y-59060071D01*
X112729000Y-59060071D01*
X112871857Y-59131500D01*
X112943285Y-59202928D01*
X113014714Y-59345785D01*
X113014714Y-59488642D01*
X112943285Y-59702928D01*
X112086142Y-60560071D01*
X113014714Y-60560071D01*
X113943285Y-59060071D02*
X114086142Y-59060071D01*
X114229000Y-59131500D01*
X114300428Y-59202928D01*
X114371857Y-59345785D01*
X114443285Y-59631500D01*
X114443285Y-59988642D01*
X114371857Y-60274357D01*
X114300428Y-60417214D01*
X114229000Y-60488642D01*
X114086142Y-60560071D01*
X113943285Y-60560071D01*
X113800428Y-60488642D01*
X113729000Y-60417214D01*
X113657571Y-60274357D01*
X113586142Y-59988642D01*
X113586142Y-59631500D01*
X113657571Y-59345785D01*
X113729000Y-59202928D01*
X113800428Y-59131500D01*
X113943285Y-59060071D01*
X115014714Y-59202928D02*
X115086142Y-59131500D01*
X115229000Y-59060071D01*
X115586142Y-59060071D01*
X115729000Y-59131500D01*
X115800428Y-59202928D01*
X115871857Y-59345785D01*
X115871857Y-59488642D01*
X115800428Y-59702928D01*
X114943285Y-60560071D01*
X115871857Y-60560071D01*
X116371857Y-59060071D02*
X117300428Y-59060071D01*
X116800428Y-59631500D01*
X117014714Y-59631500D01*
X117157571Y-59702928D01*
X117229000Y-59774357D01*
X117300428Y-59917214D01*
X117300428Y-60274357D01*
X117229000Y-60417214D01*
X117157571Y-60488642D01*
X117014714Y-60560071D01*
X116586142Y-60560071D01*
X116443285Y-60488642D01*
X116371857Y-60417214D01*
X118871857Y-59060071D02*
X119371857Y-60560071D01*
X119871857Y-59060071D01*
X121157571Y-60560071D02*
X120300428Y-60560071D01*
X120729000Y-60560071D02*
X120729000Y-59060071D01*
X120586142Y-59274357D01*
X120443285Y-59417214D01*
X120300428Y-59488642D01*
X121800428Y-60417214D02*
X121871857Y-60488642D01*
X121800428Y-60560071D01*
X121729000Y-60488642D01*
X121800428Y-60417214D01*
X121800428Y-60560071D01*
X122443285Y-59202928D02*
X122514714Y-59131500D01*
X122657571Y-59060071D01*
X123014714Y-59060071D01*
X123157571Y-59131500D01*
X123229000Y-59202928D01*
X123300428Y-59345785D01*
X123300428Y-59488642D01*
X123229000Y-59702928D01*
X122371857Y-60560071D01*
X123300428Y-60560071D01*
X113642857Y-73478571D02*
X113642857Y-71978571D01*
X114000000Y-71978571D01*
X114214285Y-72050000D01*
X114357142Y-72192857D01*
X114428571Y-72335714D01*
X114500000Y-72621428D01*
X114500000Y-72835714D01*
X114428571Y-73121428D01*
X114357142Y-73264285D01*
X114214285Y-73407142D01*
X114000000Y-73478571D01*
X113642857Y-73478571D01*
X115928571Y-72050000D02*
X115785714Y-71978571D01*
X115571428Y-71978571D01*
X115357142Y-72050000D01*
X115214285Y-72192857D01*
X115142857Y-72335714D01*
X115071428Y-72621428D01*
X115071428Y-72835714D01*
X115142857Y-73121428D01*
X115214285Y-73264285D01*
X115357142Y-73407142D01*
X115571428Y-73478571D01*
X115714285Y-73478571D01*
X115928571Y-73407142D01*
X116000000Y-73335714D01*
X116000000Y-72835714D01*
X115714285Y-72835714D01*
X117428571Y-73478571D02*
X116571428Y-73478571D01*
X117000000Y-73478571D02*
X117000000Y-71978571D01*
X116857142Y-72192857D01*
X116714285Y-72335714D01*
X116571428Y-72407142D01*
X118500000Y-71978571D02*
X118500000Y-73050000D01*
X118428571Y-73264285D01*
X118285714Y-73407142D01*
X118071428Y-73478571D01*
X117928571Y-73478571D01*
X119142857Y-73050000D02*
X119857142Y-73050000D01*
X119000000Y-73478571D02*
X119500000Y-71978571D01*
X120000000Y-73478571D01*
X120500000Y-73478571D02*
X120500000Y-71978571D01*
X121357142Y-73478571D01*
X121357142Y-71978571D01*
D10*
X104171809Y-48212333D02*
X105124190Y-48212333D01*
X103981333Y-48783761D02*
X104648000Y-46783761D01*
X105314666Y-48783761D01*
D13*
%TO.C,U2*%
X123867895Y-55062380D02*
X124391704Y-54395714D01*
X123867895Y-54395714D02*
X124391704Y-55062380D01*
X112320390Y-75255380D02*
X112320390Y-74731571D01*
X112272771Y-74636333D01*
X112177533Y-74588714D01*
X111987057Y-74588714D01*
X111891819Y-74636333D01*
X112320390Y-75207761D02*
X112225152Y-75255380D01*
X111987057Y-75255380D01*
X111891819Y-75207761D01*
X111844200Y-75112523D01*
X111844200Y-75017285D01*
X111891819Y-74922047D01*
X111987057Y-74874428D01*
X112225152Y-74874428D01*
X112320390Y-74826809D01*
X112844200Y-74255380D02*
X112748961Y-74445857D01*
X119924485Y-76652380D02*
X119924485Y-76128571D01*
X119876866Y-76033333D01*
X119781628Y-75985714D01*
X119591152Y-75985714D01*
X119495914Y-76033333D01*
X119924485Y-76604761D02*
X119829247Y-76652380D01*
X119591152Y-76652380D01*
X119495914Y-76604761D01*
X119448295Y-76509523D01*
X119448295Y-76414285D01*
X119495914Y-76319047D01*
X119591152Y-76271428D01*
X119829247Y-76271428D01*
X119924485Y-76223809D01*
X114812819Y-76652380D02*
X114812819Y-75652380D01*
X114812819Y-76033333D02*
X114908057Y-75985714D01*
X115098533Y-75985714D01*
X115193771Y-76033333D01*
X115241390Y-76080952D01*
X115289009Y-76176190D01*
X115289009Y-76461904D01*
X115241390Y-76557142D01*
X115193771Y-76604761D01*
X115098533Y-76652380D01*
X114908057Y-76652380D01*
X114812819Y-76604761D01*
X115765200Y-75652380D02*
X115669961Y-75842857D01*
X122797914Y-75255380D02*
X122797914Y-74255380D01*
X122797914Y-74636333D02*
X122893152Y-74588714D01*
X123083628Y-74588714D01*
X123178866Y-74636333D01*
X123226485Y-74683952D01*
X123274104Y-74779190D01*
X123274104Y-75064904D01*
X123226485Y-75160142D01*
X123178866Y-75207761D01*
X123083628Y-75255380D01*
X122893152Y-75255380D01*
X122797914Y-75207761D01*
%TO.C,U1*%
X112731514Y-83688180D02*
X112160085Y-83688180D01*
X112445800Y-83688180D02*
X112445800Y-82688180D01*
X112350561Y-82831038D01*
X112255323Y-82926276D01*
X112160085Y-82973895D01*
X122796276Y-86831514D02*
X122796276Y-87498180D01*
X122558180Y-86450561D02*
X122320085Y-87164847D01*
X122939133Y-87164847D01*
X122272466Y-82688180D02*
X122891514Y-82688180D01*
X122558180Y-83069133D01*
X122701038Y-83069133D01*
X122796276Y-83116752D01*
X122843895Y-83164371D01*
X122891514Y-83259609D01*
X122891514Y-83497704D01*
X122843895Y-83592942D01*
X122796276Y-83640561D01*
X122701038Y-83688180D01*
X122415323Y-83688180D01*
X122320085Y-83640561D01*
X122272466Y-83592942D01*
X112160085Y-86339419D02*
X112207704Y-86291800D01*
X112302942Y-86244180D01*
X112541038Y-86244180D01*
X112636276Y-86291800D01*
X112683895Y-86339419D01*
X112731514Y-86434657D01*
X112731514Y-86529895D01*
X112683895Y-86672752D01*
X112112466Y-87244180D01*
X112731514Y-87244180D01*
%TO.C,C1*%
X116165333Y-90984342D02*
X116117714Y-91031961D01*
X115974857Y-91079580D01*
X115879619Y-91079580D01*
X115736761Y-91031961D01*
X115641523Y-90936723D01*
X115593904Y-90841485D01*
X115546285Y-90651009D01*
X115546285Y-90508152D01*
X115593904Y-90317676D01*
X115641523Y-90222438D01*
X115736761Y-90127200D01*
X115879619Y-90079580D01*
X115974857Y-90079580D01*
X116117714Y-90127200D01*
X116165333Y-90174819D01*
X117117714Y-91079580D02*
X116546285Y-91079580D01*
X116832000Y-91079580D02*
X116832000Y-90079580D01*
X116736761Y-90222438D01*
X116641523Y-90317676D01*
X116546285Y-90365295D01*
%TO.C,U2*%
X129260021Y-65532000D02*
G75*
G03*
X129260021Y-65532000I-11708821J0D01*
G01*
D14*
%TO.C,J1*%
X125102000Y-93910000D02*
X125102000Y-108910000D01*
X110102000Y-93910000D02*
X125102000Y-93910000D01*
X117602000Y-108710000D02*
X116602000Y-107710000D01*
X110102000Y-108910000D02*
X110102000Y-93910000D01*
X117602000Y-108710000D02*
X118602000Y-107710000D01*
X125102000Y-108910000D02*
X110102000Y-108910000D01*
D13*
%TO.C,U1*%
X113461800Y-85077300D02*
X121462800Y-85077300D01*
X117652800Y-81711800D02*
X117652800Y-88442800D01*
X113461800Y-81711800D02*
X121589800Y-81711800D01*
X121589800Y-81711800D02*
X121589800Y-88442800D01*
X121589800Y-88442800D02*
X113461800Y-88442800D01*
X113461800Y-88442800D02*
X113461800Y-81711800D01*
D14*
%TO.C,C1*%
X123952000Y-91770200D02*
X111861600Y-91770200D01*
X111861600Y-91770200D02*
X111861600Y-89712800D01*
X111861600Y-89712800D02*
X123952000Y-89712800D01*
X123952000Y-89712800D02*
X123952000Y-91770200D01*
%TO.C,J2*%
X115652000Y-102712600D02*
X116762000Y-102712600D01*
X118442000Y-102712600D02*
X119552000Y-102712600D01*
X118442000Y-106422600D02*
X119552000Y-106422600D01*
X115652000Y-106422600D02*
X116762000Y-106422600D01*
X117602000Y-102162600D02*
X117852000Y-101662600D01*
X117352000Y-101662600D02*
X117602000Y-102162600D01*
X117852000Y-101662600D02*
X117352000Y-101662600D01*
D15*
%TO.C,REF\u002A\u002A*%
X118055814Y-65668931D02*
X118139635Y-66113555D01*
X118139635Y-66113555D02*
X118448920Y-66241053D01*
X118448920Y-66241053D02*
X118758206Y-66368551D01*
X118758206Y-66368551D02*
X119129246Y-66116246D01*
X119129246Y-66116246D02*
X119233157Y-66045996D01*
X119233157Y-66045996D02*
X119327087Y-65983272D01*
X119327087Y-65983272D02*
X119406652Y-65930938D01*
X119406652Y-65930938D02*
X119467470Y-65891857D01*
X119467470Y-65891857D02*
X119505157Y-65868893D01*
X119505157Y-65868893D02*
X119515421Y-65863942D01*
X119515421Y-65863942D02*
X119533910Y-65876676D01*
X119533910Y-65876676D02*
X119573420Y-65911882D01*
X119573420Y-65911882D02*
X119629522Y-65965062D01*
X119629522Y-65965062D02*
X119697787Y-66031718D01*
X119697787Y-66031718D02*
X119773786Y-66107354D01*
X119773786Y-66107354D02*
X119853092Y-66187472D01*
X119853092Y-66187472D02*
X119931275Y-66267574D01*
X119931275Y-66267574D02*
X120003907Y-66343164D01*
X120003907Y-66343164D02*
X120066559Y-66409745D01*
X120066559Y-66409745D02*
X120114803Y-66462818D01*
X120114803Y-66462818D02*
X120144210Y-66497887D01*
X120144210Y-66497887D02*
X120151241Y-66509623D01*
X120151241Y-66509623D02*
X120141123Y-66531260D01*
X120141123Y-66531260D02*
X120112759Y-66578662D01*
X120112759Y-66578662D02*
X120069129Y-66647193D01*
X120069129Y-66647193D02*
X120013218Y-66732215D01*
X120013218Y-66732215D02*
X119948006Y-66829093D01*
X119948006Y-66829093D02*
X119910219Y-66884350D01*
X119910219Y-66884350D02*
X119841343Y-66985248D01*
X119841343Y-66985248D02*
X119780140Y-67076299D01*
X119780140Y-67076299D02*
X119729578Y-67152970D01*
X119729578Y-67152970D02*
X119692628Y-67210728D01*
X119692628Y-67210728D02*
X119672258Y-67245043D01*
X119672258Y-67245043D02*
X119669197Y-67252254D01*
X119669197Y-67252254D02*
X119676136Y-67272748D01*
X119676136Y-67272748D02*
X119695051Y-67320513D01*
X119695051Y-67320513D02*
X119723087Y-67388832D01*
X119723087Y-67388832D02*
X119757391Y-67470989D01*
X119757391Y-67470989D02*
X119795109Y-67560270D01*
X119795109Y-67560270D02*
X119833387Y-67649958D01*
X119833387Y-67649958D02*
X119869370Y-67733338D01*
X119869370Y-67733338D02*
X119900206Y-67803694D01*
X119900206Y-67803694D02*
X119923039Y-67854310D01*
X119923039Y-67854310D02*
X119935017Y-67878471D01*
X119935017Y-67878471D02*
X119935724Y-67879422D01*
X119935724Y-67879422D02*
X119954531Y-67884036D01*
X119954531Y-67884036D02*
X120004618Y-67894328D01*
X120004618Y-67894328D02*
X120080793Y-67909287D01*
X120080793Y-67909287D02*
X120177865Y-67927901D01*
X120177865Y-67927901D02*
X120290643Y-67949159D01*
X120290643Y-67949159D02*
X120356442Y-67961418D01*
X120356442Y-67961418D02*
X120476950Y-67984362D01*
X120476950Y-67984362D02*
X120585797Y-68006195D01*
X120585797Y-68006195D02*
X120677476Y-68025722D01*
X120677476Y-68025722D02*
X120746481Y-68041748D01*
X120746481Y-68041748D02*
X120787304Y-68053079D01*
X120787304Y-68053079D02*
X120795511Y-68056674D01*
X120795511Y-68056674D02*
X120803548Y-68081006D01*
X120803548Y-68081006D02*
X120810033Y-68135959D01*
X120810033Y-68135959D02*
X120814970Y-68215108D01*
X120814970Y-68215108D02*
X120818364Y-68312026D01*
X120818364Y-68312026D02*
X120820218Y-68420287D01*
X120820218Y-68420287D02*
X120820538Y-68533465D01*
X120820538Y-68533465D02*
X120819327Y-68645135D01*
X120819327Y-68645135D02*
X120816590Y-68748868D01*
X120816590Y-68748868D02*
X120812331Y-68838241D01*
X120812331Y-68838241D02*
X120806555Y-68906826D01*
X120806555Y-68906826D02*
X120799267Y-68948197D01*
X120799267Y-68948197D02*
X120794895Y-68956810D01*
X120794895Y-68956810D02*
X120768764Y-68967133D01*
X120768764Y-68967133D02*
X120713393Y-68981892D01*
X120713393Y-68981892D02*
X120636107Y-68999352D01*
X120636107Y-68999352D02*
X120544230Y-69017780D01*
X120544230Y-69017780D02*
X120512158Y-69023741D01*
X120512158Y-69023741D02*
X120357524Y-69052066D01*
X120357524Y-69052066D02*
X120235375Y-69074876D01*
X120235375Y-69074876D02*
X120141673Y-69093080D01*
X120141673Y-69093080D02*
X120072384Y-69107583D01*
X120072384Y-69107583D02*
X120023471Y-69119292D01*
X120023471Y-69119292D02*
X119990897Y-69129115D01*
X119990897Y-69129115D02*
X119970628Y-69137956D01*
X119970628Y-69137956D02*
X119958626Y-69146724D01*
X119958626Y-69146724D02*
X119956947Y-69148457D01*
X119956947Y-69148457D02*
X119940184Y-69176371D01*
X119940184Y-69176371D02*
X119914614Y-69230695D01*
X119914614Y-69230695D02*
X119882788Y-69304777D01*
X119882788Y-69304777D02*
X119847260Y-69391965D01*
X119847260Y-69391965D02*
X119810583Y-69485608D01*
X119810583Y-69485608D02*
X119775311Y-69579052D01*
X119775311Y-69579052D02*
X119743996Y-69665647D01*
X119743996Y-69665647D02*
X119719193Y-69738740D01*
X119719193Y-69738740D02*
X119703454Y-69791678D01*
X119703454Y-69791678D02*
X119699332Y-69817811D01*
X119699332Y-69817811D02*
X119699676Y-69818726D01*
X119699676Y-69818726D02*
X119713641Y-69840086D01*
X119713641Y-69840086D02*
X119745322Y-69887084D01*
X119745322Y-69887084D02*
X119791391Y-69954827D01*
X119791391Y-69954827D02*
X119848518Y-70038423D01*
X119848518Y-70038423D02*
X119913373Y-70132982D01*
X119913373Y-70132982D02*
X119931843Y-70159854D01*
X119931843Y-70159854D02*
X119997699Y-70257275D01*
X119997699Y-70257275D02*
X120055650Y-70346163D01*
X120055650Y-70346163D02*
X120102538Y-70421412D01*
X120102538Y-70421412D02*
X120135207Y-70477920D01*
X120135207Y-70477920D02*
X120150500Y-70510581D01*
X120150500Y-70510581D02*
X120151241Y-70514593D01*
X120151241Y-70514593D02*
X120138392Y-70535684D01*
X120138392Y-70535684D02*
X120102888Y-70577464D01*
X120102888Y-70577464D02*
X120049293Y-70635445D01*
X120049293Y-70635445D02*
X119982171Y-70705135D01*
X119982171Y-70705135D02*
X119906087Y-70782045D01*
X119906087Y-70782045D02*
X119825604Y-70861683D01*
X119825604Y-70861683D02*
X119745287Y-70939561D01*
X119745287Y-70939561D02*
X119669699Y-71011186D01*
X119669699Y-71011186D02*
X119603405Y-71072070D01*
X119603405Y-71072070D02*
X119550969Y-71117721D01*
X119550969Y-71117721D02*
X119516955Y-71143650D01*
X119516955Y-71143650D02*
X119507545Y-71147883D01*
X119507545Y-71147883D02*
X119485643Y-71137912D01*
X119485643Y-71137912D02*
X119440800Y-71111020D01*
X119440800Y-71111020D02*
X119380321Y-71071736D01*
X119380321Y-71071736D02*
X119333789Y-71040117D01*
X119333789Y-71040117D02*
X119249475Y-70982098D01*
X119249475Y-70982098D02*
X119149626Y-70913784D01*
X119149626Y-70913784D02*
X119049473Y-70845579D01*
X119049473Y-70845579D02*
X118995627Y-70809075D01*
X118995627Y-70809075D02*
X118813371Y-70685800D01*
X118813371Y-70685800D02*
X118660381Y-70768520D01*
X118660381Y-70768520D02*
X118590682Y-70804759D01*
X118590682Y-70804759D02*
X118531414Y-70832926D01*
X118531414Y-70832926D02*
X118491311Y-70848991D01*
X118491311Y-70848991D02*
X118481103Y-70851226D01*
X118481103Y-70851226D02*
X118468829Y-70834722D01*
X118468829Y-70834722D02*
X118444613Y-70788082D01*
X118444613Y-70788082D02*
X118410263Y-70715609D01*
X118410263Y-70715609D02*
X118367588Y-70621606D01*
X118367588Y-70621606D02*
X118318394Y-70510374D01*
X118318394Y-70510374D02*
X118264490Y-70386215D01*
X118264490Y-70386215D02*
X118207684Y-70253432D01*
X118207684Y-70253432D02*
X118149782Y-70116327D01*
X118149782Y-70116327D02*
X118092593Y-69979202D01*
X118092593Y-69979202D02*
X118037924Y-69846358D01*
X118037924Y-69846358D02*
X117987584Y-69722098D01*
X117987584Y-69722098D02*
X117943380Y-69610725D01*
X117943380Y-69610725D02*
X117907119Y-69516539D01*
X117907119Y-69516539D02*
X117880609Y-69443844D01*
X117880609Y-69443844D02*
X117865658Y-69396941D01*
X117865658Y-69396941D02*
X117863254Y-69380833D01*
X117863254Y-69380833D02*
X117882311Y-69360286D01*
X117882311Y-69360286D02*
X117924036Y-69326933D01*
X117924036Y-69326933D02*
X117979706Y-69287702D01*
X117979706Y-69287702D02*
X117984378Y-69284599D01*
X117984378Y-69284599D02*
X118128264Y-69169423D01*
X118128264Y-69169423D02*
X118244283Y-69035053D01*
X118244283Y-69035053D02*
X118331430Y-68885784D01*
X118331430Y-68885784D02*
X118388699Y-68725913D01*
X118388699Y-68725913D02*
X118415086Y-68559737D01*
X118415086Y-68559737D02*
X118409585Y-68391552D01*
X118409585Y-68391552D02*
X118371190Y-68225655D01*
X118371190Y-68225655D02*
X118298895Y-68066342D01*
X118298895Y-68066342D02*
X118277626Y-68031487D01*
X118277626Y-68031487D02*
X118166996Y-67890737D01*
X118166996Y-67890737D02*
X118036302Y-67777714D01*
X118036302Y-67777714D02*
X117890064Y-67693003D01*
X117890064Y-67693003D02*
X117732808Y-67637194D01*
X117732808Y-67637194D02*
X117569057Y-67610874D01*
X117569057Y-67610874D02*
X117403333Y-67614630D01*
X117403333Y-67614630D02*
X117240162Y-67649050D01*
X117240162Y-67649050D02*
X117084065Y-67714723D01*
X117084065Y-67714723D02*
X116939567Y-67812235D01*
X116939567Y-67812235D02*
X116894869Y-67851813D01*
X116894869Y-67851813D02*
X116781112Y-67975703D01*
X116781112Y-67975703D02*
X116698218Y-68106124D01*
X116698218Y-68106124D02*
X116641356Y-68252315D01*
X116641356Y-68252315D02*
X116609687Y-68397088D01*
X116609687Y-68397088D02*
X116601869Y-68559860D01*
X116601869Y-68559860D02*
X116627938Y-68723440D01*
X116627938Y-68723440D02*
X116685245Y-68882298D01*
X116685245Y-68882298D02*
X116771144Y-69030906D01*
X116771144Y-69030906D02*
X116882986Y-69163735D01*
X116882986Y-69163735D02*
X117018123Y-69275256D01*
X117018123Y-69275256D02*
X117035883Y-69287011D01*
X117035883Y-69287011D02*
X117092150Y-69325508D01*
X117092150Y-69325508D02*
X117134923Y-69358863D01*
X117134923Y-69358863D02*
X117155372Y-69380160D01*
X117155372Y-69380160D02*
X117155669Y-69380833D01*
X117155669Y-69380833D02*
X117151279Y-69403871D01*
X117151279Y-69403871D02*
X117133876Y-69456157D01*
X117133876Y-69456157D02*
X117105268Y-69533390D01*
X117105268Y-69533390D02*
X117067265Y-69631268D01*
X117067265Y-69631268D02*
X117021674Y-69745491D01*
X117021674Y-69745491D02*
X116970303Y-69871758D01*
X116970303Y-69871758D02*
X116914962Y-70005767D01*
X116914962Y-70005767D02*
X116857458Y-70143218D01*
X116857458Y-70143218D02*
X116799601Y-70279808D01*
X116799601Y-70279808D02*
X116743198Y-70411237D01*
X116743198Y-70411237D02*
X116690058Y-70533205D01*
X116690058Y-70533205D02*
X116641990Y-70641409D01*
X116641990Y-70641409D02*
X116600801Y-70731549D01*
X116600801Y-70731549D02*
X116568301Y-70799323D01*
X116568301Y-70799323D02*
X116546297Y-70840430D01*
X116546297Y-70840430D02*
X116537436Y-70851226D01*
X116537436Y-70851226D02*
X116510360Y-70842819D01*
X116510360Y-70842819D02*
X116459697Y-70820272D01*
X116459697Y-70820272D02*
X116394183Y-70787613D01*
X116394183Y-70787613D02*
X116358159Y-70768520D01*
X116358159Y-70768520D02*
X116205168Y-70685800D01*
X116205168Y-70685800D02*
X116022912Y-70809075D01*
X116022912Y-70809075D02*
X115929875Y-70872228D01*
X115929875Y-70872228D02*
X115828015Y-70941727D01*
X115828015Y-70941727D02*
X115732562Y-71007165D01*
X115732562Y-71007165D02*
X115684750Y-71040117D01*
X115684750Y-71040117D02*
X115617505Y-71085273D01*
X115617505Y-71085273D02*
X115560564Y-71121057D01*
X115560564Y-71121057D02*
X115521354Y-71142938D01*
X115521354Y-71142938D02*
X115508619Y-71147563D01*
X115508619Y-71147563D02*
X115490083Y-71135085D01*
X115490083Y-71135085D02*
X115449059Y-71100252D01*
X115449059Y-71100252D02*
X115389525Y-71046678D01*
X115389525Y-71046678D02*
X115315458Y-70977983D01*
X115315458Y-70977983D02*
X115230835Y-70897781D01*
X115230835Y-70897781D02*
X115177315Y-70846286D01*
X115177315Y-70846286D02*
X115083681Y-70754286D01*
X115083681Y-70754286D02*
X115002759Y-70671999D01*
X115002759Y-70671999D02*
X114937823Y-70602945D01*
X114937823Y-70602945D02*
X114892142Y-70550644D01*
X114892142Y-70550644D02*
X114868989Y-70518616D01*
X114868989Y-70518616D02*
X114866768Y-70512116D01*
X114866768Y-70512116D02*
X114877076Y-70487394D01*
X114877076Y-70487394D02*
X114905561Y-70437405D01*
X114905561Y-70437405D02*
X114949063Y-70367212D01*
X114949063Y-70367212D02*
X115004423Y-70281875D01*
X115004423Y-70281875D02*
X115068480Y-70186456D01*
X115068480Y-70186456D02*
X115086697Y-70159854D01*
X115086697Y-70159854D02*
X115153073Y-70063167D01*
X115153073Y-70063167D02*
X115212622Y-69976117D01*
X115212622Y-69976117D02*
X115262016Y-69903595D01*
X115262016Y-69903595D02*
X115297925Y-69850493D01*
X115297925Y-69850493D02*
X115317019Y-69821703D01*
X115317019Y-69821703D02*
X115318864Y-69818726D01*
X115318864Y-69818726D02*
X115316105Y-69795782D01*
X115316105Y-69795782D02*
X115301462Y-69745336D01*
X115301462Y-69745336D02*
X115277487Y-69674041D01*
X115277487Y-69674041D02*
X115246734Y-69588547D01*
X115246734Y-69588547D02*
X115211756Y-69495507D01*
X115211756Y-69495507D02*
X115175107Y-69401574D01*
X115175107Y-69401574D02*
X115139339Y-69313399D01*
X115139339Y-69313399D02*
X115107006Y-69237634D01*
X115107006Y-69237634D02*
X115080662Y-69180931D01*
X115080662Y-69180931D02*
X115062858Y-69149943D01*
X115062858Y-69149943D02*
X115061593Y-69148457D01*
X115061593Y-69148457D02*
X115050706Y-69139601D01*
X115050706Y-69139601D02*
X115032318Y-69130843D01*
X115032318Y-69130843D02*
X115002394Y-69121277D01*
X115002394Y-69121277D02*
X114956897Y-69109996D01*
X114956897Y-69109996D02*
X114891791Y-69096093D01*
X114891791Y-69096093D02*
X114803039Y-69078663D01*
X114803039Y-69078663D02*
X114686607Y-69056798D01*
X114686607Y-69056798D02*
X114538458Y-69029591D01*
X114538458Y-69029591D02*
X114506382Y-69023741D01*
X114506382Y-69023741D02*
X114411314Y-69005374D01*
X114411314Y-69005374D02*
X114328435Y-68987405D01*
X114328435Y-68987405D02*
X114265070Y-68971569D01*
X114265070Y-68971569D02*
X114228542Y-68959600D01*
X114228542Y-68959600D02*
X114223644Y-68956810D01*
X114223644Y-68956810D02*
X114215573Y-68932072D01*
X114215573Y-68932072D02*
X114209013Y-68876790D01*
X114209013Y-68876790D02*
X114203967Y-68797389D01*
X114203967Y-68797389D02*
X114200441Y-68700296D01*
X114200441Y-68700296D02*
X114198439Y-68591938D01*
X114198439Y-68591938D02*
X114197964Y-68478740D01*
X114197964Y-68478740D02*
X114199023Y-68367128D01*
X114199023Y-68367128D02*
X114201618Y-68263529D01*
X114201618Y-68263529D02*
X114205754Y-68174368D01*
X114205754Y-68174368D02*
X114211437Y-68106072D01*
X114211437Y-68106072D02*
X114218669Y-68065066D01*
X114218669Y-68065066D02*
X114223029Y-68056674D01*
X114223029Y-68056674D02*
X114247302Y-68048208D01*
X114247302Y-68048208D02*
X114302574Y-68034435D01*
X114302574Y-68034435D02*
X114383338Y-68016550D01*
X114383338Y-68016550D02*
X114484088Y-67995748D01*
X114484088Y-67995748D02*
X114599317Y-67973223D01*
X114599317Y-67973223D02*
X114662098Y-67961418D01*
X114662098Y-67961418D02*
X114781213Y-67939151D01*
X114781213Y-67939151D02*
X114887435Y-67918979D01*
X114887435Y-67918979D02*
X114975573Y-67901915D01*
X114975573Y-67901915D02*
X115040434Y-67888969D01*
X115040434Y-67888969D02*
X115076826Y-67881155D01*
X115076826Y-67881155D02*
X115082816Y-67879422D01*
X115082816Y-67879422D02*
X115092939Y-67859890D01*
X115092939Y-67859890D02*
X115114338Y-67812843D01*
X115114338Y-67812843D02*
X115144161Y-67745003D01*
X115144161Y-67745003D02*
X115179555Y-67663091D01*
X115179555Y-67663091D02*
X115217668Y-67573828D01*
X115217668Y-67573828D02*
X115255647Y-67483935D01*
X115255647Y-67483935D02*
X115290640Y-67400135D01*
X115290640Y-67400135D02*
X115319794Y-67329147D01*
X115319794Y-67329147D02*
X115340257Y-67277694D01*
X115340257Y-67277694D02*
X115349177Y-67252497D01*
X115349177Y-67252497D02*
X115349343Y-67251396D01*
X115349343Y-67251396D02*
X115339231Y-67231519D01*
X115339231Y-67231519D02*
X115310883Y-67185777D01*
X115310883Y-67185777D02*
X115267277Y-67118717D01*
X115267277Y-67118717D02*
X115211394Y-67034884D01*
X115211394Y-67034884D02*
X115146213Y-66938826D01*
X115146213Y-66938826D02*
X115108321Y-66883650D01*
X115108321Y-66883650D02*
X115039275Y-66782481D01*
X115039275Y-66782481D02*
X114977950Y-66690630D01*
X114977950Y-66690630D02*
X114927337Y-66612744D01*
X114927337Y-66612744D02*
X114890429Y-66553469D01*
X114890429Y-66553469D02*
X114870218Y-66517451D01*
X114870218Y-66517451D02*
X114867299Y-66509377D01*
X114867299Y-66509377D02*
X114879847Y-66490584D01*
X114879847Y-66490584D02*
X114914537Y-66450457D01*
X114914537Y-66450457D02*
X114966937Y-66393493D01*
X114966937Y-66393493D02*
X115032616Y-66324185D01*
X115032616Y-66324185D02*
X115107144Y-66247031D01*
X115107144Y-66247031D02*
X115186087Y-66166525D01*
X115186087Y-66166525D02*
X115265017Y-66087163D01*
X115265017Y-66087163D02*
X115339500Y-66013440D01*
X115339500Y-66013440D02*
X115405106Y-65949852D01*
X115405106Y-65949852D02*
X115457404Y-65900894D01*
X115457404Y-65900894D02*
X115491961Y-65871061D01*
X115491961Y-65871061D02*
X115503522Y-65863942D01*
X115503522Y-65863942D02*
X115522346Y-65873953D01*
X115522346Y-65873953D02*
X115567369Y-65902078D01*
X115567369Y-65902078D02*
X115634213Y-65945454D01*
X115634213Y-65945454D02*
X115718501Y-66001218D01*
X115718501Y-66001218D02*
X115815856Y-66066506D01*
X115815856Y-66066506D02*
X115889293Y-66116246D01*
X115889293Y-66116246D02*
X116260333Y-66368551D01*
X116260333Y-66368551D02*
X116878905Y-66113555D01*
X116878905Y-66113555D02*
X116962725Y-65668931D01*
X116962725Y-65668931D02*
X117046546Y-65224307D01*
X117046546Y-65224307D02*
X117971994Y-65224307D01*
X117971994Y-65224307D02*
X118055814Y-65668931D01*
X118055814Y-65668931D02*
X118055814Y-65668931D01*
G36*
X118055814Y-65668931D02*
G01*
X118139635Y-66113555D01*
X118448920Y-66241053D01*
X118758206Y-66368551D01*
X119129246Y-66116246D01*
X119233157Y-66045996D01*
X119327087Y-65983272D01*
X119406652Y-65930938D01*
X119467470Y-65891857D01*
X119505157Y-65868893D01*
X119515421Y-65863942D01*
X119533910Y-65876676D01*
X119573420Y-65911882D01*
X119629522Y-65965062D01*
X119697787Y-66031718D01*
X119773786Y-66107354D01*
X119853092Y-66187472D01*
X119931275Y-66267574D01*
X120003907Y-66343164D01*
X120066559Y-66409745D01*
X120114803Y-66462818D01*
X120144210Y-66497887D01*
X120151241Y-66509623D01*
X120141123Y-66531260D01*
X120112759Y-66578662D01*
X120069129Y-66647193D01*
X120013218Y-66732215D01*
X119948006Y-66829093D01*
X119910219Y-66884350D01*
X119841343Y-66985248D01*
X119780140Y-67076299D01*
X119729578Y-67152970D01*
X119692628Y-67210728D01*
X119672258Y-67245043D01*
X119669197Y-67252254D01*
X119676136Y-67272748D01*
X119695051Y-67320513D01*
X119723087Y-67388832D01*
X119757391Y-67470989D01*
X119795109Y-67560270D01*
X119833387Y-67649958D01*
X119869370Y-67733338D01*
X119900206Y-67803694D01*
X119923039Y-67854310D01*
X119935017Y-67878471D01*
X119935724Y-67879422D01*
X119954531Y-67884036D01*
X120004618Y-67894328D01*
X120080793Y-67909287D01*
X120177865Y-67927901D01*
X120290643Y-67949159D01*
X120356442Y-67961418D01*
X120476950Y-67984362D01*
X120585797Y-68006195D01*
X120677476Y-68025722D01*
X120746481Y-68041748D01*
X120787304Y-68053079D01*
X120795511Y-68056674D01*
X120803548Y-68081006D01*
X120810033Y-68135959D01*
X120814970Y-68215108D01*
X120818364Y-68312026D01*
X120820218Y-68420287D01*
X120820538Y-68533465D01*
X120819327Y-68645135D01*
X120816590Y-68748868D01*
X120812331Y-68838241D01*
X120806555Y-68906826D01*
X120799267Y-68948197D01*
X120794895Y-68956810D01*
X120768764Y-68967133D01*
X120713393Y-68981892D01*
X120636107Y-68999352D01*
X120544230Y-69017780D01*
X120512158Y-69023741D01*
X120357524Y-69052066D01*
X120235375Y-69074876D01*
X120141673Y-69093080D01*
X120072384Y-69107583D01*
X120023471Y-69119292D01*
X119990897Y-69129115D01*
X119970628Y-69137956D01*
X119958626Y-69146724D01*
X119956947Y-69148457D01*
X119940184Y-69176371D01*
X119914614Y-69230695D01*
X119882788Y-69304777D01*
X119847260Y-69391965D01*
X119810583Y-69485608D01*
X119775311Y-69579052D01*
X119743996Y-69665647D01*
X119719193Y-69738740D01*
X119703454Y-69791678D01*
X119699332Y-69817811D01*
X119699676Y-69818726D01*
X119713641Y-69840086D01*
X119745322Y-69887084D01*
X119791391Y-69954827D01*
X119848518Y-70038423D01*
X119913373Y-70132982D01*
X119931843Y-70159854D01*
X119997699Y-70257275D01*
X120055650Y-70346163D01*
X120102538Y-70421412D01*
X120135207Y-70477920D01*
X120150500Y-70510581D01*
X120151241Y-70514593D01*
X120138392Y-70535684D01*
X120102888Y-70577464D01*
X120049293Y-70635445D01*
X119982171Y-70705135D01*
X119906087Y-70782045D01*
X119825604Y-70861683D01*
X119745287Y-70939561D01*
X119669699Y-71011186D01*
X119603405Y-71072070D01*
X119550969Y-71117721D01*
X119516955Y-71143650D01*
X119507545Y-71147883D01*
X119485643Y-71137912D01*
X119440800Y-71111020D01*
X119380321Y-71071736D01*
X119333789Y-71040117D01*
X119249475Y-70982098D01*
X119149626Y-70913784D01*
X119049473Y-70845579D01*
X118995627Y-70809075D01*
X118813371Y-70685800D01*
X118660381Y-70768520D01*
X118590682Y-70804759D01*
X118531414Y-70832926D01*
X118491311Y-70848991D01*
X118481103Y-70851226D01*
X118468829Y-70834722D01*
X118444613Y-70788082D01*
X118410263Y-70715609D01*
X118367588Y-70621606D01*
X118318394Y-70510374D01*
X118264490Y-70386215D01*
X118207684Y-70253432D01*
X118149782Y-70116327D01*
X118092593Y-69979202D01*
X118037924Y-69846358D01*
X117987584Y-69722098D01*
X117943380Y-69610725D01*
X117907119Y-69516539D01*
X117880609Y-69443844D01*
X117865658Y-69396941D01*
X117863254Y-69380833D01*
X117882311Y-69360286D01*
X117924036Y-69326933D01*
X117979706Y-69287702D01*
X117984378Y-69284599D01*
X118128264Y-69169423D01*
X118244283Y-69035053D01*
X118331430Y-68885784D01*
X118388699Y-68725913D01*
X118415086Y-68559737D01*
X118409585Y-68391552D01*
X118371190Y-68225655D01*
X118298895Y-68066342D01*
X118277626Y-68031487D01*
X118166996Y-67890737D01*
X118036302Y-67777714D01*
X117890064Y-67693003D01*
X117732808Y-67637194D01*
X117569057Y-67610874D01*
X117403333Y-67614630D01*
X117240162Y-67649050D01*
X117084065Y-67714723D01*
X116939567Y-67812235D01*
X116894869Y-67851813D01*
X116781112Y-67975703D01*
X116698218Y-68106124D01*
X116641356Y-68252315D01*
X116609687Y-68397088D01*
X116601869Y-68559860D01*
X116627938Y-68723440D01*
X116685245Y-68882298D01*
X116771144Y-69030906D01*
X116882986Y-69163735D01*
X117018123Y-69275256D01*
X117035883Y-69287011D01*
X117092150Y-69325508D01*
X117134923Y-69358863D01*
X117155372Y-69380160D01*
X117155669Y-69380833D01*
X117151279Y-69403871D01*
X117133876Y-69456157D01*
X117105268Y-69533390D01*
X117067265Y-69631268D01*
X117021674Y-69745491D01*
X116970303Y-69871758D01*
X116914962Y-70005767D01*
X116857458Y-70143218D01*
X116799601Y-70279808D01*
X116743198Y-70411237D01*
X116690058Y-70533205D01*
X116641990Y-70641409D01*
X116600801Y-70731549D01*
X116568301Y-70799323D01*
X116546297Y-70840430D01*
X116537436Y-70851226D01*
X116510360Y-70842819D01*
X116459697Y-70820272D01*
X116394183Y-70787613D01*
X116358159Y-70768520D01*
X116205168Y-70685800D01*
X116022912Y-70809075D01*
X115929875Y-70872228D01*
X115828015Y-70941727D01*
X115732562Y-71007165D01*
X115684750Y-71040117D01*
X115617505Y-71085273D01*
X115560564Y-71121057D01*
X115521354Y-71142938D01*
X115508619Y-71147563D01*
X115490083Y-71135085D01*
X115449059Y-71100252D01*
X115389525Y-71046678D01*
X115315458Y-70977983D01*
X115230835Y-70897781D01*
X115177315Y-70846286D01*
X115083681Y-70754286D01*
X115002759Y-70671999D01*
X114937823Y-70602945D01*
X114892142Y-70550644D01*
X114868989Y-70518616D01*
X114866768Y-70512116D01*
X114877076Y-70487394D01*
X114905561Y-70437405D01*
X114949063Y-70367212D01*
X115004423Y-70281875D01*
X115068480Y-70186456D01*
X115086697Y-70159854D01*
X115153073Y-70063167D01*
X115212622Y-69976117D01*
X115262016Y-69903595D01*
X115297925Y-69850493D01*
X115317019Y-69821703D01*
X115318864Y-69818726D01*
X115316105Y-69795782D01*
X115301462Y-69745336D01*
X115277487Y-69674041D01*
X115246734Y-69588547D01*
X115211756Y-69495507D01*
X115175107Y-69401574D01*
X115139339Y-69313399D01*
X115107006Y-69237634D01*
X115080662Y-69180931D01*
X115062858Y-69149943D01*
X115061593Y-69148457D01*
X115050706Y-69139601D01*
X115032318Y-69130843D01*
X115002394Y-69121277D01*
X114956897Y-69109996D01*
X114891791Y-69096093D01*
X114803039Y-69078663D01*
X114686607Y-69056798D01*
X114538458Y-69029591D01*
X114506382Y-69023741D01*
X114411314Y-69005374D01*
X114328435Y-68987405D01*
X114265070Y-68971569D01*
X114228542Y-68959600D01*
X114223644Y-68956810D01*
X114215573Y-68932072D01*
X114209013Y-68876790D01*
X114203967Y-68797389D01*
X114200441Y-68700296D01*
X114198439Y-68591938D01*
X114197964Y-68478740D01*
X114199023Y-68367128D01*
X114201618Y-68263529D01*
X114205754Y-68174368D01*
X114211437Y-68106072D01*
X114218669Y-68065066D01*
X114223029Y-68056674D01*
X114247302Y-68048208D01*
X114302574Y-68034435D01*
X114383338Y-68016550D01*
X114484088Y-67995748D01*
X114599317Y-67973223D01*
X114662098Y-67961418D01*
X114781213Y-67939151D01*
X114887435Y-67918979D01*
X114975573Y-67901915D01*
X115040434Y-67888969D01*
X115076826Y-67881155D01*
X115082816Y-67879422D01*
X115092939Y-67859890D01*
X115114338Y-67812843D01*
X115144161Y-67745003D01*
X115179555Y-67663091D01*
X115217668Y-67573828D01*
X115255647Y-67483935D01*
X115290640Y-67400135D01*
X115319794Y-67329147D01*
X115340257Y-67277694D01*
X115349177Y-67252497D01*
X115349343Y-67251396D01*
X115339231Y-67231519D01*
X115310883Y-67185777D01*
X115267277Y-67118717D01*
X115211394Y-67034884D01*
X115146213Y-66938826D01*
X115108321Y-66883650D01*
X115039275Y-66782481D01*
X114977950Y-66690630D01*
X114927337Y-66612744D01*
X114890429Y-66553469D01*
X114870218Y-66517451D01*
X114867299Y-66509377D01*
X114879847Y-66490584D01*
X114914537Y-66450457D01*
X114966937Y-66393493D01*
X115032616Y-66324185D01*
X115107144Y-66247031D01*
X115186087Y-66166525D01*
X115265017Y-66087163D01*
X115339500Y-66013440D01*
X115405106Y-65949852D01*
X115457404Y-65900894D01*
X115491961Y-65871061D01*
X115503522Y-65863942D01*
X115522346Y-65873953D01*
X115567369Y-65902078D01*
X115634213Y-65945454D01*
X115718501Y-66001218D01*
X115815856Y-66066506D01*
X115889293Y-66116246D01*
X116260333Y-66368551D01*
X116878905Y-66113555D01*
X116962725Y-65668931D01*
X117046546Y-65224307D01*
X117971994Y-65224307D01*
X118055814Y-65668931D01*
G37*
X118055814Y-65668931D02*
X118139635Y-66113555D01*
X118448920Y-66241053D01*
X118758206Y-66368551D01*
X119129246Y-66116246D01*
X119233157Y-66045996D01*
X119327087Y-65983272D01*
X119406652Y-65930938D01*
X119467470Y-65891857D01*
X119505157Y-65868893D01*
X119515421Y-65863942D01*
X119533910Y-65876676D01*
X119573420Y-65911882D01*
X119629522Y-65965062D01*
X119697787Y-66031718D01*
X119773786Y-66107354D01*
X119853092Y-66187472D01*
X119931275Y-66267574D01*
X120003907Y-66343164D01*
X120066559Y-66409745D01*
X120114803Y-66462818D01*
X120144210Y-66497887D01*
X120151241Y-66509623D01*
X120141123Y-66531260D01*
X120112759Y-66578662D01*
X120069129Y-66647193D01*
X120013218Y-66732215D01*
X119948006Y-66829093D01*
X119910219Y-66884350D01*
X119841343Y-66985248D01*
X119780140Y-67076299D01*
X119729578Y-67152970D01*
X119692628Y-67210728D01*
X119672258Y-67245043D01*
X119669197Y-67252254D01*
X119676136Y-67272748D01*
X119695051Y-67320513D01*
X119723087Y-67388832D01*
X119757391Y-67470989D01*
X119795109Y-67560270D01*
X119833387Y-67649958D01*
X119869370Y-67733338D01*
X119900206Y-67803694D01*
X119923039Y-67854310D01*
X119935017Y-67878471D01*
X119935724Y-67879422D01*
X119954531Y-67884036D01*
X120004618Y-67894328D01*
X120080793Y-67909287D01*
X120177865Y-67927901D01*
X120290643Y-67949159D01*
X120356442Y-67961418D01*
X120476950Y-67984362D01*
X120585797Y-68006195D01*
X120677476Y-68025722D01*
X120746481Y-68041748D01*
X120787304Y-68053079D01*
X120795511Y-68056674D01*
X120803548Y-68081006D01*
X120810033Y-68135959D01*
X120814970Y-68215108D01*
X120818364Y-68312026D01*
X120820218Y-68420287D01*
X120820538Y-68533465D01*
X120819327Y-68645135D01*
X120816590Y-68748868D01*
X120812331Y-68838241D01*
X120806555Y-68906826D01*
X120799267Y-68948197D01*
X120794895Y-68956810D01*
X120768764Y-68967133D01*
X120713393Y-68981892D01*
X120636107Y-68999352D01*
X120544230Y-69017780D01*
X120512158Y-69023741D01*
X120357524Y-69052066D01*
X120235375Y-69074876D01*
X120141673Y-69093080D01*
X120072384Y-69107583D01*
X120023471Y-69119292D01*
X119990897Y-69129115D01*
X119970628Y-69137956D01*
X119958626Y-69146724D01*
X119956947Y-69148457D01*
X119940184Y-69176371D01*
X119914614Y-69230695D01*
X119882788Y-69304777D01*
X119847260Y-69391965D01*
X119810583Y-69485608D01*
X119775311Y-69579052D01*
X119743996Y-69665647D01*
X119719193Y-69738740D01*
X119703454Y-69791678D01*
X119699332Y-69817811D01*
X119699676Y-69818726D01*
X119713641Y-69840086D01*
X119745322Y-69887084D01*
X119791391Y-69954827D01*
X119848518Y-70038423D01*
X119913373Y-70132982D01*
X119931843Y-70159854D01*
X119997699Y-70257275D01*
X120055650Y-70346163D01*
X120102538Y-70421412D01*
X120135207Y-70477920D01*
X120150500Y-70510581D01*
X120151241Y-70514593D01*
X120138392Y-70535684D01*
X120102888Y-70577464D01*
X120049293Y-70635445D01*
X119982171Y-70705135D01*
X119906087Y-70782045D01*
X119825604Y-70861683D01*
X119745287Y-70939561D01*
X119669699Y-71011186D01*
X119603405Y-71072070D01*
X119550969Y-71117721D01*
X119516955Y-71143650D01*
X119507545Y-71147883D01*
X119485643Y-71137912D01*
X119440800Y-71111020D01*
X119380321Y-71071736D01*
X119333789Y-71040117D01*
X119249475Y-70982098D01*
X119149626Y-70913784D01*
X119049473Y-70845579D01*
X118995627Y-70809075D01*
X118813371Y-70685800D01*
X118660381Y-70768520D01*
X118590682Y-70804759D01*
X118531414Y-70832926D01*
X118491311Y-70848991D01*
X118481103Y-70851226D01*
X118468829Y-70834722D01*
X118444613Y-70788082D01*
X118410263Y-70715609D01*
X118367588Y-70621606D01*
X118318394Y-70510374D01*
X118264490Y-70386215D01*
X118207684Y-70253432D01*
X118149782Y-70116327D01*
X118092593Y-69979202D01*
X118037924Y-69846358D01*
X117987584Y-69722098D01*
X117943380Y-69610725D01*
X117907119Y-69516539D01*
X117880609Y-69443844D01*
X117865658Y-69396941D01*
X117863254Y-69380833D01*
X117882311Y-69360286D01*
X117924036Y-69326933D01*
X117979706Y-69287702D01*
X117984378Y-69284599D01*
X118128264Y-69169423D01*
X118244283Y-69035053D01*
X118331430Y-68885784D01*
X118388699Y-68725913D01*
X118415086Y-68559737D01*
X118409585Y-68391552D01*
X118371190Y-68225655D01*
X118298895Y-68066342D01*
X118277626Y-68031487D01*
X118166996Y-67890737D01*
X118036302Y-67777714D01*
X117890064Y-67693003D01*
X117732808Y-67637194D01*
X117569057Y-67610874D01*
X117403333Y-67614630D01*
X117240162Y-67649050D01*
X117084065Y-67714723D01*
X116939567Y-67812235D01*
X116894869Y-67851813D01*
X116781112Y-67975703D01*
X116698218Y-68106124D01*
X116641356Y-68252315D01*
X116609687Y-68397088D01*
X116601869Y-68559860D01*
X116627938Y-68723440D01*
X116685245Y-68882298D01*
X116771144Y-69030906D01*
X116882986Y-69163735D01*
X117018123Y-69275256D01*
X117035883Y-69287011D01*
X117092150Y-69325508D01*
X117134923Y-69358863D01*
X117155372Y-69380160D01*
X117155669Y-69380833D01*
X117151279Y-69403871D01*
X117133876Y-69456157D01*
X117105268Y-69533390D01*
X117067265Y-69631268D01*
X117021674Y-69745491D01*
X116970303Y-69871758D01*
X116914962Y-70005767D01*
X116857458Y-70143218D01*
X116799601Y-70279808D01*
X116743198Y-70411237D01*
X116690058Y-70533205D01*
X116641990Y-70641409D01*
X116600801Y-70731549D01*
X116568301Y-70799323D01*
X116546297Y-70840430D01*
X116537436Y-70851226D01*
X116510360Y-70842819D01*
X116459697Y-70820272D01*
X116394183Y-70787613D01*
X116358159Y-70768520D01*
X116205168Y-70685800D01*
X116022912Y-70809075D01*
X115929875Y-70872228D01*
X115828015Y-70941727D01*
X115732562Y-71007165D01*
X115684750Y-71040117D01*
X115617505Y-71085273D01*
X115560564Y-71121057D01*
X115521354Y-71142938D01*
X115508619Y-71147563D01*
X115490083Y-71135085D01*
X115449059Y-71100252D01*
X115389525Y-71046678D01*
X115315458Y-70977983D01*
X115230835Y-70897781D01*
X115177315Y-70846286D01*
X115083681Y-70754286D01*
X115002759Y-70671999D01*
X114937823Y-70602945D01*
X114892142Y-70550644D01*
X114868989Y-70518616D01*
X114866768Y-70512116D01*
X114877076Y-70487394D01*
X114905561Y-70437405D01*
X114949063Y-70367212D01*
X115004423Y-70281875D01*
X115068480Y-70186456D01*
X115086697Y-70159854D01*
X115153073Y-70063167D01*
X115212622Y-69976117D01*
X115262016Y-69903595D01*
X115297925Y-69850493D01*
X115317019Y-69821703D01*
X115318864Y-69818726D01*
X115316105Y-69795782D01*
X115301462Y-69745336D01*
X115277487Y-69674041D01*
X115246734Y-69588547D01*
X115211756Y-69495507D01*
X115175107Y-69401574D01*
X115139339Y-69313399D01*
X115107006Y-69237634D01*
X115080662Y-69180931D01*
X115062858Y-69149943D01*
X115061593Y-69148457D01*
X115050706Y-69139601D01*
X115032318Y-69130843D01*
X115002394Y-69121277D01*
X114956897Y-69109996D01*
X114891791Y-69096093D01*
X114803039Y-69078663D01*
X114686607Y-69056798D01*
X114538458Y-69029591D01*
X114506382Y-69023741D01*
X114411314Y-69005374D01*
X114328435Y-68987405D01*
X114265070Y-68971569D01*
X114228542Y-68959600D01*
X114223644Y-68956810D01*
X114215573Y-68932072D01*
X114209013Y-68876790D01*
X114203967Y-68797389D01*
X114200441Y-68700296D01*
X114198439Y-68591938D01*
X114197964Y-68478740D01*
X114199023Y-68367128D01*
X114201618Y-68263529D01*
X114205754Y-68174368D01*
X114211437Y-68106072D01*
X114218669Y-68065066D01*
X114223029Y-68056674D01*
X114247302Y-68048208D01*
X114302574Y-68034435D01*
X114383338Y-68016550D01*
X114484088Y-67995748D01*
X114599317Y-67973223D01*
X114662098Y-67961418D01*
X114781213Y-67939151D01*
X114887435Y-67918979D01*
X114975573Y-67901915D01*
X115040434Y-67888969D01*
X115076826Y-67881155D01*
X115082816Y-67879422D01*
X115092939Y-67859890D01*
X115114338Y-67812843D01*
X115144161Y-67745003D01*
X115179555Y-67663091D01*
X115217668Y-67573828D01*
X115255647Y-67483935D01*
X115290640Y-67400135D01*
X115319794Y-67329147D01*
X115340257Y-67277694D01*
X115349177Y-67252497D01*
X115349343Y-67251396D01*
X115339231Y-67231519D01*
X115310883Y-67185777D01*
X115267277Y-67118717D01*
X115211394Y-67034884D01*
X115146213Y-66938826D01*
X115108321Y-66883650D01*
X115039275Y-66782481D01*
X114977950Y-66690630D01*
X114927337Y-66612744D01*
X114890429Y-66553469D01*
X114870218Y-66517451D01*
X114867299Y-66509377D01*
X114879847Y-66490584D01*
X114914537Y-66450457D01*
X114966937Y-66393493D01*
X115032616Y-66324185D01*
X115107144Y-66247031D01*
X115186087Y-66166525D01*
X115265017Y-66087163D01*
X115339500Y-66013440D01*
X115405106Y-65949852D01*
X115457404Y-65900894D01*
X115491961Y-65871061D01*
X115503522Y-65863942D01*
X115522346Y-65873953D01*
X115567369Y-65902078D01*
X115634213Y-65945454D01*
X115718501Y-66001218D01*
X115815856Y-66066506D01*
X115889293Y-66116246D01*
X116260333Y-66368551D01*
X116878905Y-66113555D01*
X116962725Y-65668931D01*
X117046546Y-65224307D01*
X117971994Y-65224307D01*
X118055814Y-65668931D01*
%TD*%
M02*
