%TF.GenerationSoftware,KiCad,Pcbnew,6.0.2+dfsg-1*%
%TF.CreationDate,2023-02-03T10:11:00+01:00*%
%TF.ProjectId,UniBalun1.2,556e6942-616c-4756-9e31-2e322e6b6963,rev?*%
%TF.SameCoordinates,Original*%
%TF.FileFunction,Copper,L2,Bot*%
%TF.FilePolarity,Positive*%
%FSLAX46Y46*%
G04 Gerber Fmt 4.6, Leading zero omitted, Abs format (unit mm)*
G04 Created by KiCad (PCBNEW 6.0.2+dfsg-1) date 2023-02-03 10:11:00*
%MOMM*%
%LPD*%
G01*
G04 APERTURE LIST*
G04 Aperture macros list*
%AMRoundRect*
0 Rectangle with rounded corners*
0 $1 Rounding radius*
0 $2 $3 $4 $5 $6 $7 $8 $9 X,Y pos of 4 corners*
0 Add a 4 corners polygon primitive as box body*
4,1,4,$2,$3,$4,$5,$6,$7,$8,$9,$2,$3,0*
0 Add four circle primitives for the rounded corners*
1,1,$1+$1,$2,$3*
1,1,$1+$1,$4,$5*
1,1,$1+$1,$6,$7*
1,1,$1+$1,$8,$9*
0 Add four rect primitives between the rounded corners*
20,1,$1+$1,$2,$3,$4,$5,0*
20,1,$1+$1,$4,$5,$6,$7,0*
20,1,$1+$1,$6,$7,$8,$9,0*
20,1,$1+$1,$8,$9,$2,$3,0*%
G04 Aperture macros list end*
%TA.AperFunction,ComponentPad*%
%ADD10RoundRect,0.249999X-1.025001X-1.025001X1.025001X-1.025001X1.025001X1.025001X-1.025001X1.025001X0*%
%TD*%
%TA.AperFunction,ComponentPad*%
%ADD11RoundRect,0.250002X-1.699998X-1.699998X1.699998X-1.699998X1.699998X1.699998X-1.699998X1.699998X0*%
%TD*%
%TA.AperFunction,ComponentPad*%
%ADD12O,1.600000X2.500000*%
%TD*%
%TA.AperFunction,ComponentPad*%
%ADD13O,3.500000X7.000000*%
%TD*%
%TA.AperFunction,ComponentPad*%
%ADD14RoundRect,0.250000X-0.750000X-0.750000X0.750000X-0.750000X0.750000X0.750000X-0.750000X0.750000X0*%
%TD*%
%TA.AperFunction,ComponentPad*%
%ADD15C,6.400000*%
%TD*%
%TA.AperFunction,ComponentPad*%
%ADD16RoundRect,0.425000X0.425000X0.425000X-0.425000X0.425000X-0.425000X-0.425000X0.425000X-0.425000X0*%
%TD*%
%TA.AperFunction,SMDPad,CuDef*%
%ADD17R,1.350000X4.200000*%
%TD*%
%TA.AperFunction,SMDPad,CuDef*%
%ADD18R,5.000000X22.500000*%
%TD*%
%TA.AperFunction,ViaPad*%
%ADD19C,0.800000*%
%TD*%
%TA.AperFunction,Conductor*%
%ADD20C,0.800000*%
%TD*%
%TA.AperFunction,Conductor*%
%ADD21C,1.300000*%
%TD*%
%TA.AperFunction,Conductor*%
%ADD22C,1.000000*%
%TD*%
G04 APERTURE END LIST*
D10*
%TO.P,U2,1,a*%
%TO.N,GND*%
X119837200Y-79121000D03*
%TO.P,U2,2,b*%
%TO.N,Net-(C1-Pad1)*%
X123266200Y-77851000D03*
%TO.P,U2,3,a'*%
%TO.N,Net-(H2-Pad1)*%
X111963200Y-77978000D03*
%TO.P,U2,4,b'*%
%TO.N,Net-(U1-Pad1)*%
X115265200Y-79121000D03*
%TO.P,U2,5,x*%
%TO.N,Net-(H1-Pad1)*%
X122123200Y-52832000D03*
%TD*%
D11*
%TO.P,J5,1,Pin_1*%
%TO.N,Net-(H2-Pad1)*%
X108204000Y-48260000D03*
%TD*%
D12*
%TO.P,J1,1,In*%
%TO.N,Net-(C1-Pad1)*%
X117602000Y-96210000D03*
D13*
%TO.P,J1,2,Ext*%
%TO.N,GND*%
X122682000Y-101290000D03*
D12*
X120142000Y-96210000D03*
D13*
X112522000Y-101290000D03*
%TD*%
D11*
%TO.P,J3,1,Pin_1*%
%TO.N,Net-(H1-Pad1)*%
X127000000Y-48260000D03*
%TD*%
D14*
%TO.P,U1,1,1*%
%TO.N,Net-(U1-Pad1)*%
X115239800Y-83235800D03*
%TO.P,U1,2,2*%
%TO.N,GND*%
X115239800Y-86918800D03*
%TO.P,U1,3,3*%
%TO.N,Net-(H1-Pad1)*%
X119811800Y-83235800D03*
%TO.P,U1,4,4*%
%TO.N,Net-(C1-Pad1)*%
X119811800Y-86918800D03*
%TD*%
D15*
%TO.P,H2,1,1*%
%TO.N,Net-(H2-Pad1)*%
X103124000Y-52324000D03*
%TD*%
D16*
%TO.P,C1,1*%
%TO.N,Net-(C1-Pad1)*%
X120396000Y-90678000D03*
X122936000Y-90678000D03*
%TO.P,C1,2*%
%TO.N,GND*%
X112776000Y-90678000D03*
%TD*%
D15*
%TO.P,H1,1,1*%
%TO.N,Net-(H1-Pad1)*%
X132080000Y-52324000D03*
%TD*%
D17*
%TO.P,J2,2,Ext*%
%TO.N,GND*%
X120427000Y-104422600D03*
X114777000Y-104422600D03*
%TD*%
D18*
%TO.P,J4,1,Pin_1*%
%TO.N,Net-(H1-Pad1)*%
X127000000Y-57150000D03*
%TD*%
%TO.P,J6,1,Pin_1*%
%TO.N,Net-(H2-Pad1)*%
X108204000Y-57150000D03*
%TD*%
D19*
%TO.N,GND*%
X110490000Y-105410000D03*
X119380000Y-99060000D03*
X115570000Y-99060000D03*
X114300000Y-93980000D03*
X115570000Y-93980000D03*
X115570000Y-101600000D03*
X111760000Y-93980000D03*
X115570000Y-95250000D03*
X124460000Y-93980000D03*
X113030000Y-93980000D03*
X123190000Y-93980000D03*
X110490000Y-96520000D03*
X124460000Y-95250000D03*
X121920000Y-93980000D03*
X115570000Y-96520000D03*
X119380000Y-101600000D03*
X119380000Y-100330000D03*
X115570000Y-100330000D03*
X120650000Y-93980000D03*
X110490000Y-95250000D03*
X115570000Y-97790000D03*
X111760000Y-105410000D03*
X113030000Y-105410000D03*
X124460000Y-105410000D03*
X110490000Y-97790000D03*
X110490000Y-93980000D03*
X119380000Y-93980000D03*
X121920000Y-105410000D03*
X123190000Y-105410000D03*
X124460000Y-96520000D03*
X124460000Y-97790000D03*
%TD*%
D20*
%TO.N,Net-(H1-Pad1)*%
X118795800Y-83235800D02*
X117600000Y-82040000D01*
D21*
X127000000Y-48260000D02*
X128016000Y-48260000D01*
D22*
X127000000Y-53086000D02*
X122377200Y-53086000D01*
D20*
X117600000Y-81970000D02*
X117600000Y-76600000D01*
D22*
X127000000Y-57150000D02*
X127000000Y-53086000D01*
X122377200Y-53086000D02*
X122123200Y-52832000D01*
D20*
X117600000Y-82040000D02*
X117600000Y-81900000D01*
D21*
X127000000Y-48260000D02*
X127000000Y-53086000D01*
D20*
X127000000Y-67100000D02*
X127000000Y-66929000D01*
D22*
X127000000Y-66929000D02*
X127000000Y-57150000D01*
D20*
X117600000Y-76500000D02*
X127000000Y-67100000D01*
D21*
X128016000Y-48260000D02*
X132080000Y-52324000D01*
X125526800Y-55676800D02*
X127000000Y-57150000D01*
%TO.N,Net-(H2-Pad1)*%
X107188000Y-48260000D02*
X103124000Y-52324000D01*
X108204000Y-48260000D02*
X108204000Y-57150000D01*
D20*
X111963200Y-77978000D02*
X111963200Y-73812400D01*
D21*
X108204000Y-48260000D02*
X107188000Y-48260000D01*
D20*
X108204000Y-70053200D02*
X108204000Y-57150000D01*
X111963200Y-73812400D02*
X108204000Y-70053200D01*
%TD*%
%TA.AperFunction,Conductor*%
%TO.N,GND*%
G36*
X125295352Y-93492002D02*
G01*
X125341845Y-93545658D01*
X125353231Y-93598000D01*
X125353231Y-105337721D01*
X125353132Y-105339172D01*
X125352717Y-105340628D01*
X125352783Y-105350465D01*
X125352786Y-105350945D01*
X125349564Y-105380111D01*
X125326813Y-105478721D01*
X125323599Y-105492652D01*
X125315169Y-105517252D01*
X125258079Y-105640584D01*
X125244780Y-105662926D01*
X125163585Y-105771911D01*
X125145979Y-105791050D01*
X125044140Y-105881043D01*
X125022979Y-105896160D01*
X124977799Y-105921846D01*
X124904833Y-105963327D01*
X124881019Y-105973778D01*
X124751604Y-106015258D01*
X124726151Y-106020598D01*
X124694009Y-106023933D01*
X124617969Y-106031824D01*
X124602100Y-106031417D01*
X124602089Y-106032279D01*
X124593110Y-106032169D01*
X124584240Y-106030788D01*
X124575339Y-106031952D01*
X124575335Y-106031952D01*
X124552720Y-106034910D01*
X124536382Y-106035974D01*
X110708100Y-106035974D01*
X110688715Y-106034474D01*
X110673914Y-106032169D01*
X110673911Y-106032169D01*
X110665042Y-106030788D01*
X110656140Y-106031952D01*
X110656137Y-106031952D01*
X110655017Y-106032099D01*
X110625490Y-106032471D01*
X110600340Y-106029824D01*
X110514686Y-106020808D01*
X110488886Y-106015316D01*
X110363722Y-105974586D01*
X110339631Y-105963842D01*
X110225699Y-105897950D01*
X110204371Y-105882425D01*
X110106648Y-105794248D01*
X110089023Y-105774627D01*
X110011796Y-105668029D01*
X109998650Y-105645180D01*
X109945308Y-105524834D01*
X109937205Y-105499740D01*
X109915636Y-105397283D01*
X109914402Y-105381499D01*
X109913506Y-105381580D01*
X109912695Y-105372632D01*
X109913160Y-105363671D01*
X109911090Y-105354936D01*
X109910546Y-105348932D01*
X109910031Y-105337555D01*
X109910031Y-96717127D01*
X116293500Y-96717127D01*
X116308457Y-96888087D01*
X116367716Y-97109243D01*
X116370039Y-97114224D01*
X116370039Y-97114225D01*
X116462151Y-97311762D01*
X116462154Y-97311767D01*
X116464477Y-97316749D01*
X116595802Y-97504300D01*
X116757700Y-97666198D01*
X116762208Y-97669355D01*
X116762211Y-97669357D01*
X116840389Y-97724098D01*
X116945251Y-97797523D01*
X116950233Y-97799846D01*
X116950238Y-97799849D01*
X117147775Y-97891961D01*
X117152757Y-97894284D01*
X117158065Y-97895706D01*
X117158067Y-97895707D01*
X117368598Y-97952119D01*
X117368600Y-97952119D01*
X117373913Y-97953543D01*
X117602000Y-97973498D01*
X117830087Y-97953543D01*
X117835400Y-97952119D01*
X117835402Y-97952119D01*
X118045933Y-97895707D01*
X118045935Y-97895706D01*
X118051243Y-97894284D01*
X118056225Y-97891961D01*
X118253762Y-97799849D01*
X118253767Y-97799846D01*
X118258749Y-97797523D01*
X118363611Y-97724098D01*
X118441789Y-97669357D01*
X118441792Y-97669355D01*
X118446300Y-97666198D01*
X118608198Y-97504300D01*
X118739523Y-97316749D01*
X118741846Y-97311767D01*
X118741849Y-97311762D01*
X118833961Y-97114225D01*
X118833961Y-97114224D01*
X118836284Y-97109243D01*
X118895543Y-96888087D01*
X118910500Y-96717127D01*
X118910500Y-95702873D01*
X118895543Y-95531913D01*
X118836284Y-95310757D01*
X118833961Y-95305775D01*
X118741849Y-95108238D01*
X118741846Y-95108233D01*
X118739523Y-95103251D01*
X118608198Y-94915700D01*
X118446300Y-94753802D01*
X118441792Y-94750645D01*
X118441789Y-94750643D01*
X118363611Y-94695902D01*
X118258749Y-94622477D01*
X118253767Y-94620154D01*
X118253762Y-94620151D01*
X118056225Y-94528039D01*
X118056224Y-94528039D01*
X118051243Y-94525716D01*
X118045935Y-94524294D01*
X118045933Y-94524293D01*
X117835402Y-94467881D01*
X117835400Y-94467881D01*
X117830087Y-94466457D01*
X117602000Y-94446502D01*
X117373913Y-94466457D01*
X117368600Y-94467881D01*
X117368598Y-94467881D01*
X117158067Y-94524293D01*
X117158065Y-94524294D01*
X117152757Y-94525716D01*
X117147776Y-94528039D01*
X117147775Y-94528039D01*
X116950238Y-94620151D01*
X116950233Y-94620154D01*
X116945251Y-94622477D01*
X116840389Y-94695902D01*
X116762211Y-94750643D01*
X116762208Y-94750645D01*
X116757700Y-94753802D01*
X116595802Y-94915700D01*
X116464477Y-95103251D01*
X116462154Y-95108233D01*
X116462151Y-95108238D01*
X116370039Y-95305775D01*
X116367716Y-95310757D01*
X116308457Y-95531913D01*
X116293500Y-95702873D01*
X116293500Y-96717127D01*
X109910031Y-96717127D01*
X109910031Y-93598000D01*
X109930033Y-93529879D01*
X109983689Y-93483386D01*
X110036031Y-93472000D01*
X125227231Y-93472000D01*
X125295352Y-93492002D01*
G37*
%TD.AperFunction*%
%TD*%
M02*
